<mxfile host="app.diagrams.net" modified="2024-02-01T12:18:53.036Z" agent="Mozilla/5.0 (Windows NT 10.0; Win64; x64) AppleWebKit/537.36 (KHTML, like Gecko) Chrome/121.0.0.0 Safari/537.36" etag="bi4NkX4gZT-OANohA3C6" version="23.1.0" type="device">
  <diagram name="第 1 页" id="j2YGMM_NLYYHjwFQqyxh">
    <mxGraphModel dx="3990" dy="2535" grid="1" gridSize="10" guides="1" tooltips="1" connect="1" arrows="1" fold="1" page="1" pageScale="1" pageWidth="827" pageHeight="1169" background="none" math="0" shadow="0">
      <root>
        <mxCell id="0" />
        <mxCell id="1" parent="0" />
        <mxCell id="hsPanOtJcr2kntbXHpJ9-1" value="" style="shape=image;verticalLabelPosition=bottom;labelBackgroundColor=default;verticalAlign=top;aspect=fixed;imageAspect=0;image=data:image/webp,UklGRjQTAQBXRUJQVlA4WAoAAAAIAAAANwQAUwkAVlA4IDISAQCwVgadASo4BFQJPjEYiUOiIaOTT1QsOAMEs7d/LN5j/By/cW5HHdlC1kvLIMhZ2P9H/c7ZmQfcX8L/Gfk171PHvcj7K++f5r/kf473i9/vXfm4+e/vP/X/yX+r/bf5mf7j/0f7P3R/qL/zf6r9+/+n9hH6r/9T/Ff6L9tfjd/bj3e/vD/5/2q+Bf9o/2P7e+8j/1v2/97f9+/5P7j/8L5CP6j/q//d/tPft/9nsvfvB/9fca/dj/8evR+7P/k+Wv+v/8n9vf+J8kH7Nf+/8//kA//ftjfwD/79X/4//kv9p/mfus9UX8h/tfyt/xP/r9q/x/7r/O/4L9q/7r/5/9R8w/+h5de0//Z6L/y/8S/q/8d/lv9x/iv22+hf+X+VX+f/Z/3v/OP6b/rfmd/of2d+w78e/nX+N/vH7df5H9wveX4CnGfvN6jXt59u/2n+R/1H/O/xnwN/i/7z/Pfth+//0586/5r/5H7Bv51/aP9n/jP3c/xH//98r/t+bP6x+wvwC/zj/B/8z/L/6r9ofpk/yf+5/qv9l/8f9375vzT/T/9z/Pf6X9nPsN/lX9Q/3n99/zv/q/zP////X3o+yD9wP+d7nn7Df9z8/w9lXptQjoMQVdDLUcm1COgxBV0MtRybUI6DEFXQy1HJtQjoMQVdDLUcm1COgxBV0MtRzEZEXyW9BLdGuqIvkt6CW6NdURfJb0Et0a6oi+S3oJbmrFt4vi8ARfEPK0YBVaywgXX3kjBu32tSrd5BsBz1h70zXVEXyW9BLdGuqIvkt4r3rGFLRsyqrT29L5q7/5Qr6+PT3gUwk9jSc7PMddIbKHZFuCuuTwDwR6jggtPvzb0D9hFcXT7aJ1KmX2Gnae8da8lYI9ysdYBgAg43xM2cwQdCKJwsIMwTHAa/3VzUgUswa8gzDUMXARqNSGkaCvii1t6CW6NdURfJb0Et0a6hFhb8eJvIrWgjd9fCz9LgA/XsYKDLJREuSVAdbk2ZqGHrlxL7dOnhCx586lB4Fdg+Zr26HB+pL9ljvs9xhYhikEiKRizeBUuwA1Dc9/zHRGKmwJL8uKl8dRjD0Oc/TPrYIF08h0REBWpEBpz0gJcCzv6tcxRYyS7fQXtQxLDSAq+P8vHu0T4NVWd6xuqgoZSyXLENuRny/0g1Gqsx0a6oi+S3oJbo11RF8e3by8IveMuX/YtQEBrEwHUlUDpMajQXMRJ7yDzUfdXqZcQFMDOJB+nu/+o1SOBPJ7vKhgVq4PvwFbOsdwakaH04AP7QTuc/a+lfBQZJJFLemwZhOWUWv/LRWbbPm/FaogsRlT+t54VxBADSmlb0Et0a6oi+S3oJbo1RUWghGB5yyfclwyVAbEbtjf8GBb0Et0a6oi+S3oJbo11RF8lvQS3RrqiL5LeglujXVEWgFvQS3RrqiL5LeglujXVEXyW9BLdGuqIvkt6CW6NdURaAW9BLdGuqIvkt6CW6NdURfJb0Et0a6oi+S3oJbo11RFoBb0Et0aiqKSJ23bBJCqrwUqqnfXFjEOjtvWZuV3Gdh5BV+OGQXg2OLv9URfJb0Et0a6oi+S3oJbo11RF8lvG1o0a6oizZste+B9X2FuVm7pW21dUYfI8u0moYGNXTI4ov1lzlOPAFL51OCS4nfzjyiglujXVEXyW9BLdGuqIvkt6CW6NdUBLacgCim/splbtQNNDg+pwWh8puvCtIEd7/rrw3VNe0y6JbG2ggdnl5FhT2IdVu7aXIRUu99w+vg5folVUPn/0W3YscqqdUe1l1gl5HyIvkt6CW6NdURfJb0Et0a6gmd36ccyEc/G8+hiKRb/p38JfQxq9d/m443hqG7XT1Fl9th9FfXfDta5DI4G12EaggJJPNz6rz9LBAQmHViau6Bo36y94dXZM5addisFiCWOhkRfJb0Et0a6oi+S3oJbo1xrfEc9ajYE0X1Wd4b+/EL787NyP8z8euv5CSUd50I9/PfL7f16RLCCVyQj7Jd6lL00HWIEfytEAymfIiXMCDaxnYSiQ8kfx+RgDMol3As5PAol767VAi+S3oJbo11RF8lvQS3RrqiCJN3HPnVEdHTfsE5QWlcGbfZELWrpEoH7Bll3ZBaFKq9yLag+PpLf8rgNVVSpARcwHgS6hT3ciJla0nwsur5LeglujXVEXyW9BLdGuqIvbc+n5m1Jrb/gwKcgyskTC9fLDM8Vdi2hc9/kY4AGta9WxQgjwDV4z5IZUMc20gdftWoDA/6ZmWAn5VT+2nxuTkjgBicRfJb0Et0a6n9eWGNbEIBvPPoY0ba6+PfAmxLMiiZ3IKkh6FhRucFMR9ZSk+wzd91+3f0HI09xjqk7WCg0+v/5qdcIS3KYiu/XbRkq/51OOVrK4bmXO8AecKjqsMBsyQJwYoapAcsHaf4G4JEVVx56CqdztUAoeXDF+C5nEwh/yBtDSNDEzUMFbEZzJrx68/LYS/Cc/nourbhEYv8T/VjXrDE8n+l6q4ESNdN0tUe3StYeE3AAb+tmz3RHYAdhQeZ8GRF8lvQS3RrqgJcGRF8lQDw4I7EDNzKMz9toXranhFjwp33HKDIAQO0sawtaLPc5iJiizJsRj94M+BYFS9OJv+ZTjQyKlJm56K/mWVeR21OmrIXz1CEqww76glniYwO4MklKobzR68/Yiiz6NJ1YygOjf4FgpAGm0Q1+e5of6LvSmPiL5+BTUjBRIiJentI6Bb5Olewp78rAwENUszyiSnqopbi+0EBRG6SBKWJbtyi8c6RSt6CW6NdURfJb0D9hGuqIvXlGCQLMAkoCYGZ2IFZdN6nvvUPP/Z8Rukwf16FmswExoQWsE2jyeA2HH08HSJ6pNcmwXLky4Q9UI2DfcCNTp6cR1gCJKEpp4v0UC7l/PTVLoLBy5heh2hW694Bl9uCi/PD2TpR7a2jRrGz9j3cdc9iLMaVvQS3RrqiL5LegfsI11RF8lwFcLRHnfSNdURfJb1ChzPgyIvkt6CW6NdURfH0Ivkt6CW6NdURfJb0Et0a6oi+S3oJbo11RF8lvQS3RrkOZ7f2E0zEGiHB6b8xBohwer/ZE3q3yMQaIcHq/2RN6t8jEGiHB6v9kTerfIxBohwer/ZE3q3yMQaIcHq/2RN6t8jEGiHB6v9kTerfIxBohwer/ZE3q3yMQaIcHq/2RN6t8jEGiHB6v9kTerfIxBohwer/ZE3q3yMQaIcHrC52IL9+Icr6OS7XZ4HCpRsWLdniWUjC9bqmFMKYUwphTCmFMKYUwphTCmFMKYUwphTClx8Mj2lQdCRqgQwWYTRYxD7NGuqIvkt6CW6NdURfJb0Et0a6oi+S3oJbo11QPnM42T1CdjngiY2jXVEXr14SejKlnwZEClhyC1DIi+S3oJbo11RF8lvQS3RqfZxsYFfpI5vC8TKt6JCmQi3T+8OPOKQFBQefumyhDYnjrvNoBQ73Ie66+iI32liscy3QSP9OlZdCZpRImVWWLt7u6jpJ6jPx1/sOanND+zEMqWKx0a6oi+S3oJbo11RFmcUMzU8o61VcJ8MLJvf3fwgOA5WvFv5FrDk29fP/0DzP8p5V7bWv3/k7I4i729sljXb3qotE9b7uGVlHNFCPMIitOJVH0Nq9W6qr8mhHfENamOxi1nSM5nw9UQ7IBwXQgvjDt46iMyNsr+NztYKlf3t7z4t/PcdGuqIvkt6CW6NdUQLvVJTHEGebsL7nrfbbVR9g4rGkLI+cSlhaXTY7PviSO2YMkXNyXqJDUH2mZYCCvNPrFHvyc7BVDslKcxnX/VKLeqoLZ6dMCLofr9SMDhCMBZSmTgsZ7D4IdhmUboQj4yaXQipyN2hMw2hv0PXUoNdURfJb0Et0a6oi+Smzk1raAlBgx/Nw6H4rGzVilWqjz/Sr/vQ4ffw5YgEPb4g0lW5e3ST8NFO6ftk7mfOxRi8cbm/l14zaKZtMq/21EyRSICOZaux8gZfAOr5P5y4nxHhPTStgSvE9gb2fpgVF/jSt6CW6NdUReu35adecHwVrR1FQgBfoGJ/N8NCJcczrsEVPDoyMm7hl7BE65HUiKjpoIZmZAVokGhkpoJN9Q4wKn9ymqNgKbtHbFgyhJsGf9w6zsk2i8EFGinAU5p0sLzvMvkRfJb0Et0a6oi+S2h9qlsCRUYM9w2qj7BwVLcfsFbo11RF8lvQS3RrqiL5LeglujXVEXyW9BLeOXUT2WobugsQ5nbL+sShf40reglujXVEXyW9BLdGuqIvkt6CW6NdURfIDvolbK1nNWLeDWCGs6qxe3nB9xa71Bn/KuD7i13qDP+VcH3FrvUGf8q4PuLXeoM/5VwfcWu9QZ/yrg+4td6gz/lXB9xa71Bn/KuD7i13qDP+VcH3FrvUGf8q4PtrUPPBdNrJrkOZ8GRF8lvQS3RrqiL5LeglujXVEXyW9BLdGuqIvkt6B+wjXVEXyW9BLdGuqIvkt6CW6NdURfJb0Et0a6oi+S3oH7CNdURfJb0Et0a6oi+S3oJbo11RF8lvQS3RrqiL5LegfsI11RF8lvQS3RrqiL5LeglujXVEXyW9BLdGuqIvkt6B+wjXVEXyW9BLdGuqIvkt6CW6NdURfJb0Et0a6oi+S3oH7CNdURfJb0Et0a6oi+S3oJbo11RF8lvQS3RrqiL5LegfsI11RF8lvQS3RrqiL5LeglujXVEXyW9BLdGuqIvkt6B9+3H4lHFanO2XjGZyaKiiksUonWUliRarXBWyCNgtt+VujXVEXyW9BLdGuqIvkt6CW6NdURfJb0EtkzQChWAxF44hi8cQxeObvoDQ1fTwVmjekA+PLxplF07CBKGRF8lvQS3RrqiL5LeglujXVEXyW9BLdGuoUo7p0rcBnoJV484CcsYifuQS3oJbo11RF8lvQS3RrqiL5LeglujXVEXyW0gPW71LXO+IwKf+5jRFJ25cTIyNgdYnaoAz7vZB9E9mV/jSt6CW6NdURfJb0Et0a6oi+S3oJbo11RFnuz6/NN64MHUwzBF/s1W0RvbxS2i3w4h4FKLIpKNM4cCov8aVvQS3RrqiL5LeglujXVEXyW9BLdFeiAdPHaWHq+qOVqlMaQuFt7We7bBLdGuqIvkt6CW6NdURfJb0Et0a6oi+S3oJUu+aUcVb11eh9lFxG5LbDgN8Jvn7mVsnT3bYJbo11RF8lvQS3RrqiL5LeglujXVEXyW9BKl3zSgiGRMa37OI660AkYGD1fbhEysnT3bYJbo11RF8lvQS3RrqiL5LeglujXVEXyW9BKl3zSXznBEF5UERImCCQpKQWW+TFEmCC/xpW9BLdGuqIvkt6CW6NdURfJb0Et0a6ogqQBfyt0WzELvnPdtglujXVEXyW9BLdGuqIvkt6CW6NdURfJb0EqXfN8OBUSDHBO1Ii7PQS3RrqiL5LeglujXVEXyW9BLdGuqIvkt58+Rqjy0ymFkOjV79hRffRj1AJELvnPdtglujXVEXyW9BLdGuqIvkt6CW6NdURfJb0EqXfN5iGjZU/Mhohd857tsEt0a6oi+PAJGFLeLItw9cfl8lvQS3RrqiL5LeglujUgNnoZEXtkt8mKJMEF/jSt6CWxAvu36hDehsgMgEXbhufoaY0gC82Z8GRF8lvQS3RrqiL2RNm6CiKFeYisfkyTPVN3noC3yYokwQX+NK3oJWStChVDLgHcOEBzaApwVn6/XgaEjGOlMw3wcUC+gov/4AqZ0a6oi+S3oJbo11CmLDOC5vma7f73QKHDU/t1P106fIyLjnLKH/KNzaxx5W6NdURew4iZD96yY/RYNIy2FMuPPJ26sHHBYk+r/WE1xAOL6/rzw5ElLQ7b4G1irxRp7r0kPWGs03qDGMaCMZwU40reglujXVEXx8rJpN/iRd3KWoEWFK3Lpkwq6cVhKkUo0zhwKi/xpU+R4LsgZlAqX8jEID4PKF2FLKsOgIijeV5x1yTbwprP9/nByeL47/6G/hyWuFinTuEw39pFW6f287G5/Bb1CTqUeplell/HVEhHIBuaXbbRul5OjXVEXyW9BKl3zRmQ1KN9UmJuTEt8mKJMEF/jSt6CVCE/migoFZjTW90hXTk3nU3urT4R3TTy+I2hFvFkd3vH/rn1JLq9IM8rzA+P49z1f5EqiprPh9G5or1AuOtOm76G0VFF7i2jYubGdaScC2pMoqmLdfIS31mvasKDUAwdhPY/Mrjo11RF8ltIILgkADKaZtemGDiSgYx2C3/1diV2UwRb5MUSYIL/Glbz4C/kkqMzHUiIdBLt0+IGx8tbXPC70msCqWgnCfelPS3vEfGFd/84l1CtXj3ulX+/U5d/i87gIbP1Q3EWhZf2vn8IjD4AhbN5ZZ1z5jdKtmtXw0T6en4xOMYM5S2O4C30be4+ZMsRn89OrOmDYLWNvQShF8lvQS3RrkIgJJW2zZUHTAPYb+J7k2c9t0SoMFoKBL8GOHVB2tDvmfBkRZKeC61IQGfOd+3tcmVxUSttXcIe5bq4L6HlwNoil4u6nv1RFgoe45nV0hh7YyIxG3adByCVwqBZD1TRAIrJwFv9PHWDxfRxUyrH795IA05rqad+/kEh80mjLIZ4sUsz8GW2aT11tOfkaHLD85y/s3/RNDFG+PFdYTIUD4qO0I68TocvEnlbo11RF8lRX5s1h5Z8GQOhAql6r4N8S3RW6NcYDo9TXpAtSXpP1lg0Xu76s7uP7cRTUri6+JK85KZDsUT31KP95xHRy6PcFT+PIbdYK+GjQv4Hjk3/7T72k7mkf7OJMQeQvZgGr4n1Pnp1K9uAB2VcX3kVN08+bGislc01FCNYZUYxHyqyixh99MezNjv8wqroRK3/q5fhpaqFJlfxW4v7iiGRF8lvQS2TP0pNSLzEXexFRdbi13qDOlRr+UX/OQFwPfS6K33Jb0EqAfX+6G3JFGL3GQ8+rqacVvuEG7uem7Sxro1JimV6FBDrGrScExYTT1YWzMniPTSTvh1W9x96PcGmntpaH4LBPyG/b36rBLKQc16yWSrCs70UcWfMqkT+pBHQd+EDyutB3adGQMxjqu7+UqKpsLtho/Y+Ekonrzc6x0w9vLcuJ21DEGo82/xFjrFN4JQ2Z8GRF8lvPm22P/HuoM/5VwfcWu9LR/gThaEuMAqL/GjxMyQNk8kLXv3JTyyVuPYxyotui1H43xo34Jed2vQj4OTLx6XbCPbVxqDK5f74+m1dlm6Ljge3UxI2chUeFkS5/dQquffxjaHmuROEFa2QVr/PO06UlPQPWwyTOB3181DAOtk+K7Vu1FHrzxZmJrFFylwtQFwAduloKpwOKySw/hxnzEioPo21dJIVQyIvkt6CW5qxcdGusukt6CW5pKBTZpVKkyRjvvQibUNWOU6IA1ypzP41FLLrBB3qU/iscjo7g5XilgENbLY06BZXF1COU9LnYvaoAjrb5rgGfHjCir4iTQR/J1nh1Wixib1kIWZoZ/PvEclmU+jn5L9vDICvGRrZ1cnI1HQHlF8lvQS3RrqgJcGRF8lvQS3RqcbJVwpyiLJlcoGWjkWRQbDEHyn1xVseInkOzLmPlgEL+dX9XsKpLVGB/HDpEugimBHLMPGFtFsE9waz2Fpi/u0WXII4LsQg96D+h8+FBJJ3t8NpXwBIj22crj9pieNEaxS2ZPLBuVI/TsvW0MOlPSGYMsuqVo/SC0nIZEXyW9BLdFfpf40reglujXUSBKGISGPlmuVBRaqAUDdHnOjG+j1vy5XqGdE1VOcDvdiD0VeyyV/QdUYXg7pRQPuiaXX/8OP42H5rnrjLixS9iPOzZ3W6dc2OLb/qZyuI3oBzwAU3CWUirYlRCUfhtoIraY+3R6Srino8VQf/hdNed0DwITafnp9cj0dGCnHyL0Et0a6oi+PoRfJb0Et0a6oi1OlfFXCBFPamgFkl5YRdZJ0yh4JW6pbqOpf530XWJfPjgicG2Pj+IrNmdiET9I5HWm+GW9iHF9Y5HCcIwJKF11KJCLQuOUmEQH2iRe/W2EQssIZp1ij/PaxTsexRy6c+CPupjWPjGsH+ryGoe/eKzYTX6yCVviky1fEodm7iB33EWAvChwJz/VVF8lvQS3RrqFmNK3oJbo11RAgQv8k6foCsBnfB+bGEgt7UI21PVbDz+O3skDzwMZAOl+FdkaRD5bzKe1oj+jC/gvHLPWTqTN3aElKL7MCInXvERLJU4zjiSYJhdyi2LgeiLQg1IL/wGYwl3FnCJnAKveMlX73aczgNuBa7FXp6RO26khwRlxggDI/nRJCOub/oRvdJoGbN6vHmpW6NdUReyeIvkt6CW6NdQf9xTrMM378U6U/x6BBnIztNZ3Uy7PnVdtFne7awxyA7Sl06wZu80S8uPFTvgji7bmgm5PkE3pnuwMDSQGUg3EBR2iXUutDNL+ld9S2MODjhHqgsVtrW7zqONqpk2IsJwh83qaTDPOmbvgvNU+Kw9ivWk7UF+qTodLrSrTlVbzrrjv83tFgR3KkW9p6yT4nPCwXbmV+sVJkpODk96vam7LLxpW9BLdFfpf40reglujUVmEcIgosJosKSvRO7qPtf2bx73oIpjMaxzWw99hxZo5eOuNjjYkAofmNBdy/EgZ4N6+1FPaBdGNWk/lHiJmAQCm/pjImB0R6zqFtmJkpcHoxXtQBm4eVwUkXF7YXXdBZIhktAm6xTtWiHeVzt7bsG5vonDmDzziqQ1+bq2pdSvNGj0bIe5XqICp+IwTngb7IbL++cZYemU8q5nwZEXyVHL5LeglujXVA+M/L5v8b0q438lL+TGXRiU4LnzI9a8WQy9yvm1guVfY+rgjCY+5bExXtWXWfY1hSdJsj/atevo1HkFv7PZa4cdkLhkRpi9QmfoG+b/BHalqOx4FIO7eKxO31aP3bOfg4dk2ssBnhl14XdkQotdaiKgsFFFjFS1NlEhlHs6fu2tp4q3WiGADUbqTT0q4AOclyfsG+ilJfnn9iC1mVz4MiL5LaT8lvQS3RrqiD5850XlXopa2VDuXMWFsjJsN/LVwdn7fTL5GJh2/L+Y5VUzksNdNImbgcXj4zLrvkir8GW2PQIpEsZCqxW1SEyCRsm2WxUpDZK4961dGUw++AKJtCkCsVvshfDxEGUrRXxWkokvOcxo7P1VRBwFQlY+8HBQrwKEauAEpQMMNzuXTWHMZexcisjm2EFneZh//iHa9XWTI/TN3s1fOlgTBPEpKxMAdD4J+wNdURfJUcvkt6CW6NdUQTfnL3g53WtHh15yiDWHbWkgYDUurJxFooI0/TSeBaXIRuM5HTwGnzewYEsS3PoVY86oBVtr39Us9j1WTLHXwppjhMUsgjCDyX5bvnr7zxr5ujqEyDPzzeKIf622m7BX1lIYFkV+ayJcI9TuKSvLhDtp/3c70VDzF35v2T7I/IBForNUmrdrnC7tbCfNh274HtEa+S5NxGkXt9vG9K8C5UZt1KMQc4KE5ET+Phu9Y6NdUReyeIvkt6CW6NT1QNbesL1o4/D+v1z4VbxYIlpVDaq0hQNVfWIJklma35Xu9MhMzuPJcKAX9fvxgwgu7zufKgafGpo/8Ga48MKh7LYCPrlYIYv/uTF6l8EaHrDwFN3gX6U222q5V2Veh68zMeb5UOxMmJLRsrdC40Ew3qbrzKOq0CtZy76b3TDqDWW0whBSsrFzZw8qSjrHRrqiL2TxF8lvQS3RaOS52hlTlqA+6XCtcBzU1umJ15xzcKdtcGv6Hv5ka/wx4Z9WKznSl0mGJm9rOpOks9iwR1Pa/WNFGBOXGEWL70+B2+8X02f1hr8uyPlFVP/Kanx3/1wgubV2Tv8ohxbNDb9q6t0R7SHc6S018WB2588JLyrfvDCW7/17TPXc9TGpr6RkpWc+E9A4Q97eiY60721TA33YLt00QVYWJcEF/QS3RrqFmNK3oJbo11hKOJFjW3FW/dxmlLp3nZ4f8Coz0S6GEPtS1Icl7SVVV5S/u+ioF9zvHdFcZp0Nm1wRlMWNkf911M+1GT2h1mIiQwPA2KpHbvrPntkl/0dYVSJgCJK+//zeXhu3cm/Wu0uhI5SqTOLjqjnXw7t6kCxjvGoTXYLxZZi/+cGwMHWP9ZWX1OYsN21xRIx+itHbfvhqUMiL4+hF8lvQS3RrqiL2AlKgNYphOOZQd2UAK2JT/EwywD+Dol0IappV3DfxsBRGjOSaABi8JPJiyxNWmyFfpGQ4rN8+IQFfzcTwCc2oPya7iCB1xa9oFijy2rK1B7yFFl+troscwWnFtUTocCic0iukVB2ISa0k5SHSIShAlHhBrqiL5LegfsI11RF8lvQS3RqK+MMgNsgGDoHIioXkXSmeJXBfTN6hQV5OdJ6bY0x3YGushz3f0G6MalqVGTWZIgXzvftox31XReJR5KhaDx1UNmN3BSi6dMMO4zFQu3VWJhPrEPNKAvehWtLqBHBEjv3oT8Xgy41yh5aqtWdFy1VgGhoaXGwg+djo11RF8ltJ+S3oJbo11E6UoZI24f7rKF86yWaeVCwv1rYP0DuOdWHioAJpVTvnqnX0+IShn1vBFsO9wXDSgYr2VPJzRZgOv7//+LIeus1Ggx1caSqneEIf9PAFJzGILlar75PYo0P6/FH3Wx7BkkK27E1xdCxCSn6x2h1dwT12LM43Fbo11RF8fQi+S3oJbm/BWdpRs52gDjd7iJ6v5sr/s5I1YQPYZ94PnzaxyqM4v/MljH+2IsM0taoK5EaUDJ8KTLZYGIjRuVQ5D+2syzilnw8cbBS48hpEq3r0VL2n672IT4ZwwTPxwnUTlzzRxBQgaTrAnbna0mbzZVA84JoMGgYd5AjrROPBQR6AOKWkCi7OUvP/S5dkfPaO/xpW9BLdFfpf40reglR0KWPr/iA7pGNUlifc5vD+m5n+Uy+ecEyrig6RSAtqIc7tGO1OghuU9ro967xp3WWzl8XpDnygKBeW+VuyON3fLWzaH4qzEsOAcBhReVdRS64gztUrowB369saLj9xBjP8Qiz4MiL5LefQxo11RF8lOKit7xNTIQMMstodYdNikrpIn2E6DzEWzTQD9j95fXiRLGF5Q7mAacd+mRekHDrSUk89DBsRXdxP2u4TL59nfqZpIyThL+cacsLZATuY1S+9KyxxCxwhvTxhEKQoyUOcHkSwuCiK3RrqiL5LefQxo11RF8lVeMA5HI1WJAYh1lyeTygjEuPtmEvjC/3zBew4nV5VZH+gu4s9NrsWrH4RjSsdyea/Hrfgxi/V34A/Psrd0TiE7f0wIlkqKOmspcj9EDWjS+i2XzEajgLmUbFKy3m89DmxRtAsJRXM+DIi+S3oJU1NdURfJbyAONQAas5pXB5bgxa5MEuJS97F0jblwVtd//qPmpNmJW9ZXa8KBCVrS+NWsguXzUzY5dE+YNWY3WwQLtTizNDwU8I3ZBSusUTA7BQSNg+CHjdIadRPf/g+kXnGMAvkk1gGNHRpvoSO7z0Et0a6oi+PoRfJb0EtzNlt5ScU/opQS/RpS9OBuMbY/sNr13PTHR8Zxp//wQFuTHh6E2ycdO/3ZSp7XyEacaYzkKyTHJ9Rau1GRQBjYJXCJJC22IjuyCdsvKb6k4k91o4RmBcTR3NUQ7TCkg2BFFrkNQcJJj90RhZ85Zj79doThrSMr/nKAD+LgYq4Qx+xceMBzRj9nP1cdGuqIvktpPyW9BLdGojnBNNqHo8S0qvnE7FeOZTeV7RJLfkoAt8Mh4Bw+aH9kyGNE61/1cYQ8Cb9wPiN0hNiTiPB32fzZNpPApbZZib8HqFT0DLHZ2+IGbEMwrs5/dRjN7f6diAlGj1+tmZttgmrLHfsJJTkjToklokzJosZf5ty7EBzZi74EejcncTO9vEsKs/BxtmUbijYxHNf4MiL5LeglTU11RF8lvPjA78Z9p2s28j7kIAjtmj+IaofpJGTlSJOjFtdpCb0lSs6lHiLQ7OiXXYV+M+mdxPzhh+/4RZD6BXf8efxO52mXBJ41EVoxsJVHisQTkfyLLLcw0hUSiD1r9fVjD0+9bAGADJe5QRueTYEL+CffD9p+/NHqxSeErWAB5W8or/fgKbDGY5VJEfowlG3nIi8qqhwHNmUyIvkt6CWyhKi/xpW9BLc0c3K1rEEEbeUM/1x+7QOiGA/YEmvi73t/wMc/o/2g1BOb6pXNdh8fh7IOuYTGpkdVw3L5zb79668fjk0pZj+chucLSiYvQrA12bsGmVFB189MGJRLsZ6QrUFLlOkx26/jIoYLs4zRZrccrUcWw6tmfBkRfJbxtaNGuqIvktroHh/ttVtBN/7gAmQK8R7O9kM4iiih/dk7kEfx0iaWqhMJwg7JWAQFgSvR5GN0JTtHeLY4Pc3Go9rtxAgdVSnFTZj+wtrOMnMYnQZ1lkOjuGsVXkLsHE0VTJoNl+kGrzSf6+HG5mJJnR3kEK2M4UyIvkt6CWyhKi/xpW9BKi1g+g/zSx27jb+eQ2vzfdFb7gJPwB1M08lKnjOeE2Q3e8LEUoqgBJddmOTBkj15o5z4RBIS/dSjnqbhQocoZsOLb361Qmcrfe3GARdXPv51TQRl6p6KdmJXgs8Bp541y4T9/OoDWit8GhkNbW3sG9mtoR4J4/LWVPLDMTrzc+RwacBvCH9T8MEyQ+Mz7yy60XyW9BLdFfpf40regfOl+Ruv/hiPH2abO6ThwtTRD3PvDDrCMFh2hxUD+iYasNpsf2N7FdfelSZlQVFoRjIdGxSNGmn9Xip3VR08P/5gCKu+99T0wxkn1mBEMup9r8kYC9efhSR+npZB8QeSDK9PglyMe3VTPXeRZkHbF+z/eCthlLhTQhN4EiS+jEG7UPAAfId1Sr9bIi6UX+NK3oJbKEqL/GlbxcmK0YUHwgYuF+0sA+N27F1L0rf0T8AhUb7Wn73mrHTtX9XI+2Pzfh6crbff9yipMAjwoktAeVZVREVpwGuQksdayU3ed9dSw/CiNUSWSJdNagaLekTOfmY/q9ukuftxs3tMF5Q3v1gYfH+nZ+MPdGLwQEDMFU43Z+Zm60k3TnHQZ7L65potW1sOzAX9TA6kCov8aVvQSpqa6oi+S2cDorfCB70+eFczVWJasCCr9ZifjqetX8jsly9yoUf4jiIzkKkWSsPstYMNi+1VX+VVRKYCYFRnrMLKw1A5wrD0wQOasR8S+BRv6rWc5v95t8aP/SOsx8vNQZQLqQJyg2vY+60/u5Pydt79vyBNrVH3S97kZXY0N4c//k40L6D0IChzh99qDkfU2vncXeNoWGMG/LeiDCQ9iz5GRYm5z4MiL5LefQxo11RF8gVr4w4/0Zecw9yvWLRBKAWWgWoJfvB6FMDJFFCuqXIqeb2lfl0v2QnwDEl7lfeug57iRHYtD72hR2lWX2VwZY2ezdIgt2rBpznT40e/WkrSEa7tZv+kbDPDC53un2XYcakzxhaJjnRXsKMOUwaCO1cdHFAWuEtfZkOv+ANRs/eAklyub/ew283bo20dwTab79g956CW6NdUBLgyIvktsqNBGq9ShnMxFJC6BnP1T/kN1inO+tFIg8sgKkhTGQq4HqFIFgb2t0isaWAvjUJzrgrSBm/DWKLREM08Ubx2vxOSGHQ6J/l7qBoqyQIvZl1BIiN9n93r9dl7sFpuwNeY26BZJUXAfQipKEyyNxcdC/U4nQ6CdxH9xy34nw+ypz49ugASvvOqnXWhJhOH7O3NNVFfd5+DjjjRbdePEsuYB4Lpm+HAqL/Gj0Ivkt6B6BwPn+NCL7bc5CBFgw5U3D+Orj5q9q7oKukusWcKNvostl3mUZFk+sCNmVAlhECAEYUs1q73k2pjcavGSs9H7uf0s2JUqxnG32cZOF7vPscR9laDdidznxfjBqkpxCWX6GXDKdS97NAdNhsuI+/ewDnVNE2v4xxCRXQiuOEVQHW9AswOME/BiBEb5uWp/wh8pOVFRv6gZoAeT+AbITrf8aVvQS2UJUX+NKnv68rZZ/ajBKCsBJKzcbZhl2JtZXDkj87WxJO2jztqdGJo2YAv/XLxeb6aWKYYn7W/u8XJh41/oaFUbuyH39xgsa/sbiMNBFZ0wAii/+WymLacK3njPc4QzOlN3SJgMF5Ybs1POltsA1aSa+zm7Hn9ncV+YMJ9IHcb1TpNMmZRSTjorErJPJq4lN3wpV44ylSQV686fzw4clN6zr1MttyV+0P+QyYPyG6vCZZLptfWgpSTIbE9WmtlxDRF/Ii+S3oJU1NdURfJUSoA7uPMxXAxC4yH/9DuBGq4D4DugVDR0IqKRFE3IoOuM+lu/INvid1VQ/GzwevEfVyTemInGKzp8vI0J0+GvJRq9MFF4zBM3f4hu483+yNnQ3xlEwZAqG5dS6LZODQ+Z/adD/8ijzFdbhPNYf4kBc6i5TwvhFqc5W+tcqVIXqLGR7MB0ljn8vzrBL5IeP+N2EyTxCb8Ja4cSX/fTuiU1wYibpqPKRXP1jURDWUat3gaGd33SY85oH23VgiXnDz4L/Glb0EtzVi46NdUQQioM5AFguDIG9H9NFMVUhfMFFxpX6+GiNzJweiFd9JEtMvzDBihHMpqprmF1+u0F1RSjZPkOteHMYw0Jne6yrZLVtmF8UjQDS/EG9+bOYbrUwVD/7tYbwl3qLRisgvLL4VDlvqeEbHgJH5R9VLz7dcv5vMNJCAOQ5EzXcPTmUa3c3VRzW3bgx9a/GK8bmCXEcsukVy3rTTIzXAo5kYEIoTf+ry3xHJiELJnpVxAdrGKc5A86GjXVEXyW0n5LeglujXnkwMXtjzTt8ZwvsJQYUAziR/cYK9os+byRV/MqboMtklxgE8IdZeFcAocvX/f2NeUJ6jJ1sSPsWGECts6cdzr6F+/dYmc9emcyyL6Zij55K8t8hb0imBgJ7cpSTn57lX1/xOZ6F9y/CmHAdters0JZf4FfRBtenC0YA52lDIi+S3n0MaNdURfJb0TrGAKGw+taT4xaNgsbT9YSXc0Qx3WRl4KIFiuJZa3jHgvQLRv5DtsPUuC9+X2s0bqbtCDHyHIIOU44vpqjqj076uI/y37Pcqupf2xmxihT5CAUb9rad9mAcig//wFaSlwIw5JL4WE2sQrbaL5LegluasXHRrqiL5LeglujXWXakvkt6CWxWx96vGIuf4mdh/j71WC6CPWEbVr+FaKc22WvfcZAYi7TIFEVQYw4jWCgnAU/kRfJb0D9hGuqIvkt6CW6NdURfJb0Et0a6n97WhcWwx58FUSytagTeDb6hlv9lFTqhsBbJ8MZeoBzyvEbNbk/aY6Ryq5dSt0a6ogsRkRfJb0Et0a6oi+S3oJbo11RF8majAHO1icXyW9BLdGpFZnwZEXyW9BLdGuqIvkt6CW6NdURfJb0Et0a6oi+S3n0MaNdURfJb0Et0a6oi+S3oJbo11RF8lvQS3RrqiL5LefQxo11RF8lvQS3RrqiL5LeglujXVEXyW9BLdGuqIvkt59DGjXVEXyW9BLdGuqIvkt6CW6NdURfJb0Et0a6oi+S3n0MaNdURfJb0Et0a6oi+S3oJbo11RF8lvQS3RrqiL5LefQxo11RF8lvQS3RrqiL5LeglujXVEXyW9BLdGuqIvkt59DGjXVEXyW9BLdGuqIvkt6CW6NdURfJb0Et0a6oi+S3n0MaNdURfJb0Et0a6oi+S3oJbo11RF8lvQS3RrqiL5LefQxo11RF8lvQS3RrqiL5LeglujXVEXyW9BLdGuqIvkt59DGjXVEXyW9BLdGuqIvkt6CW6NdURfJb0Et0a6oi+S3n0MaNdURfJb0Et0a6oi+S3oJbo11RF8lvQS3RrqiL5LefQxo11RF8lvQS3RrqiL5LeglujXVEXyW9BLdGuqIvkt59DGjXVEXyW9BLdGuqIvkt6CW6NdURfJb0Et0a6oi+S3n0MaNdURfJb0Et0a6oi+S3oJbo11RF8lvQS3RrqiL5LefQxo11RF8lvQS3RrqiL5LeglujXVEXyW9BLdGuqIvkt59DGjXVEXyW9BLdGuqIvkt6CW6NdURfJb0Et0a6oi+S3n0MaNdURfJb0Et0a6oi+S3oJbo11RF8lvQS3RrqiL5LefQxo11RF8lvQS3RrqiL5LeglujXVEXyW9BLdGuqIvkt59DGjXVEXyW9BLdGuqIvkt6CW6NdURfJb0Et0a6oi+S3n0MaNdURfJb0Et0a6oi+S3oJbo11RF8lvQS3RrqiL5LefQxo11RF8lvQS3RrqiL5LeglujXVEXyW9BLdGuqIvkt59DGjXVEXyW9BLdGuqIvkt6CW6NdURfJb0Et0a6oi+S3n0MaNdURfJb0Et0a6oi+S3oJbo11RF8lvQS3RrqiL5LefQxo11RF8lvQS3RrqiL5LeglujXVEXyW9BLdGuqIvkt59DGjXVEXyW9BLdGuqIvkt6CW6NdURfJb0Et0a6oi+S3n0MaNdURfJb0Et0a6oi+S3oJbo11RF8lvQS3RrqiL5LefQxo11RF8lvQS3RrqiL5LeglujXVEXyW9BLdGuqIvkt59DGjXVEXyW9BLdGuqIvkt6CW6NdURfJb0Et0a6oi+S3n0MaNdURfJb0Et0a6oi+S3oJbo11RF8lvQS3RrqiL5LefQxo11RF8lvQS3RrqiL5LeglujXVEXyW9BLdGuqIvkt59DGjXVEXyW9BLdGuqIvkt6CW6NdURfJb0Et0a6oi+S3n0MaNdURfJb0Et0a6oi+S3oJbo11RF8lvQS3RrqiL5LefQxo11RF8lvQS3RrqiL5LeglujXVEXyW9BLdGuqIvkt59DGjXVEXyW9BLdGuqIvkt6CW6NdURfJb0Et0a6oi+S3n0MaNdURfJb0Et0a6oi+S3oJbo11RF8lvQS3RrqiL5LefQxo11RF8lvQS3RrqiL5LeglujXVEXyW9BLdGuqIvkt59DGjXVEXyW9BLdGuqIvkt6CW6NdURfJb0Et0a6oi+S3n0MaNdURfJb0Et0a6oi+S3oJbo11RF8lvQS3RrqiL5LefQxo11RF8lvQS3RrqiL5LeglujXVEXyW9BLdGuqIvkt59DGjXVEXyW9BLdGuqIvkt6CW6NdURfJb0Et0a6oi+S3n0MaNdURfJb0Et0a6oi+S3oJbo11RF8lvQS3RrqiL5LefQxo11RF8lvQS3RrqiL5LeglujXVEXyW9BLdGuqIvkt59DGjXVEXyW9BLdGuqIvkt6CW6NdURfJb0Et0a6oi+S3n0MaNdURfJb0Et0a6oi+S3oJbo11RF8lvQS3RrqiL5LefQxo11RF8lvQS3RrqiL5LeglujXVEXyW9BLdGuqIvkt59DGjXVEXyW9BLdGuqIvkt6CW6NdURfJb0Et0a6oi+S3nwAA/v83Ov8GAAAAAAAAJZcgUbtVbWeVw2z2OUkSjuyt91eUVWMXK3zIuB4ncoDEtjic96liX24tda/NXAlw4JAJok7RlMTXhxCUEktsHsluTOHSr/g+1iQK5WNxQHHVJDc63xlNM0uWIi/VUCxezSvctsbQEaxPN3pET5o8hxj5y1BO93GWjkHqYI3lWcbNS8H8OWFLWrOxph8Zp9/E+XGbG1FzED03eiX68V8YtRTfqgiwxc72Ug/BVWVdMDa6RBB4/wHDKyxtQZ0h3NfXzk+6XPq6J/IjMr4yiDr6CEpuJYWeZQI/xAEi+3/v8A8jHJRvmp6JeZLjT+P7ng2oS/BRBp7wjPqbYa0D3+VHvI//TnZVOmjATAsktLE/d14vlF3/wmgy4lrFaqC8uCWIN114KG7ru87OHYscfZo+XcARDeRHXktAsYUls0nVoERt4RY7eDT98UwRJmepsi/qaanMlVKkivvMvBhTlRp6vrkpxsXjMp2eg5vdaZ6orwvwRDQBoD+RLjmGB1e07DHcdqSb2g2Sj8LLddBA6Hn6+G0ZL3W8ZxdMWjgLawUvSCvcZ3yK4DnbFGJRY4w7NSpU4cnzp6QSSFAgj/4ihjWollFWxklE73xemzAWexLmgplSjopqwSdtL6Gwl/SBFPLBcuZuy2N1rUBftRWV38uBedvjds/AqieHCWPtsxPARJKA1eH7BmVkoCRl1QuYKVt6AEKEdTVitIkL7BNvnJvnpmqlDV7C1MTuXxbCeyLEJ0FL/03PXiRQOYg4CemYNWwTf+SQWRaInQk4mkPvSI2ograc2zjrGhMFuj/nB4vUpanh+JYy53xph6/vASmXQs1YWNBwGdeI/7fybrfz5eBiiOkqOg0E6Jl6xC7Rlgtma9/FPwolx4f8t0m7qVhQ318GjEDarLx/+3VrHiYbWMP/RjYFlprGSlXLiS/U2oR+ZBjJzTciT/AmKiP29KCFU89cLozB7EMcRQC6dujO9WmNk8x+kzEc1MQYXTT/y5iqgoaToifJAjfSn0M/cAFqIPlSrQFJJ/vmVLbQueajQTZtXkzF0t1KQCwchMvzW5wEh3rod3Ic0iUjtHSng7H1y4OyS+8LwV4RyXPgM4OeEOS34Jh8UGCNvXOUgrf5BiOo6T/iVKAjRUO4QcKp0H8N/o8GT4cTGODaehHilDAeVul48HkN+BkQrM40J5oix8KoK6HRRDaeLWzY0YSqM3+gF/CYkP64BGzueSH9uaNIvz4E3sJ6I9wQ6VlOJd6DafwCYFzPYtoefV7pFlvRjCNCq/2WuB0DhmeEZRIXHytsz6EiFYLUK2KtOuWWnGErMF3bPOA7AUu6gc+VoSRqUA93lKnUQwTaui6yrvuTjT1AJYU9jaE9WqWzq6rjgV0jRtFYRoLCQba7QE4moRyk/KOCINgDSkF7ZhczNN97xBl02j21N6dWVCn1SF9H6pz5nLhVzrJ+R/WbTaVX44KFdq81z7pLeJSe+JXBPin/S59n6I72TPgdy2X9YmdBE2pmcbE5vsP77T+jBSBPv0zh2bDlICxiobJznwBG8Ni2L9HPSqDq5L5oxpuDaupen+UOMY/Bg4nIwsnhsEoy1byhMuh+zXKfX+yZWFJLxmOAJ2O0LkHGa5CzqJwwC3rovUs1H6DCR9u7EyUuNHuFkgFnHDJrldgxJiKPZwS/7T71DAzYfZlNuXOH0/nanPP7mvbvKiuTP9HR94xrvfP3yJDvTzsKsnsQJIb6bb06c5aieeGAUxNLSUvFYZ15cUbSyFXOAS4U1/mOrayD6mGrBLqNnRE1ukqFKmrnzZ2Y2hkWa3yl0AEQO7orhRIArBCI7/QGzrWYHYN/GPHVJF/OTVCGHSWbNAPIsYYO8HNW5+TGMAKSku5OkKcWCTg/NwwSX00kuQ7c+QqFmPs/O3+nVH8d4WvtjSz/m5uPZgpnKCdSAtzJX1oju2P6b4yld3x2T8amVY3pDeuIKmNLie3JiNqeYM1qbMNtg/sKb/EGzJIOiHA2NE/pMCmzUqPtwRzfoxz5bS9MIT0KkqHWuPUm1dUjfvKWT2NjeyXWn6kMMP2quWqsBr4TlFHcRuF9QCbNuHSchNF2pbKC93fCGngQplBgPWQp+FE3SNGSj/PSQsByOJW71Hg9BP3shifqD5uDj+6Wi2dUDFLsk2dLSQjcWhksiyX4rYUCarchmpiP8SJjtG8Lh5YDXFDlNwfT60lzV5Cro3WndPi6zmUhLte/YpfLGSOkFdnVTGFF+epFnu3cg08tA9BxhGeOw1h3zPILjeHjgqr9DncYBzMsbBW4pXc2tSKtpjcFrhvmuQ3M5xsfnlQ0Gtkmvx0zr9zRGh14RW1cGV/E4/z9HH2reVOGlg40Pm4Yky6k+xxs0YpPyfGJtN0YABWZ6x+RLmeAjXKhnPyZsuywhBmqV43WfH7Ho+PdzqfNeQhCLTAfS4hqEOp/AP/mbIWF/rWQhmOa6yCoh1UUGWQNTOCtMrbLBtYun+aoVWt6HmqX8EmqxRMLYoPfrMZBCW9CkJmVZEOjslWLJ7iJ7xnmpHFeZvUemjRp7agehcLw5BHhWhetvQ7B3CnYPdrnvtDcCl9ZdYt7erV43VipQq2BSqRVYTh0X7sYztB5UxIsvpJ0PwoYdv3kYOorFob9xG+Kug/JX5DbIrE659dPrP/66zld0fioVcDZu/iDOg3zFs+XsY2PSv3EosfJ1Kbd+sn2tPKq5sqh/sD6RbiqkdeOpD1lTP3m3oJJaFZEQwqcT8QDib0FPrJwNn3LhB6cIAG5S/acritWES3UvfTpmSzFx7uyNKRzwE4kvzfPhnDY8k+KMT6FyMdEB7/Q8xU1K4y7H1dkHAXtRZPFXXOFgLcPvInH7nsycQTYZGjJFwHtr0CNXoSqbCoQy9nVSrCMd45OBOrQlQFW7lrOYaIRw/+h/RaAWBJb3QkzcWksVgieYTzXT+ipGyoM7jq4Afz5Ea63ivTgIoyR9Y5Uq2V10l+PAsLgipLrjJ18njJ56k9BA8fZyDIFa2y/yr4rOqm9N4wfWLh2MVIXJlegf7AA0Fb+gT5bYFixDw8/32+3qxG2vSzzbEgoQCjoTJwCx0gq1ZchGjKVLEpZO6YmadDfiK03gjV5AWhwPdbb/vI7RDm46MALgez40LeXxDfaWUkyicV2gKHr+qQEdUsu9/IOdBMvX/y1BD1eSKoj6szOeBidbmT4Gb6E6u40EOfi7pae0q4lgKnfrIw6o06Dymx8SlSh9feGThqMjWtGyDkn+vef/5B7camADUjEnxosuN3zg3JdONNSXnmVUvzU5MTh7KfnBuSA/Igk+gYmNC2vcO/AS7h/8fMErXqEHN9ZLQ1BlKkfDz5BEnQbNrrgvjHAhD+M7EWTRrZvsrG9CWZrVUFmpq+uG8jboTReWA4hUznxzW6cRo+ReMbm22wozdU+Oob5fpGcJFab+CDA1cAz6IXmMZGhdKfuKKUPaIjYzS/5BIyO7xDXwudkSHGbgcjBED+Q/y5YtQTv0WNeaynopH4+U7o5iNfL+PtIfTV3hsY8MNERjrtufbdqt9xf1JUTIaGE3ckOhYZDiHA8VOsMrn7S3rpsft+HPu2QMpfsGCLg92mgT9AIOtSgknr1aI1UpFUwEyo+X9HlwJGFSbQPkWGQFGUnIgK4YdPiEO9Ps2FXXU2w+aqS2Xs3NKHaEJhB0iWHdGGrO42orxacyavb7m5PweMQCFh7JK3FlG9jjM4Q0M9wy3+iKQvihiSpMdd+PTwzbm7qn+ebwt9lJSHjeSppnxmC98dWguoCgVT7tkbOLzMqW+qiD/Bx52nM9vn4MoMvDrCcQ9rk9yLe37YXW9BbAAdKu2FWDmvlP+UcqFMkuHxW/ncACrk/aZXX305iilrN//glj/mKklR5/i+O3oeNThmPZ4aGvRfs/G7qLfW8ci+EHYEoYWiaaHmlI5sowBaTgveyFCOcGsN9qAVSfV4E749ywBgz5KkJiFuRSmJuB6Eh23uyKIkPnavA5JPDDY+TG70KxyOQWj/b07VAeBKFzpHaoUfBWzenMXEWZDIEjGIvXyHQAdk3s8nNd+vuEfF+vAXZtOsBSyCyo5c1HKvoyx+ox5C6gV/1kBAclkYZA8g2O5iqC8ejSHGKNoi2SYI97XNeFhhiwrutEaqd7EC9PcBVJVkiaEokMITtaG8lOwJt9KVcYVvGRvkzbT5Yhdc6VZH9uuOR4k3i68wlim0PmsdacBlB16376Hk9ObPmbf/QpXA8ly/wn8cVmpjTVrwPtBmxx1YKV3988XjHuPUHM5ejrEaAZGWAGlTeebySoVqFGMI93uwvt1p4nBrNr6VWzD/yfpp0Pb6dTxPIhg3stUeA8+25kaSjp8ZkacBdbaw7n7W8Q3iaintj9ekgxGNuIPSqBUXoD5aTl+zijq8VA8sv/WyRr7Qu/jm6IxKZk+EmSynC4UdgzA4i+y0+2vVm0EnBEZPFuPXTG7i1VCQUQS3JfVrR6jdWWPG6mMsrI7byfWUCw4s0cp769d1H2R8xCchX9LUvybui4k9i3UycdRgFZ7CpkcMoihRPEIdG14yknisnbnBMjDR3jIsiw1UpU1mvXSBcL3nWCS4cR6Ttl12jWnb+W4zHSmWwunpOWawZSn8D6F2j9qWfVM353L1qkPjI59x+kSvUTHpi/wFqwdYU5I7JG7/918A2mLPd3oQxDQt+F/CGmRNh69mJbEXyinUZV3aZ2+OasM5QoGTff+5rYqCgrMykHq55BijNmCDaRJLzNebcH6JXcumCeL6OZGv+l3PKD0e7EjGhO5iFLJpbirHlSdDdpGB/+b98UwQbwp0hi4rYYj97yv4vg3nBPXT+p+VuI17MchVnl7j4GnsdSW40l0pgK8bVOkXhLk2nKpc9OgB/YvQkkTSyh0C9iGCDb8fYC66lmG2NqdIUUIggqGa0fDy1xWddGVU8FkJ2/8A17nRf95540z76ZBA79LKX9CflVp2HpKo9l9Fra3dJLGI3svNmlp2mmbsANbFBBKlKQpdkFksAX8DMwGX8lwUTEBsd4lpdp1TKU+i5+LdNaKsB5yNXXfecdLCm9JDenggeHd+GO6VMMaA5H92OAA+ZYBiLmAhg7axRzG50HPSeX3xmgbbw3f+QBtYW/g2YSNOO5Dsax3BXfeWl5IbSrijkiPPT+zs9kiW3g+mSxMTAGh0i+smjm35S2pBcXiG4KoA/r9iFYmHK/eQX+b+AAAAAAAAAAAAAAAAAAAAUc9ZevLzp+TlyI2CP/wgndGIW/FyJIg7jEDPBEdU7YbvckSvdolQiRFxKnQmcPzVQUNyrBtPWy4lcXP9mdgJDVaEFdfoBg23P3CD6f7cMgpP9/AxPzegcoverD7OtmH7PDUjA5KJ2PPYiRZ2RZr4yOouRj1aZgErhXsAsRz2TrS/0syP4EIGFnS2Kv0Yd9poQHow1PmhlVCJyFg5hUNayzIXMXE85m8tXWrLFyH9ZG/FqTP0VoEbcy/W9INdAVdnNRzepbrN5cDrvbpPXhW6HzKdI7pI6yzjmhdjOrpv62HMOaZpuPQKZAe82KCfMwJKmVIccg6iNJWOpm+pX7GU1rOXYlaPyin0z8NvFazRgAAJ+P7O3nByAYji2+fNv8jg8WhgzEsPBWgx4NtLNoMgwQEnWx7d+fKEbXW+JIwvvyYN6uuzBkQeMqqlt5pIAGnYMrEWKXeTsOPqSR2xINXNsUvLMTnzyQbJpPhHKu/cK+c0HiUrH84qVlUk5QFT8o40Y7ojrYvjN5v2Ie/v569uY0mygqKXxfewkWtbXBL6UWFJeQtVQ5/ocVXtrrgH1noFzaTxg54Nhs9ElTVPNxyFBhZ4SN5e0yOplDNbK3gGRf5q4dwa60vdULX/zJELZFMolCdVRnvxZAMu+c7nqCtQwAD0V1xt5/fUgjVDQLuNu+d8yqE8Gvwwl6ihQMdXmvPbnhqMY1Cy9J5YScqiorZrwHI9uhgbh66DJBzvULeYLRB1rfRI5/MWS+oAGoeR9IRt2xL/ib8X5zzcHL4kOBHzYKqU7LYmDJFsu7S7a0MNnfqfBpLfa58zpXHv/7zp+PWxKc30qLDudypAg9m0GMl/j1AILzSOj77KPYsKB3y7kA1YLMPEmAADcYzaQLAWZSq1WPA9bvg4LuN4TeGB2SRTj90BT9erXYPGnqPWYCuacEAMzHFzxJQFEQWMpO5bKi0962IDaLZlFAN3csoOM7VXK8MJDbSL7CwRwDmFfC/b/5/fCCMNAofU6Yi2uMWWUeXn2XIGHJFlhByCRltsIH8qgKTk2cyI/N90eWA/82zLQi+AcERuuX3TXIIo0yuBxy/qvqBR78xQKNGEINuTZ5zDQrRn8NNwd9UXMF+Ntj7fIXkgXQ35yemP28mGHJ1eNvd5t7Sw2auMEpJEHcVAD7xqcmqgPAL6aLZ9U3/1U3EQAgOtAJDEVBf05+P/ud7YxsemNvrq0ukIpX8s8L/sf6bk+CSZIKWoRWgnln32lJZf4SxsqOH6lv6imRKe/N/GW3ur1oEl0dlZ1Hf0LwG407G8/dZPLGPDXvdYNsyJNQvEyW3CwnmlBGFUv2woi6uLDm+JeDdERsir+c18joiwbUSHYbZjWKJDXs9pmrmjjcZf/Le6E4tKXSRqhOJFLO45CcgVyxsjplltjmdaLsIdEUOIlsQXQVh+GIQ0jNTI7M7Is1PsXlrNz+YL3FNh7qbg4HhprIn/ruQwTVwNLyvXHJ/Ww1wWLoS0i+vbvCYFr2BR7LKKrtTx8dKdP3daVpLI9meiFv4/dTvoXdUOERcNZ7mDXw6Ar75WrR9c6iSSu/kVIA3w2BBEeiMqd5CBubGyYZll+MvThJTDwKvopGY5eXU46mjCmKSkxoqED7fgydjBdsOxg6LJURwoezAhbiwOTD7/eJO5UHu6fHJzHwylDQG9YtV9gO+0xRnqLs1dz4dWHPjjSeC4wjzavbX814QIHX0zuGAY92eON6AARopTEbDnUFcMO9iHk8kPMn5RRQOopk6AA5Qu/5eyBmUkh5djtQDbI2ZulCkFuqyqDXL/sxAOzH5mVlP19OYOpI3laJNB1Re+JbbzsJ7x+G0AfGdPdZadTZfRjZb/yDIxAlIGIuyYfaE9zXTGEnCXrKWEpcv3L7fpFBgwmKs1ubfPom9FdUjoKKZ8DrfB64K+go9M2XufirwJA6BJoX7o0eSE0xSaE4sG6pzudPq3fJ7i7pLNryPhJXEtEsi7eAEvqIwJsyUrs7MHKk/ITvJ3CrmxTaHoraH6qj8n5z8nQsohHCzpT9B5yP+pn2Jdg5TY+rbReq5OzRR6P0DuE3y5Dxa4FRIecEW2JgjPTqhxEaGHytA8ccZEUMmtFe4tsjAy2/sbdcwW+QhDz0rcnD/BVNgsUaiU0P/Upak9UHgOHgAKZRRFTjwMmHJLVmxztcCnCn6Mi9raW11Su+ZQ0LmqOHF0QeCUIxC58AkB500Gfty/hT+OW7zIM5fqQphE0GuhhEQp/YXfsZIeVTPIcDnrAUJnaSnUm54Ef5AieuHRQygvl4KH7PxboPIS/Lm1KtQ6ahihK0nrc+jNR1RnVY0Lg4cqOT21V3pSwnFrCSfcnGfhI0wjAHR+9KMgA1Gg4xRp/hC+kY3F+USD7k+DlRwqVLPepvDEglB9n7ti6V7r+4Jp6YSj1+EErk8LSGdxFhHNVoHt8K9RfUaNCOlrtqPu/yDXWTWbrwb7A0IAaAPquaUGy22M+gyJNyT9Dxd/Rdgno+p3H3RyYs8bmerWyFfvwz3hGqNcpD8J6yRIMs9ya7ENrMTomN3/gehB/zZRY0np2Wvc7HFYQQvhBwgFCzkJOQAAZrUYzeCeDVFx5p4cpXN/zmOqiOZr+lCSETiIArc+oe9M9q8O8cm27B1DDAwG5Nj25s6coQQ+czDK2wEvF+7NTVSdCZKHyFRAhMCwK6+qX/Eodcj1cDSIpvEY0hTWfMujSSdzTbMDIVVompJi+cUNZ+PfLgOthHXwcFb4545KthDgPkpQVW9UHvwIxWENLao103mlyiF2bqTC4dI+cOPkAtE2B1d2qFiA9u0zA4VgVzr6po84/ED9wJ8Ntu4aTeZjBcFUxd4pOTOXxUVpDghAb4V71FWPqAwoRU5zCRZEnXvrXKOWgAHa8DcZuJW4OnuuELm4FLnQF4QyufQT4RkcZ2ABSAhcuk4fEuVSUwTmlMsepuTRRU6YJ+QkkGnwnVoCx7hsTeBtiiOqtem1qmaOlor6zmC/GW3dir/Eahv5Q0zty50gH8Lr74PWm3nxBMJA1vD1mzPUHRqdz3jjT8u752QDdGQ+a05hB3emGUkRIbcBj8UTzXGjPau5l7ru1ww/mSXrpGKcAfVE/OgR+Zj5P4k9sj4iKnUOAOjSEsgjJtAeuwTxcMaguqkNFpYNOhn8nIxZvGZQ1UTsGLNvS2Ff40fJz/qQMTF+/X9ACyKoc4cJ8gwHfOdrG+/7jabLS+8dLv5NuVts6QejyvJpX2rW2YOvMKO0RvAhIbHU9wXg2uVLdsyZkyJGa4mu5GYxElQmhMWJMHqTouXAeTOCryoxrewvBcCqN9VGzRPiAttqwqZrQlcNIINqyvVxboeAlII4LvOfN9BZeO9o/I7SYvaLv1ppgMoU6z7X3FPXjJtK/eFlEgEv3Ku/5SwMrGkkOJ+huBwXb9Wd/4xBU536HDvndnt1hm5HrccLo6v9/myNL5nTPTi5Pn96+THVqObfuZERZwR0CpCH4TaDAh9ZD92yJiPirXfttbGn8kBA8ayq94Wh+tPV3ojEPCZs3p9ZOX38ACHUmmifxc02r/z7c88S5w43xfm/NB5gVHxKrmyL7uWBlWv/vlm5GzMWc+EbMvb4ugD9nPBwf+q1a6jb3r/C6WbXg1Ikb7zEr60fBQn3v/OwEH8TbAXeJcmB6O76CY/Skg9a0ZMQTHFiuhrlAc2eyjZJBtvPzSgTHpIGk/7J9fo+G/lmcMtbY98XdkT/kwYZgaLkwUi8HsZlUc1UZhQrLTCgT64aH4AcBJ0oKL+qkMS6qS5xTZf5fEIx2I0ACvqGFu7BFjlEtf/WZqBMbPYVBnh3r6LpOGRSYKa+APWUP3vLYwAnO3kHeqKtX8y+JOreQL9Qb/ITwWpGrohe5i6ndIKgG1ehbB/JGNfAkts+Pq6T8zPAAW9F6/Xt66jW4oK9BcwljvNXOnlyTigaoReHfvJH1hlIotqmr30/z+ViSy9PHnW3MiP4WqmqiEMqisIK4mHGXnhyExEma4neLBzwnu1PWxMtYGjJ8oFINStgaaUjeAMvW7U0aZrQ7VJJPrKDEXR8Mjx5sJF12/Efd77fvlbeMSDDpc8jUIPZaa6tptiyAwWDahf4sf0KReO5flhOageEcmdxkL76uFVI/kzjD6dQ/TG4TAcoF38LydxJ+we6XFBVUbrP1Ykgbdb1dwAfPcmmZGSm7pB4JokVG0lgJa9K6vVeaaH0/oQY4x+R7TXaLicgMJBDFLvmWWIlzjo+agkgeV2Eu11+B3NAmqd/jAo7d0ed5XgoG9YUEIJLhRy9U6+4U/gKp7O/35YLFpKafc6TBpHZcZSw8Odf27Uh2Vs9BRIMyV3Xrg6VaA/SU5f4G3VeJiUQNjq3wO8bhtV6xjwcb9sukrshWQbcCRsFyWNCAdmFz5DdfMpQ5A4oUg3RbRO2UMzNQ1HKSaDFvb6V2aaxPUABFFcVakxgAfFkCV2toXWviDEuUKW2PUgYnaXyLiXDAwn+ysXP7smZ19d1KNigiuzgdTZrAiJg55WO1Ypr/Uw/sVGGHFtozFqdYUziCsT4IhhFOUuguo22Sd3GLD/9qg7mOcYuIxcmGO0IWaulPfHFNTLW5BQggishZfSwbThLUbh+Dyrx94rJsGeoU1FpbYJm3cKq+OCaVP8MEXvRMOnpdqrMUE6d1TwWC/+B22dm1Tq7E9PLWYdr2Y9YyW2iu+Cb//bvVEbLAKUWx7/PSmxxmITN2Icm5W3nZNjiIOy35VBRYjvBkqgx51M9vyNLIM1UbONcOgAdNv5CokH7U9ht4231SCeSgBF1xCeru/2HA5FARGKUp+Z71ceq9g7p1UDVEo2Rkuf/2HumHnRmd2NBw4+c5a3BlLwQZTNAxWkURC4t6/S4OX6n86QCLera732uIfaP6JBqkFlm4tc6HAsoDvaPsXEd81gvwdtLiAz1/r1BC7jAg7uab75SQL88hvxrj2UILffuVibBrOz/8j85AYlClPtFgX9ViEW0d/h0+t08pZPhNUI+XWz8E75VbYQza5GRKfMlnydxacBa/7mkOKlgjyw7b2ByF9Z4uYCigBFe6jTBKVWS0VidXnFBKzWZAT62aXEnnI1KI2ZLLKEmWfm20RynmBt3U0Qzj/htBkjTPy4j3/Ir1m4as0BQeF+9gaHBDcUMk4scLfxIsi6FyavikBuyKKamfnycLr5DHoeSGXgES6Pkc/QbdHSBlZ8eWAz+PYs13BMal8W5UxcWvHmbqfTu/Ppe9gHhn6hDHIuD3dkw9wxVjgEOBSkCK4zCK+DEtSt3hlgEO9rYd59BnNotFTMCi8gWk5xVZZwbzo49sTH0hcSXH9nqhMmFX8M1cF03M8mZ9NWcID1H7B3rXAHUYNwcnq94Pk2a4JzRtPjCr1idmI8AM8/e957LLhWxjd3YC5fzx+oec2iAEk3W1XOVPIlRzq87EcggN6W3fJe6Dtehu0NWPlFm8LjFjep+TTi4vp6e1JJMh9iQw30c3vdKp4C7FWJmtpIETAmm+5QdOBGVoldWSvGk1RcmXjb1tzLrriIr6iq8UngIGeNRxilmhIsUb/CuEgvaIQBXpKKlNnfDvq2Fm3YAqglnOK7doUa9YE1HFnP+hyxlHtwcPV5XhBDsRZCqo27Qz30u4rRiBy0fc/HfxkFHVdn1psW6aATmh/aR904azsMjFt7q9t3dF0/UUOVwNz1al2AYNHx3R1geA91OZVetwzDdUz7gN8aZYfpQYEIS0985DK4abXQXrUxEFqGZRtAejmDha+4aN9XDzUS8SC8Fg9W3T04Ith4c4WUFXCfWMlh0XdnMIu+MJLSmzTHUhgRpiH199tknxOv4xzQVKz24luibnKyf6EAyzvHsMXCz9b5/3mrNMS7VWmplNKUNDOwkmAOIEsRLFeZmoSqLM9FQqEzUSLNYrsPBtJ9p3Z7IHVmGV7TsCZcYhMDnyermmcfXokP/cS0cfHpHx6EpmqjD36P6b77b1Dd8FytPhc+PZzJJ1i8b2XzUZs/vnXQw2490mhUeN603GxfLCjot50kc8iqpFKvpmRmmGPQ1GZwwnbf+hnYo05GiGVkBiYqjGEevGyWAjotr1dFnNWlb1iJbDK6Lvi2nEZx0OxWbbC7g16883+FbNfHb+SqKyUPjx+8gVP3fgJX/uRuLfjZNJAy2rvFN7a30KKQG0T+Hahsv7Bd4frl6eUXk1QVPzwj4vF0oI4o9kVhqgvWVyOPRKtSaDr57hFjXE2gcgfR76sW6HkF9DIJYxlZkhgPDSBj1NqIVNnHJeavS2CADxVziOuCWHkn5uG65fWfvr2szUESDYobOSg3ACCj5vHOtGps0ySVTVIwb8pCm2fMaP6lXTSTMnQOwRD+8Zzt6u7n36WPwLpCb7mGYq14XWNGkvf1BNOPj6mpdRoQ7R4ZUS8e0i5LJsbz7p7Zv9oS8ONwgTbIVLdj5+D9w/4UHnjANfdiT0JO0hkFs1wdhsDJoyT3UKGXwduxpkE2Iv4Yws3iuHvna/71CgIBgUirmUDoP9qk3ZDDk3TuhK2lMB/1FfSv8KejWeiu6NikSz3O8uSCH3rSUdM9TiRFP7uAWblbpVOmP52mvqnFpAhG8qoGLdF1ShkYoETc/+2vEL+AQeKPh4VMPK0793EcZZYHWrnhvjOJS1Rje5TmFjS2wP5KL1VXSmYHc9JFrD/eLRRGRlYwzHGURMF5sNZD0xzIPvYezn6HJr7XinFvPCfnkU0ffCzSYQJKne8Xz9N2r/u0vUECfoOg5KYXeuAQNfrD7sAkKA3aJFWUZVe0NG+50YbIKjfE4Xieiv7vnFQ+2oAD08NDOzFpVx2MF1kiBeAeUABDS93aZJqnTMZQESUuWePu27A5KoJ7Db3q1yM0CbvNosqOKG4YUC5WmaDehnEXpi3slUFH1YCWDweWT1f7uJ5cPg/xrtjUjxLHaKhDQNe43OwO19Dyt3a9i4duwal8BPEwIQEn4MAhM1ej4bgKiHLD1CH31zxn1mlTR6z61hjs7AZ+L/wrw+Xc6lBUSBBxnnfcHi7lxEdlYLphHR0/tEQDAe6+ynr83OhXbfStZo1vUIJEMqFhvnuX1158p2IHGDoVPKQouOVOYrR6eWPOgu/oKErm2qqk0M+2wlJYsTE7CwXSxQD3frXJ0or9oAZi//qBZvxzQrjEfiv7wIR5uuXXyN2i3NrnEXNSm1Iocvh5EJrdw5XB+TjskSVHuwbqKUs/APuQ3zs/468Uq+lLX0C+Y3aUZ4VbjecWwCAWMW5uC9gIzv0zZNxU2fU2PWqtJrm3h38PKAz1NreJGbmuoPWqUbDt2m41anOa1o3PIZgtvzWOCM/xh/n+r1BoJzcNUyR1Xtll+Jx8cHEdunf8lsv/4slyRR5AnGgwgNQDfGW22TR9rYlQNg0fmEpf1TV27gvUQuX1oELEicIncaFZ2L0fhzy1sTl3fspa3qGGQGUxz+kqmVmsvzFOc4QPD7vr6Xqi0ofBDTgMe6TbTF8qrRGKa4cCY0NeiaBwxY/v6gqVgP0h2YAlDHrY9IFRq+slfE/B8ysJlpFcWepK1kFupkAkHu5zX6y+OXdmkEAk8xeoNJA7bRAK02efbsHoDpZkSnsvuoEuNlYoa7rwk0seXljWGpUKv+ZjLf4x8T4LEwrSldsl21/9DpFFO1GM2pLJNznb+ei6UiAK56bGtmMFpjEpFBEzg11lhbGJt8NRvF6hKtiwrwWGNKFBl6GAOwguFUuClPHZv0nVGk5/wQt8Qxdz3E11irr3UegdGoMvC6euQJU/j/dJK6Cax5PZbhqTR//DcOxJQEIKI5JOkqUGIluhMEZQkCbmGct7S+P1CAugy86wOI+aIHQ5VzhTL+IkPzj68ZStTW3ct9QrHIiAlBMelJpM8zmgU5vuiq4lQ04D2A7flb4da2/z3jzwOfl4KzdQSm72AObwgvjJ4XQwPmq9bCKHPCpmRd17ghjm8X6TvfI1SQtPcuGzK6VayreHCObBNvQikk0c6Wb/ycU87bDj8jBgoMNQneVdo+jEv5ogswoj8naj+44ZI8Rz96QELo+omZ8nwSQGyNcfePy1eu4CvENCFn9fin/XPhjr2CM36uVydizfmMjsoq9k72pPaXCvFpYooiuTo1QWeO6RrNhsrnro0vzlKMlggvS6Yb10DTfN4PtMswjd+TKb6DyCTkqV+fqI2us5lBKoGcBDD391LMY+7pmps73G6uaxn6LXvfFmazv2e9SC7IZODT1anELZq26xh2IoNV3epf8yu1/QpZVU2KnFaWug5i8nOFN25KwysWIrYKYpFD96CgFqWyIk3ZSJg7wRW5j9/gHl20/Lj6cHup3C24NEa6JXfcuY/rgtoC9LGNoP8AnqTPa15W8cLUhZ/Zyci9lo7RuobHvCE31jAyG3SkutU8bpDvV2lWym6C6Vb/Mq+zkhItpcaGBcqdf34GXeFhFMWuxA4HFjmYmITgLTLKVK/C/rNOY+G2bcMQdm6XTIgwUdSfCaxFH8Zr7uYti2tNgzc1cxPtGI4ozptxEs4700vuUrdpMQRKUfVax9mhbfDQYFkJLB8A6UswVRBtiI3LOgXsOIUaJL5U8t3oueGPnbsiAPsc+QHkJ4gNrW1uPzUr6vPJrRbMrN23rkUZvNfXwfGHmdDFvjSP68gQe3uQjA5Nxd0Ixmj7XXPMsq4WLkiI05pm/EDdsG0DMhaZVx2W5TyoArqn17Vr9+3kSf4fPNfHrpx3Fy1sAoGO0JBGeEUeugnF8QTuxq3YZ1JMluAUo8d2Pdgd57i8pJ6GAuEsMsqqaoQPMy0PkolWB/e4ChvtbHaKD/Rz7RHPRIU7Y6BLdFYrpHVf25Fs6F+96ybU4oZZ9S0ki4glgoCVzUGiwM31Tx82ylJgTEC6m6aGQmFstLf/oyi+qcFHLsg03jVofK2VMgq6VLbVvdL1CDIxEJ40PveNNtRttZ1m3lvlSCIiR0UeKmS5tUbB5OjY5/ou8XfIFELvEb5G0lfkdKv5Z+JSIAs3TzHOg5M15KYV43xS3+OItUNI8THsTOhVpzYrHXSdsbACpsBw+KZeUaJwSxYwhNjo+Q0aJq4z67bwANUYL3sNF9fsYH37RGND2nIqaLvp18cxnF5FxD8qYSxSO2BbBw8J7d0jYEuZuByE6M1diFLWK9QxfSzuk9ToPkmFX6Z973soA3ww7dEX5gENEndB71CDnXRW50ugEVa5BYXzxQzEzOat7ovPVjZNAKg2D6gif8GvxQOoXSaRsDMpMUe4cMDqMIGm+pqlRxLbdeJ9R8impL2uZGMpZcXSztXJmRFglL1Wq7h7z7DkEZOzh0q2XF6yaQmzuG+Nfm8/BOOuSEoL/jEasO1td0VaaRmGBRTXQaLpczyTTt5s6IlDojD0m+mUUnDDJNKBom/dzqYel+//39U2h8ClKDtFhkWCqZFhiws1GYW2b28hwBt43dRyjN1LCFWM63UOEsWUuEOvf9Qzk6f8pyf8/px6/mEqAEcIXBlOZE7hhV30NNQRqSBcpNK1Knt8pC0PS0vXSHCIejXaYOnUChs+0cZZENLNxKDVmZ4BTJm7NYBhwfkNbRUNw7biMIiLig4Zue7BgITz7UuUIcG6O7jtWx7+z85YucVqBEuTcV/ChUSiH+U5rB6xen7zo+oi8Xolr4u+g7JWvkweJMazsw4jsMKTMS2nGtFcRkaH/ykg7Qy82bKIMfd+KiS+AjlRq5XV/ReDX3YuVhfjBvj2ob7MoGxlyqr2fIMioGG3PgWK7pOwF6B17nja758z0N4m3mBfVgMhcPUfyULhtptAAIZGv44wRKzO/OMQ/P+btey0ifYYAeTqHQgotuHVmqmT1va6uiDYyhR+MzRAM/VBksBaxzQs+I0Cec3PVyY447Neh3+r7G3PB0dM1plgHsEWzjAJoEX8jMxwEDaV7h58EM7bYg0r95FcsUU+vsnAAg9hBNgNCU1z2NiPFhryW3XNytIVY3HkbBXnP5+gpCuEYUDhrL3E6GRTDQOtAdRy53+ary5upBbTzGMUd/TTe1o1y5/9Wj4WlYsdKD43KuOMgH2GFcUsC5e88LekNwqND2td0vBvrxYrBDYZsknvzqE75aYZ8542Rfc1/06Ok2NAEH19b+oezP1a8OAO2GnxcFl+eZc79kD3kTYpra7fztmt/EN6chFTbsswXD70EJZlMfrX5DYqY2bVr3AGznxYlzx1ps4fDkAOC70iEx5gFOXH7uIxWcgL/nH3/oTU2ntG4fu5IxDDQdvEVe0ivZUnWvRaRjfpItDlR4fDkAZ6nA1tGhJYEU2tJBEpGzxr/mui++X+OWHLLhDu9ZJZ8iBh4PLB70Vp7hUJGcOsxWvqOgp9ZTob5whX9q5xBLGyGxe8bhZ+3bkuGp9TmqcH5cesIWpC7MAAUAA+eP5SwvuxtDKWgOyovtYlcIQZJX3fxDD5ha6SmmKyQxsYrevYYfiZLbGNucWwRcZBp5PnT2Xoej58jRlSOWiOFX2zEictX86WCbgG6Kq39LM5ghippCpJuWdOK7hCc0bIT/xh3iKbxFb8dyOWW8zXxgmk1q7BP1mF87fzys1A507TcnmvIFDf0r2nuPsJzCDByPN21l/6efIlJgOun/KusRx0zfuLFTCxQRbN73qyEgkSOlOLuGzQHr6UcyT0YLTCxohtPedPmjR0WTNLKVTP20CqsPhyw/06nCAdyl2ioinuSHm9yZPy0om/IDhRQzVD8wgAAAAAAAAAAApX0ohKYIqRSQPz5xJ129NTWgMIOb6z5SdsaUAzvdvxDwOrMTyqzAOSHu34h4HVmJ5VZgHJD3b8Q8DqzE8qswDkh7t+IeB1ZieVWYByQ92/EPA6sxPKrMA5Ie7fiHgdWYnlVmAckPdvxDwOrMTyqzAOSHu34h4HVmJ5VZgHJD3b8Q8DqzE8qswDkh7t+IeB1ZieVWYByQ92/EPA6sxPKrMA5Ie7fiHgdWYnlVmAckPdvxDxToeBnEqrmaE23XrQ3FyxuWvipuG3CdK6bAAAAAAAACt3Kfgc66GN1OjcTLrvvnAAAAAAxJojg4GJZrhG9/WOaD5pYQmybbumigwGXC0R4ZXzEuIabRXm3NbZpSHO7e7z5tF4L3UhB2W9LJKT+nI1+N6hfnIRqGuwX972xhpJS2+nle1x4AUANp7ZbamwW3GF/Pl+fZ3gLS45uXDCOkNmFHaGX+raRHn8qRDt4ILKIl7Odc3VphTeom9F3//ORH87Foqrpe4KsUR4UZ0KUTL8jVfdV0N0HJTgXjjH8S8JytBz1wz/Y1ed+VRn0g5wqvozpDPXci1ClYYDqsmV3XhIt2VlALwAObx3th7uUG6ZJZjbCzSJInDGlckXWhSYnTqNWZaBJ7GDzETwTAzSxwfCqCpWoqi+uE42A3hIAyl43GplOmUCay6v74rDV0hcch/WTzui/mY8dujB13a50wckOP9DLudR0N+zrQDzX73hRio7ji7cOqcYXZm6BTsptRPqrKaZr3x6kWZ72SQjgLk03wM4stUDafzJvrH0KwBiiSNRpT9Rdw+xR/HDHFt1qdZdYFPh2UEhJ3///JSB5D/qR8CPWVwuHRFwPrvoXicgGoElGX/toEMB7p66DQd6qSHzTrnJOOiYLdAATaFi6Gr9Y6twE01CtsL/F7RRjiBNpDZ7u+F6Pj3UkZ/9QXYGYTCxpiSVpxlsWDJ8cVGq5+hlPjtIVtOOgzg3A0960e8jldvZXNrgUkCX/2BkOLUK57/4C/ciYW7SSFauXxFSf/y5xfTsr5v42EQ5hAuNYXRCXQpdx4yhSSqN6+/oRYPN61mMUltFcP+L9lLbfBE87qCY1ZMMB7AbZhRC6sMcjgN67A5LVazPT7E7qu1I0X/jH6sMwO7+rcIiaQ7fgVAsFf0gFYkp2zqiHSfJufLS52/vUZMoxaDHkwySyEF1ifAY8Z7ZhfO69BnthV/6uAF5u/40td6PIlPAts6ecIqYyKUM3/7/38yG/i7mGkY4qUqwnz+5AU0gdXhNaPx4CfF5CWKkzrBFAOV12sxrG8wjRhqPx984rX4qAAN73gD2T6DD5rhjKypgj8sErvDNzs6VCTuE/bGZ4sPNNud45Xv+pMMvf09HP5v39G6KUYjdwq0GPJa+84sJbyYhUT3ajDffeVgrYpSN3axiUajGP+a+S3atqrmS9/zF/zqzndwTpl0MAPucHSoxsgq/7s/z6MHFXtGaRUbNUM6BxKdYMypUOzzESPLSiWwZe5aHDwhviz7ZF9KVmayJM3cxuGExB0PmFIuJiwEJjq1FSz1yMuD3nBQ44TaG4nGxKOVAuKxr/GXNkzXfA5BNubyURXqhnuJLy/Dge1uh93fDnwFOKKNIMhe4j7GHqpXFsauW6L+9ErHf2cZ1YMY2Jhy9q1DgVv5BK+9sFSBH4r/s2+aAQ1XSujjFQ0DjBGxTUoEbyq1yjx1hcDHNCrSpaA3hf/FtyA9H5e1ISeAVSY2MDfhrk1OxY/lRPrOUTgIqnXicWd3ka4CqTlYjo2GIsz+w0r7EcronUxLCN7x6AcK8ZNjTWO91mK3v+eRg+YtgADdlp4bz726HGrGTMi/XIO8noXPJ95FVmNv4PYegOZgeckCYYsN0cDuuvO/Ao4Z5h0oU8SXYFy+Oem+wxk9MgnnpcnmzvPT9+eGhMD35+AYnd9aluMzGnvByJZoB54OQupTHtx/chQn4eYRUg3nxMU5e1NJwryQIDPjrThmVbsGg2N77g7x7cHEheGxZF9RBdBLL5XOYDJnjCyVCf9Ti8xPsEDKYW0b1QxDtdOZ+014pI3IxmEXOL6UtY9YQQs09nX0xxojlTZyGvq9/YRxTk7KCW2KXYznz8EbnxH0fFNXeOWWKN22fJxZkffq1yfhYcc6Mg7a1HuymdfQ3Sr7EcCWKWtAuU4Affr+ef7EKOfnkx53eWy11VIwAY2GnRj58ZvVXQnqMIfTNncjCBMv/uNyTMq3IGRJS4Ohgi1YJWkywIQOuT5vk2pnoUVleI+U8r4rilgCFz1wDAWZn1yv97b3vk4eic66lXsZTAUU4rtko2dvhm9wImJiNjW5VN4MOx+MWgQMU4/cNv+HXFm7M7+5iPYiz06Xc9bGh7Qk+A4HKurlnFm99ofYz8ozJ8tERxn5pVON2wr9uGviUJ+tx8jMh/S/ZDAhdGgQwCbQt4ZV6WSWJdV9TJB4aq1QD8ZRkBYPh9H/h0fNBsH5S1JxthJPG9uXG0JVc2eCgH0FMf6KP4zYNPKVUy89m6EeeDIOpApRNytoIoXR4oo8r4bwcJq7XHu/Uj7uI+9deBOzxrt6aetrP6sHzKmNB3Ngyl2wb6Wxjbu0QZSdEuLXmWsmOohavdRh4uZxil57MD/+55XBuw9j5hB4w/kdseThIbrA+X/d6p1IrLnv4/iAd/jNY6VTTnzWY5jbb4BgzoZWWmSrIYZ05S5U7YAB8gQQAD2UfptRIYRgM1H/Y/i75+PsOc30k4fbCWrnjvq11LJmFE/AZ2xYK0wRByNHyIE+iJXPGskTmCYQbWvJDRlGDGRbmPGyVpYB/x4ApamFs8lk87ULC89ynvCy/T+A1W3sZ+4bNKaqLjEHFJG6IA8mMOxevnr7/8n/8DorYQErkOA2D70D31XGDWfgQ1sGms5KCdNG2AnqbznPPBoaup9WCsAd4JAz2tx5+E6134bbC6U1mr12D3hroj9+9Y/aPYvzaORBkf8zqI+tvz3OPxSWhOuqlti38OeoJ1ijmuUffLr6IBd7WxlIX7FjpE3ijw7idpRdq410rM3qpFkg9RkmARyc+RdXF6nDukQNGlm9DHf8aPzVHz6fPWRXhBcf5EinZBialIGLPcRItCeTGCnl134XAdVbpj4pkJDlM86UBNA7IJoaYADA4EphwwfMAiTzmfX6Nt6RPGzm45GY5k9gfPTUYs1hRJfQUfNmASStl/s9pj13ouGxSwXCVxq+drL5duTQAjJjOoAZhAaIVwdUidkQYQNiABm7flM+kwNHJaGJe/2tIjfGj+kr9XjvUYT/Hl98Jh2N3GtqVUptK5eG6DpiyzELPu3g3FlQG3btG6nbBzgxOPpuigmwgW5vYZidgXRPu0A9vfxmgJnwbSO2IwE7JdGxFRGKGSbwV9G8rX9DNUFLZfkntYiUK1PhakwpNIKpAiMRWHX/j+F6Q3hb2Ptdkcl3ibit5h4Q2XrGsOuhYfs6gfNN8vCq98rQo0rARR0MkxW22ow+6DYfWgJVoJIQ4OKmXTJ3I1veIdr+16N0XU+OPE2UzvVRXz8+96zu/abOFJj3I9Ki+izKxzMh+mVMu7kzCouxJYEe7dKo+DjZbWTuSalcW3PTI84zq/URLfNKoMvUoTMRvzzB29DPgAbTr1pJ+4k3+S65+8N54ywwHaBlWAvkNeTboIu9GosX/JGl5Jp2KbD2VzMJdUMPIFH6wYMQGChdGUTdgvANewN8+M1a4Lqpcom+3uAv502bvqVNNa+z6Y+lxSx+SmR3qNaeXQFzTFLIPAaNjo/qS3pVqT1ZxaC1CEof+ASHU+twtcW5e+pGmnT+CTkkFofvVGpbHkXspXovwEVKJbSTTkxhCUotHEwd8XHHEG4nsgCjSfXLaIQNgz//qmg/swyNxpafZNk53Qh8r5rSCrmmpskE+n2lhIBSYOgrqRf/R5w1oIvxiR0a0QPFV/rM1sitI0czcnS8VRtAmdL+vg4dnvGPuhSJ+dyjefOBCu/ydv0Q6D2HrQJmJJZi6jkWKh3EAe7JmVZLX5osfdIzxHh7bkahWvoJn0JxT5pEABzjA7D9hl895A7OBKPjapAPMHYTwuSPY31CYk+uycdCJLUggZS9KWo1nWB+kCDN4tJ4on1aboULfPD6Sl6T3MwkCKFBVYvwTdSpTiKmjBdm7FzdA3hxpvd2mVOAMXiO6UYcFpU2YYc2K8f766RML0HQ+MLceJbPZzMze/3hX1crgfLV/wWudzP0DrC+It3PpY8I02VbEOQDMbr8peLbTVbH1NG0N8TevJHvEfuuS3xu6LqvdylufTTmKlxigAwgV7zpiIht3X0ls5mU6H3s2ckUeAvfXMa21TA28Bj4O/ZSD1um4Q5CkrQw1UAwdsHHRB4ey65WDTeAcfdvkatg76LDaGCpQi9E4ib8mzmKry6NGU3ZYL3t94Dw11dvRwpKSF7s8g3hC2yy6nlHFh9SWr/PW2nJP9Nxm8Fv7Gh9607DNjz+8yqfMMI6kXyRNeiSouxqxfWuasRkh6+pfNJvCfCc6622iVrCpFPRryK08Hvb8uE85nPFevpNfban4kpKY4FdZtTl3iFvYhI7+VKjUaU/XFDsD4LHKleWohmIyf9BPoJyVqdxqzxccs7nVrfWtlhn8Tb8kNKNhHWGcD8ujV2y//gJSySM2JZYZmL9Zzdg+ObC+3BUT4r7jZAH2puTsZpQFedzHZZw5co2k8Ue4a3qvM+FlAgObRcRNzmrDdutiv/p6ii1/BYfiejlfnm6HUsH2taT4aFoMGngnYL/WNg58P5sGub8ZxgJq2tG7Wbzr1he4O5k8x3p6ORaVWW+CVDCg85Nn2JxLFl70UfqHKLKIn3SNVYZSdFR0J4PEHMWA1Z6KxWu9o03X4PR5YcAoaApoYw/c7n7tUA/SUzYjUnfmFupmdDUvjnob6Pok1XT/BBKqOHdH6Hj1ALvMPxhkLmB6AAqP5j6Vz38CEldqDv1qKGUqBZX4UXAuZCXWll+dk3vRvjqZpZnhPsm911g1QsWLDbrbvsrNs8fPccAMN4m+GEVPUYsrfZDeAi2PRclm0jswVXaUV/4zORz61MMunHpfeo9U3+AX75O0wqIFjdkESzcQq0gXr3xVHksTHIqofepDjGtcDqvYCDyx2kdzzQ05Rc3j6bEktcikXTcDVkyxJR3tiud0MP9J5nuTunTUAy+Rt26YpaqQziokTUPL2zw1AlSe8Gk14Tx40txiMhFT7t0f+F9LsWbd8AHCLGXOK0uO79hGlK1HTRGlreDNGuwTcgipuxOVdrEPgTZRKbDuebviLDiOrfoq+S7e9m4+grJyv3ZTterg6GB7J897F3y3pnW+o6C/IHWVmONOv5h3BG5nxvfuWZavAn9jC2IjTu8AoYNZXeFdZtK4+x21yBVzgdQIVMODjlz5T3TnhmRjQQMgZ1qrxQugJ+7YG/XfdOoeDgj/MioTSQkY7pz0Rs08ATO/B7lzrnH5Z/7mQ+fUBOHynY31d9GO0fFLmumtFPjLmyYjhIH5DnoqXaLstrLWyPT4VolC6CReK0css5OdacRlG+V1GnxxSfNgbEXzv4FAGEUs4SYBsHD8W5vrR62BOhVNtxZLBwYBPm7NmxhYdt5WLOx4kBNKHk4AIF97vMfCltcS80KlNdK7Qd586Mv/y1ClPzz2D/V5o/cW5TerkxCv4O3WRVcts6u+9TVfBeyboLpOYdpMHIOkhuEXx1n6dzHfEawuQqAKyrb4+HdaX8cxqwsCXuF5DWjNY1vkJ5UxZAgqqx4tohIzwJNrOKQp5c13ZNTsMiHMDUqHRwaLM/asgAAAV8tyUOL5tlIAgF9AAAR4Px3resAefSc3/vpIMFmK6WDT4G9AAAOl6CAVjqYLj2/NayoAAAAAAAAAAAAAAAAAAAAAAAAAAAAADbqqFWOHNCAI19HUgYBlgY37uG/75h9iNQfcsFuC0fMV4X2clAij4AAO9PQ/iz5tCVh9nW8RzSrQ9uakiyLedns81Z3R6Zb0y3gr70IJDqQOKMGjHL/MiIvKacEPZldMAABZ3pfJLYn+RRVgADYCR7PQM1VDVFP8EE8AABn95CaifD5ou1gl/eJWtxiqOjpH1+v78hEaHexwwCtyn5EUrg7AJsButMrIAY1VpuqlLAj0LYw5TIIuZsuiVU4QnDCQP1l2vY5/A6DIWinrdVDtp6L2yfHMGYa2PG4DVgvM0tT8qIA9e8tx+YtTNxpDTyeO8vcIxrKe6DljGe1P06yFsPDJq6bu0uuEHIkXyfq1EExaaexJkHxY1Y4GgFI9x6+CnFQDe9sd+QmaoblaB6edFtzvKAAAHBFE0xYneQMe1ytgAxiT/H2iK6WcVxdNPgYIp9YGhFQOCrAhPBomMWYlF61YWW0v3Ygq+TAG7NTbwXuNfYQm1wo9jx+ATa+vn4tsYTDI0amsaHqJKrGLzdmlxiHBrx7IeG7QSjG8TZ4Txtjl6gcixyQwd5awV5KK2OpgITPwSzXCgdjkbPSAAA0mDc/t/WNvLU7Phge/9+XlgUgSSolUNyf1TnMxg+DGipE0SPJg9uijhv8+CNdz8qg/XmZXWKyE0zuFjavUpOqcaJJMPQWMgAACsEH99j8E2zqw2AvQ+dP0fIw1y3S6PIL8few0TEP+DxPuf+Vb3EO/umb1fgN71vJdUCSH0nxOdQfWDniw6+uyfSu9HlbKlkXCaRWetUw8WiVNUyU9n2wd6wOpFS4pR9ZWlxrPwByeAAAHkN9HhDXKTzOHQz99+uRRUQESYf/Rafy9eUHQmSumEPZAtEDyhPnb6IIKRwCC4UksY24XkRKK0atLIjKBVXWUJpuWJY7iTe0VBRcx7gUXPkPK3GKafXaOJ4AAFSloF8flfvnaaUnLSDMQIHlr/N6UkJDKc9RsyDbpKOEMa98SPQ9otq1ZNC7eXHeyCk2l/7E/OjE2o0oLKpEq5x+G/NqLn6SZRScPAAAAAcC9igAAAJU8AAAdUppvh7CPZ44I5ZPeR0azHL3q35UXCwPmz6tTnhLVeKm1S+tjNufhZfGXerxyBxIMXcS5k3O3QeBRKpQ4fvwZ4PwB3PSUZcOMEfw0FRxPAAAACwPAMHzqAIHbVzGiz/M4jBT8PoVULC524BE9eeXLz3K1e7Nr0cHWP2Qesdxbst5lBgzOyvxh1zlbFCvkCjql8BbbEczfytTs4ONqvtdhOsAbp/yaK8TYbovl2R1cAB1L2KA1Y0ygw6SKUF/70i9GOa3S0JDpuAiSreZm+OStLIuCfZuVR/+X4WcKsQhaYGb0xdeXbqX/Kh08zo7nWw/GjdeZz2qHUkF4XdBBiWotgiZJwIDSMAbWtBKV1traitp2Y8JjA8nz9R/bzVrp2FwHy3b8tFktQy1TuMmHtoaT7mvAgoNcJoJXDFybDvj4ORU+TzUtePxg4pxvJ+U66ISPhJdJhH/AAt95HSXLcap/jFaD4b7YIWISDeyIPSJ6mwOvT6RccmN2XCC03jKbK7xi+6rL0RMf3Q1RvCxC4U3O79XRC5vHrqEi8ffhbHdx0HClOnflUtddJiX4/cHgJjpXWmd4zTBdkH+++NuOgagOvqBDek+F0DrnjponHoKR71YSpW5UzMG4ES1ICjUix8dkClcdhnj7WckrSTqEN8zq5fLAQ8L6fHWAZxoP8pdOZXl5JTpGYDLJ2EzEYTgNKzgOLds8iPUveJO3J02ixe9DWzA/twozjhRP1DG+vpE1HbPo4UIkyApA6Hh3HZ3PZBorXmKBclEmBuiX6LMz0LWHsH+62z2FBiHPUIBGNEtdZgCQ/YBReJZC/p3YHLnc8tABt4B986ugX97PGVpk9HZV+lqvTuNzVK76RuuUxcjG6Aj0HWV6BX+BWq0aPRNoQQ8Dv/GwGQFcqvClLQ9P+RDsPIDrzh71s8++Z+D1jyaQQwEPFF1rIXyOTA3ZnWX+ZbHtVulH7ELXj0z+L+go4HERT4GiHtxUqFwlOh6eZEg2XcGJHv9cfzReAhq4/9bBxx24AYshyMuNgvnMA+qZ/WXqSKeXnBEocYa0S+A9JVI4nj7OZBt6dznJEKpe4et5/GWfu603Su2BHRdgC8kdlPKqkLXyJL5gSU2BWzmnWhVlS/2ZaWG2bBai41RJo2PEXgi/+DklxaoPSGC4YS695xkHx+uksNX3Mxs0yYyVNQIbrQL+LmDSmVlbO+ey47ZHfMsm9rJ15dLFiVlzERhn2/8BubIyMGj/T9UfWN7jwzFycaSPKWDjeXitLjN4WknZGReO/P8Ckg4w9i1hHOivqjKGLbxsu5bULq2Xlch9ypKj95whn1IHU/yLj0lSo40zv26kjxbkesKKn36mZbmjFOnHO/NvtDnu4hmYWJBJU9IJX9rUfJzP8kkQo/CW7GT5VDUlMY2EViYQFBvPBFtLt2HxLMsxdRNkVe1jHyYrxVTqQbs3J+5mHGAVxzu8PNd3GJjzDB3XdRS+XvmiuYi8zvxKLTlYYuttX1mo+VzF2TXpQ3ZYhK/HrD2vT34rHxfwqT+o3bBsXsvtS5Onxgug834cdNYi7eCgG9I4LJZAy7PoImNvdELAuZcfyFf1L5VK5Vgi4H5cRKu2bVao48Y1J7i58wFbpSlb5EmUkF32bx+iPBegOeNcJA+9zYhL7KVoUfhN6A7YjefKkuMxp++yZf5WfRLCwkzVXRkIvUTJPykg9TohuOY2fZ558Sic5Nb6VhI8TA1gT0LwYmhXtWDKqJWoxfQ+p5IpxL7jRt6+zt2Mij7HYvmNoVs++CuoeJxqwTm1EwcS1f3Ukg6lMF/DO/xDkMvm2DH0JmnRu/qCEuxytVJXCcXq3pV4m0HPMSZdztpwCMWRjVj9hCB5Deo5Bzz/1i1yXDQZZD+6XhH2sgkICuOfkMJKC5vt7+ZD9yNKcztkATsgFmL1o59XjEIcM3VmOx/718ls8tT69p+wADSQ2W6BJxcRp3HbOV3yt4dWZCXqQUxQ/E0RaoV+mT7c1vB3F+FjVlYr1fii8zz5CzQVGw2p1DcirhYbiMsUIWliAJ2B65iEGW3j8O4wpAPqCF2WUwjBylXufna3q58sx4vNoajDbLT39aIiJwx6y3RtXMNtg4nlIzfrqhnpX92DVjzL4L1+leRAEOB+/RsOkFFF8G2DuugRgu6qypVQQqKvKYX0vQc02dR+6LpQoXlouhBjy4+lW5WIVECKSE3iWEDOjGvZecVM2y6RpT2mNPDf709EV5lfMsCTe9hquhTJ6HIBWuMtvXk+qXXOvuArQ5zOuRF9YHyyNp8HoHZ+NEbPwIkrsVY/CgtBUm+Aol7WTZcroQZs45BU/r2EP4mBgAHCaJ1whqTGHD+bCK5QfTE8ojqGj+jO2ziDyrMM4LqZeVnusnsnbojdBM/qqAa63EpoF0LM5sUHz3G0Dq4mtCFfpEcTzD3G8kBr1x1hJvBJIhu/rNGtiIaLtO1QkIkwe2Czr9S3OyrvbnRJzabSB1Rqkjh+x6mhN5Zhd+2HWsnQcUdXC9g1kUtUNRaQFcgLCwIu5LwRouXg0lXXU8D6C6yn/i0Oynj5C0Oo1tR2RXANHdZmwnwefbObwKryT11n7X+iotm5gQoW/AIxWcUGPZi3h/45FU5TJDD0MS8xdhI7Ru3p8eVFzLBlzXa9O3j/+NIBjFkSpT1M7vazPLuyQ1w1iQprPu5bRNFF2m1/Dkis4v+zMnYmTx51bmanxIpU28ycVKxPUf46Io/TgWnl4zjiYgmt42sfgWmGxIz6vNdMeQwUHj26VxUfFx8WgLf+O3gpyHTVWZyUMneig79BxNlWIOieKNJox/e83HUcHZ/orIm/3Y0/5ZoNhPR4wua8D/JZaoui2NavT7LbKfB5bPpaQaNQnQeYS3eqwtQThlkucexRDzTWUjmHZzr/zp5BXtC7Qbg1WG/88w8yTW0H6Y0uwhBjWjUvfEBUjlRDZDZwe71MnkTix3644RcBTOT+ZCSjOlB9SXBnksOWGAI7mRoAfmkR9W6d2YXzUAPO1whjx1N3xoAsSuh48ssVAhOTGpiD2Lym9BwwnOdpf4+MQe4gIa/n7SsikhlFBeuCqt04WIMjvSRjWJ/VjKD8HIcPWXtIa4CtdXSPJ61hUqClFbqZWysnlEUWt+xSvw3IxhahTqClsgxPgu13FGuS4lSTT/b+ZKU4JVM4oJCyN9rfc8ETU4CiP370cWqWfbiwltu52cqSFFw+GAArh64pdQXJ2lduQQcBq5Mv+Mp/K4K+OJ16XyaKGmwkwYapKOLI951USBpVZYcv3zHn0ySF4gj3+9Wkun7x2uEU3cDjzctePtEPKAf8M4A/lTPKp6qFh+TMeGK146YdMq9WjFSI9cnaoRbsIwOyQjoG6AqsgZXSE7Gk6FC5YziLs8C/9tbDkyVkLXhGE+lOonrhQZQknab2Hx8BVidurUHYdvEfW3Ugaw5/26K5q85070K7aQLUyw1MENwtfBcWjNHAL5UfTPO9tTzfdHyzLGeW5apA8fGxwU12hHSiW8N1S/ocvhfFjGelh4iV5nLuOEeGFKIFjah4Vnff5Pg3HQC1Z//CrJpkasuFwF8RRTwfzwzXrZUwR18HcjZdHjkNg6cm5py5Cia9F6Om6T/92AnYP+J4dLsMmDY3xUC0JIbPtZD6N+zD2PdaGKse82G4dPc2yu/8BsxYYPgy/A3CT/SrhCnJOSQruAL6Ebv5F4nRxrLcAT078ZUX+QSwHurqej8KJKntwcuaP/F8gJ2iC74Fnuz8XcgwknGsOunb6kDJIFn66/K9+ig6q4+sTjTbzcdzRrc9VCWO4fgjMxFaEa+12mY/Z4XKgjSFcG0KMoz5Z2Ti+JCQmF/QVOrGYFzzwonswLXTrrJ9BCnBpRX60Vx6c7bsFCD4EbP0nuxI/VjaMnDUSveBKECisfzGk5/iQ6OELeDk0P7/78bzZbN99WHsL8LSiXlcSt7cIn/0DYNU5a3PDZzhS5FVUet2z1p3VfNhTwB2nMFxR/bfwvl132Vcey+huxtCH529lVBW/7/WuF/JhS/US+/tiwmTBWR1YF8b4+B3zqCtS0fyqV3Xxk0CfbKusTDA36OrdSi0SPY0X3R570eSoITlr3pX/zx/LYe/0OmVxKc6zjPlHViMShbbD6NMvcGUCnv8np3jH//iv1QGY7J5ZzRxg0CMCRYz4jYfCi3Sq1tuvLVl1aRny9eHDFQyr9fQQREJrxywcQMMirHUWfbEyt5C26017J54GdsowKCF8qikdIvDuOn4sugkAQzJ0vmhs2WjzUjT5eebg6rgyrDtdBiOYTJbcLWrvhKasO8I9cVhIWbQfTYQXDkvEfn52M3n8J7CV4Xkjubcl8+CLn2d5L4gWlc+GBr3QqEo6BYUn0IbEPxz0EglSoYIbDsVAnJxI2CYCWiAQL3iKHKOTplkVbQEj4vQJidjV8Wy2FDbBxwTZ5U7mFLWZemSTa72HhFEgupbBabhNm0s37pcDSolchWRiqdpvE4sYJb/XBsbaR4v9jmDDu4NTIWrZ5/qKXGbHgGoQQLPTYaLtDQZfg/aoYT7920PQE+7aWbHnPEGAxkQzeEARP7Q/dwHINVjWcZnWJFRfQkU4S9TTCbtPLzFqpsRIFGEm0HXvAtsbJ5o1Wt8yhJuPNMLngUXzI36/J+aFKnxvlbgLUGbLRf2Ppp19KgQKNRWsLRwgWanLVWmJfaleSFqMStthqG6GJa5Epj3TOMGOW56sh+sgyY3c/MqJoN5EG7fdeCViDBNwZj0eNkVFlwMpwGlUhSvJpV6HaL2idoZ3d8fZy+CPLAHQKCucWg22aQrhpZDnhtcNIQ1WZR/+g/MRGyZpfcZ5RzlVbxPyg+NYNQh1yCbg2aZaAwMuYoB54FaqKh0DL0EOOPDOtd1j0lOOMdYFFc1k7YUK0gXlzhwVOwhC0cZrRxtLbO0KL1Z0uprWDKWTZOgHfr6VwoXmYT+sjdpI7vaCPkj3vVQDD44Z3/6A5/T232qlil7ENpxD3eMflgcQEi8u7cgTwzV9gBDWknIBbDENyr2c7YoN+fft8ho27u05IJV9MRgsgV5ZtC/FggXWQXG4NCC9Xu4ptaLE5jYD4rUuQmQH6ZZmcfeGbi+hYT6JU/f0PkoAuOGr7tFhqPNoRMkRWBCzUWHtpb9C12FRCK9H4LTmUOi93jpywtrJ5chwS5xYcUN8L9Y9c/Q68wI/bBtot/qFcuu+eCj38FiuRTh832ZSXwAjOy3a7Rc/Ad7qNcLAnAbsJZWfpyXOvxvhsqvdIP+fG+92ydrYwqZAksRabq9pwc5QW9i+ShHmy7wcZB8plCRwkw/A6WjygXwHroosmQLzbhgR+6+bwRJ6s5MsMTj11ynpoV3jCp/QP8iaKO55+79lnzZB+mUO14RaIPjKAnp7L7xLAwUfiXxanWnd92FsCLwKclPcY7hEwwve8pfQA26iH1VKYw1T8zMWw2pe9njm+qubF/NQ/QFpMqWrnT0IYZDWmvlMeVwQqPsaJs6MGBU7JpFsLBFfsMJsHcF/8H3wEduykTsQeuPh9/nOA+7qZVgIbrT7gGhjJBoRAF6aLDPaTR27kMtrQpKU18YHpPMsYC+jSc+0SUh3ZpBjOikNrAxd5Ny+C1T8tLeOBFwbgF45iAD+fnUgAZXzJLTqme3Skpt3R46tWbWTH1AaK53oSp3eLywhcziVijPuNBgir8xqLOtbEvOpY0LQgQ9u4FyGcroo3doSqgoD3p6pyvl0lEiGO40UyZhlmQd7uMTbTy7Ao3Dd7C97sfrya4yNJAZfU6DTLJSrLOs3Mtbu7m5xGRSIhBd6Fqq3RGzovpNZEbQhf1hELUed3YQl429xI/xlixxhgw3peSpT+7vEQuXp2F2zgS8Wu1QItb3XIQfp2Zb2zkasjvF1je5EM/JJkm00afUQzcYnvC4w0Lzgp1B+kJsnfghzPc1ipejeFB1MCxCRRSOGi+SXOi/LPGwZXs3IU890zcx29yQa+rBG95XnEHgd+UJqFkXDUL48p9tTVcUpd+ldPVExuhrbOAlbj0KbCCim+utRyL4joGFNo51q9XJG9ddxCYDLzpRcxe3HpgnTgdMAb5/+waWhjd0pCBgZbVCNmLc32xkmg+iY41KJN2/N5+nQoHCx8UoG4doZfDPjiCxPXhySH8mQ6ix12V6GwSJH9gjiDthnvOmpwycuSaFmILO5mKfcoe0g2Jyu1rcAdvASK11IHF3bbnFZKAl1CJafK8TxJi6E1chRKjSNVqtSEWIbz+G3cofSWcuoh5tHDrzexM4YLesDY4zSN89uZAkfSUGf1qfrG6JWGS3SK4QvMWqx5BZUdma4gLxpGnOl3VPzNTQeWpOjLIR3NAPw0bhX+wXBmbt7uDjETUaoBbLZuq08ERKHEwhLtX4tYR/uqO28wbtxOMIJZH+jvGyvo4VvFjhuhXkax6XesMuft75VACC4wy734d0mUiVk+DggkVdOs658a4zKa+SwLaneyYJj6LTZYIgeKL7bQXYotLU+Ib0dZodFASdyuJmkhkEkX6RIgCBLvXIodYzD1BFzpCKDOARLdaHXnulIQQACF8DsljoOXsNmRsjF6XFoM8VHTJyIBG0Hh+2PJHpwWUX3LMXFjokPSRLyT5TDV6dEaDzzCFmIWsqoEFGrR6o6jLbrNNFjWMC6Pm+reqnsCCJTt1J7uLx31lSnsF5X5fycZq6wSHc5id6SUDa/hE8OoiAK9qwoSsey7MLrfGq+Wo7ELGcOyD7AJJ8XZNq0shOlZANWPNEs9J4BHNBsmvaj7/wtgP77l2sidRP54EtgPbGoTzwmzr13NkvRDu39UyzggUtrgTLUrBkIafIIKl+QKuKOP7DMvGmLNMBLxGsTxDLM3SjC1w15r3Ibi4cMkQF7ynA1DPIew5TqGY9kL8g6if4t8+o0/GO9Kxr6bD2BvLPhNR1vOO9/wec+BBYc9RmgOLUzGpRQy7+z0qiluXsJcTWRHcb2+hNlus9PJFSIV5Xfh+kCOGMA1H/iS56ZDpy8RaC0uhCf1I7uDXDRwstS4Kj5+oQsKWNNMc+ZudtP1EtAHasfqcgheZmZAUQHj15SBcCcBnn5w1eVh8UnSe/xpIvdKTmh6XqkS3KCq116lWtgSOfdkEog+U8yec1AogrEizUKOoUCgmseeSo3xZirrqCyNruinHWtqVWfHSI5YLX/6Omn2yhSPaBS5NCZnLc9AfXNGU2vuepNX2nhVQoHkJ+o/wBDyhh2mNQ6YA9BQhS7xQ5ireuHalfyfah3UnlcfJOwRHIaBjH6uFtrguUWbOOEeei163rjRWigxG16RMjppPcLOnNmINRyQLBVTqc4t20f6wTh9gUg6qO5boClT2TlqJtwenBY3XwdP9zlsRMaCyj/l7E1Ct2zzTj90Zx54DP2MtEUV8uJKWuAkiLX3f+v3kU5RrQEC4FlKWU4xHEHmq5kvsCYLs3dSOhkoRZjzKbjCLij95YvrqBUM55KlmDoAflCXqZSrRUfA1xnVQg9PG+IwJ6BjBDufqvKsPs2/C3Xbgmt9wKq/XEG5d159rlWANJOyAYjIJVJg+Mop6KTrMvW5WYu8ublQAx3BzGae1SmgbX1IYIovb9jPX07u+cu/pXXUoBupYvlm8Ptfbq+5Rag/vVSOkrIdG6gHO7Hf9zUVz02feIETvQiEWqlhSvnRwM6VxKLDYveRTN/ApjWEa/rkYYhib+DCFyr742gycOOTQzgJehVJQQjvXAhqjBfFV8oXfYtx95NuUbuOCA9kB4orx0a8FZHseBGLiMcd/SunrJcyxMh3kWVJEm7b1oze5C4gzqfztb8R1reqWpdpttiVGnZVOtU8PQEuasAg7Uc0XEt7xtxn3oaqct1Tx+EAGbvAEONqhlu4IiDOGNKDjNOm+PTdsn5ohLIyJv+E5SkXHhmi4lyuaEgx3nEdZeIwiVxbWtvzWt24w2bEBx80iY1TWG2knJ6sPJM6wKke8ehY57AxC1UibC8p7aT2ah0sIlZtmSQ1Yjw122k3ReJs6DMYFdz4IKiablzVt4ao6D+L0PZk2UWXd7122FYBpEFUtkAGK4tKW0PZ3q7cZqMRJf/RDwNckFvyr9YRjhDU29MoRGV3urbBfGYgmOJd4Gu2YMlR86EmRhHFnfbGl+viA/HLGKVHFdtfY+/ymKYYelJAGBTbPSxUdZCtWgSVW4mUDlfulJ9VNM0CbEpIusc8jypnsL/NYrJoJf/4bOZux5XRWMqik9i8bpaTw0JIU//1uk74maGW0+f5Nc90sKsVL/9Zs+CPj00xUkWKkhYok4zu63gw31nAo+SHyZfX40WwhuA7kVXMl60mYavfTuR0lGXKgnWFj34If3B8kFMN7+QqUob7soV6daN3rqexXS9WvJbtxMjo4mkXXRtu7BvHppdFn/qVrAqtcl0PCJFFiMFDpSTVTS3nRq9vx8mWzuKhhcSKUS4jdBwjq8e+3lvbBVUv1NS6E2Sg90cCdA0/yBg4ZMWYAkxufzaXRvRR/btAe0vEp8GbUa5j5fhLngxAnd885N1WZt6+TtXwG2vftSNqSVk8EGP0c0s0xHBiU1+7fzipTzlsYxm33p/jGcz+gJ3rISDI43y8hG0CM/mn6N1utMenCebYV/Nwz8es8BuPHNuM36hbANDNZL+Ziq0nH0pz0gTfVf8uHsJ6/M5V8TA+SxTAdlYIu4Pks/g6j6O/LKzA1504AfcAbmHx7yTeNAOrqA0EuZRzDXtEhdG1YYUuCGh3WuBid555XWdlZKk8crimqoc0ljaBlPH8bJVI7624gQMXvl/b8L90dL23xWEf9o6AZTzYY6vqQS8F2VeVlJULGn2VHryPfjQ+FyUInSNJWoYAkPEzN96wl0JJxfLeOv8xsTakMssg+gIGyAhksAlFHkYHxTXMMQpR+ngafOpdWNqvsGsZgGoyQtKYHwPfYTZaTUJGzZun3PtzrFkAQmfcKvZHs+AXEKsbk3tvzylH3g5xXYvggT2XXog42ngarTSDP0cZEo5q73zu66VStCT1OC9StTM2Uf/ajDCTaug5w7yczIGjTH5ihg324/69+n13suqSP7O0LTN1JbujeGgwEcSG8WJealyPjugoSBG1UgIUPrW9OJmHwyDArFW9o2C57zfe625h/tn0H5ZhPPP/8vmEk9A2/H9tgAMNVJnNHxp7psR2l1sXdfQAtHNL9YVgBiQnsB9S+rfvA3HtIxCdZ3HhArLS83JDM3Ts1KF2+teTlkza6g3Q8zBuipmlKGrcRzumCbsdz+wtKuR/q9eXjp5LffhqAmIixve5lfAO9eFSszdnrHUetiTA/2S/IEpKPIvZqznWmHsrtUkGFbpM367qZCn2VpLVfD728NBNmibXD7OPj95So3rECkqsYfzQScsu4/xcY2OKGOkDKUTx2TDjkWRg3jJ9qNpy8MiM4cGF9XTyENPGJu/neXFFZL1aYBol+wHmmdlnmyAUAYstwiAXXpNEeZwUUvGSp18xmyvnPUR2r4YQtIKvYwUbNCrLQfzOVi0sgV9tMtEe5tI3FOJw/TYUFuetBJiPiBYLzdOmonmAkgmNANtGuUuqh+NWZy1nGMX5Lty6iUQVdOTxnAQKpK0tu55s8G0KmiuWgaDDKXeThxkXFBGavTAZvL8QYtvSkrjyOFRR764OHzoM68+EvZTdIzYXTyMiU6IlRCLuiElAUR5/U1eMUXlESoUVh+UXtDjOydc7x6keZldusYSmVhZ76DVXaBb33uwoocxv/3naXod+SR4MHCK2yNrw248VJg/33kITtDhkB6VaWb/60JReIKZFedH8TtuTI2AptfBAonz8lG7breeSFSGWvGNuuG1lwPURgIer24eU86CPhDED848x6+6+hkYr13ElTpsWnq6vcCP/NhIrSntn82fhXY5/Gp2Tt5ztD4k73fiNCwASgjAaq04whGiKMh/NRzTsWtmXrzurHnx5qZZRUr0n8PFOwt/Eh2B949F6OV4Q9z7Kj9T6LBUtB8jun610+7tYkBS6Xv+9SwYNkXeWFB452IxJFdNaRHBgAAAnbqXmCLLvxNbxcBuL3uUPU5LJzsQZhXqv9ukMJ14iJGcgnDyhiQIv2WhV6JALST3xwWydjis883+nhZrwhOpkBa6OW48O2BF30oayjTVk3z3NNbOXddgfw6KDudafz53hWTrsvcwUm5dBVWnvF0W6J0fpOUZ5yHjk+OTd1QU7nWadQx/Q2ts9vN7znBWIp1j294pSUgmYlge2OYYxGWBhfFA+5vXNB1F+ekmm3WlXWc42kLFQ8sn8cPj7E2UZVamhCAekakwxdBPecdtRpwYCC/5hbnRcYhdpQhyyz9bpgQkUss6ebCO7B9TR+L75F1XPEqUZ2iIJbzJjjPZac5J7TF3oqjw99n/86tMOZfjecoktXpuv4TISqavK46CL4WzolKy1ghJ8MHkZ2fNBAlVCXMI1dIBIPhA/DD/njyAlN694Q9q5IQM8WXNvrvsOM7NkCzSdYNui+noHqmfFyoOiZcglDFCBzYSiPdeDE8ncG5H5ag3bJBXkwIvvWAeaQOF3fNr/DOgcgx1k5fmiVIOncxK9Zm+h+jc/JJ7XSDq53L7tjnJiMAb1unm/o9k96fIsIsgugSDOjk/P2Llwav0BbVpt0zgpTqhFSaGWX0U7IFhmZ/Ybdr7XYJM7eG5tsVhiDRlFRcMT903xe79GJz7GU1NLGPA52ZKF2gU4vyIzAhW5dKcw18TTqdqQU0MTL6ctJ268546L1peIgp+1sLqXYpXxJzaz9elBzcy3CEM8ZenokUlrS+MTts7gspe11HydZcCwB78X9u2+oHCtyNtLLFVdLAs8xo9BNGEEOpk6h4bodQdIW8i+Pe3wgZgE1mTRtjr45DA57/I8/hDk4uKvAaz/B0Pi9sJ/n5J74k22sosst3ea6ZcTQOniU9kWYvUBYVkAukmWls5RlkXEAmDo071SR3kRQ7fj1o+TcPoXFairc2+u8urWV+n772K8Gpr/fKJUAnz+BY5DSn0CFVVGGdokMWAIxI1mdoP+AAEo9+/OmKAIGVtx2SpcdCB30VBtdsmmxS1fnswFrIx9Tl9DBArCBjNlFWm0RVt2JLm/OR00pWo4bXrwkaKsy6DhlRsSfQpj1A/h53TSiLWNLat8j5Nap4rG6YKnIICEbh1zbwOFLnWrGR9rZ7nQAD6RQlWw06xsmpW9T586saD59W/ClgyHnHpLInz3fKT7nSL0Qu7CaFkq28YCpQtpvN/CWep8gltAQYItMKg7Kkiy3Xx+vQxK0WMkGezF+rI8ttOG388OOY190E203cZcmDLIVHBv2Hha34ziecw0Z3Umj64W7UYrOHD2tuBk0FfMyJxThbkcgRM/A72If3iWQ55b7y5AO8nXWESGxpLFLBzdmrR4Lq4P+LfoG2/UOSjsu+gcbIqZnhDt70vfg7vuIR1yJu+CQTyyOpA8F+GCTzbMUVWIQ8lfjI1MANWtPM0DN0mdQsT8/fpp8+IFgsJAaNNqBCrCLq7hc1eN7UmIKSGrgGn6yWn0B6/AiwWDduswh7ZYNdVn0/W3aVaopEPbS86fZm66WEbi0wgW5BIiyWeOeVyEkd1Zvh3mjYBzNLLNfDbWgKr6DEyVBKNqgkRHQUWQKjnea1vMj4b8dQBzigtM5eXbiKc8bb3ELSyyg8Aij/I232LwpOWlxlfccHBd2pBqoEH8NhlrFvkoYuPs7wkdVlh0CGK7engJXy6oGjKZteNP4/E9iBeYWbr23laZ3t3bhPhrWmA35TyKV5SeaIv499wipg9QQnBgYR1eaE+ScNUJEPH/uQRequHH6ZSUDAmIAR/1LlIJyY0I2y9oJZfAZ/QtZrOHFfkGsZBSHq6W9VsuoY5cvsxb0EIGw1RZ3WLBKBnLX5u5dyKuj6t6jgAh1FNli9aaM1UOlCrqW53WsFGDWEDw5rf7L70WjXIqIT+aWgD1EuKaeHYeGp/nFvwcEIC0UcolVbfWQGlwYNf6e22Ck6O2mKP5xVAiw6Sz4MJvIt5HfRmZOv+gnC/5BghIKrDmKILvyOx8kFe4Uaw2DETSbEitUAZL2vVEhlybDaydJZBeOFL0tT4Vt0TZ41T6+tMmyER1q2/Sv2G4uLJVeB00f8Uhykr0NUANssVVXUi+rywTObW9nmaFTHP2qk+Md8szRX0rXMDwepAECnokAAC9RgbGAOiDe94JbryT5MofG++tJ8KWQu3KWrqBnh5dJyaQReXSzCvoJMWWx+pE6mr1J1A8nNRYScOel9Qu2f+88eX1oYjobXSizHE5BXvT6E5Y0D2VmsZo1q9qUHSUjhDmrjxg2X23cT0YqFZNgvr+trwqLf+Z3Wfc4ISFcH+ZQCJv92ixtdA+wvJg+IJ5+/Y3NKLcY5dlDQYxkoOSH6mBDZ77Dll61vf4o+bdg8xFcqYqkqam3c07IzcPfFVoI8FUl6x81Xa/sOeaXxQvi9g7E+QQLDl2JHYEm2ZeOUPV+yasEhxRo8JnZ4+jmdSBW7NISOsB0fcid51HrBOFPToJKptyu6rZgVvt5ABzjc+XgQEOj+nT+PKmvHni+o42Lj4XE3cR9+/k3EZ/C2k2N06HHL+tihH5moeczv8dDIl7Ke4KD/e/a9lMnyr7skjFDAsl7kPvxMredirRhcXHHFB4qa8oMUW6+c6g7ov06DhD1hk33dO//AbzpnHybPYSIP9a8AuSzFIk0rpvxbp+QngyLIWSkoLOYqXTn6iRWR09AQVtPM0nm6EgZ16/FtWuadJ7B4DtenEixfZJ7m+cgrCCTSdZw6vj0Elq0RXMz5d7PJsGTxMcOx0iEZ+ZvGLchBb7SlY2fOOJ3EDee+HkD8f5V9+CPCiYy8A2MaxZTqClpDU7HEoq1j5g8OmM4CckO4fkm0RZJdfbTVzT8qsudLmjoaLbeH4q6+ccUUw7qIeNFdoWSLfkKj3tAH76P6GA/yLUzVDsJchlljmrZC/xv2W+xjpp7xct65vRs9OxuMDz9/s7OOxXd7Sk6g9/61P163ZZT6zUuLAOAFGUt/CDmecTygu1Mz6E5K+IdMKmiKIp+l/t4Da5X1E+u/eZ5NqIalhNFtRFPvndaFEixLNZNs0xj4B+xlO1LCUk/+xquVdW0dZ7J/n6RzBVyQle8fthDOUSczTqhmTc54AhU0iZdxhRs/vIVb+IOxtszmywc4soEPI/RELFvessKbxAAMBvoibE1o6i7WCyKdVYx/vkv36I5HEiZ3Li7FZUwfNfQhdWDGEpqo37YncLs93R6KyvG3MLoaoGzbEGXL2711qSo7oX3qRuwk57eLZT5I+1Sok2aeaXfkyaxqjEcLserD9xdm1dsjGyGZNn+9IVuhFp2nGz41ycZYWoFzptaKfOCt/S8b+4pACqbZGmlbvY74MZfigg2KI3GDQz4dnEkDlFGHkmVggQw6r2WcByCZXmjFEWbI4g81xg6V+YnXMH/4rXeSsxNKLDLL3QvLccZfiAtwTAkSvk/qEZt/gZORGZ2U6tyWPbYv6loCPNJh/eWUA2E3QepPmiQnSyX1TR3H7r2xz0HSSoC+2wVqqX6GLQOAxUHjlnjLy6L3P8kW7QVT8JgTeGP6s01gHYTgo0v0eA1l/EtUyiLqd+PJ+Bpg3SDcFQoPD8I0Yc8EvA1BHasuZs47muofIZILclSSGFySonfVY6Ud7obAb8TPV9DOdlQB1VuJ4S+IxmEz8nDzhjqMIMnJvYJfccQV/b/Q/wNKtIScyg/oKbT0Ta71Fa6zfrD/SSd1o7tNWKC5XFVKsapTlPgvVqPWici50+zQMoaGUqsCG17L9lTE5/CM/eOgGFbqKgegh9qKwiLb31XkJ4l/W7Znu+7CjnehadTtgBvrKjVVGirFgjbdBO6db+IB2VLfOvCrct7aRvRnppszeShWtE2Duf587Nr6C33x6oMZxqDw+tQmdlldSoZBiVzEQVFw3SpP/GOmpsg7gQ01Dpay/VrxggIJuZ1xnwju3CrK92sBES5uk3gzfaDNUQDQukE9kwqugNSHQEZsPDX8U8HlQ16addMAMdruI/XC+HFrRX+82cV3Qg04P5InA4cFVIxkQ1vTWb43ftK7zgiK5wNyq6F13rFGfvUk4Tjt5K5WIrWueM9nW4HMr58BeijZ918oIcz8qNa2JdpUCbmU7dyBhu/2v10xKBBNTXu6XV77cj7OcbjKU26FF7mxWn2WcYM7msSQSEL7JusfCOZQOhJjIgOqaZ4nOA6uZzGIgeKLpxXjhBio6GPsZAtSMfqUNrZ7qlMxGHnkSEbJ5DPVXb7INxXlMZshQht+HsA7G5F/wrfPKL9bFImRo/OVO3uSfVMLtN0EXNqKzobMb5DwwNI6EICmFGCEy0L5FL3SDx3DXqVQhhV5gQ56wCpfnCqRJB8o2hfI5AjV6Jshnc/WGwbCWn7lgWYwvXd9pitdw0jpi3AfyKFsJe5Gtb3ADc+apn8PX3xu8gxz2PVUO7jZXuFwmI0gAVFkPVH1qgqbylhgloaJkWo7h3N9zzPPzHCWUiUe/48TE55nxgrcrC4eS89pov7+/OpfvbSdWOuhHz4IRtydK0/aLymOjF6xPz0QDTUTKZzT/wdGxzjmnBMz6iMNRhiniLPmAiBYqqoOV/l59G0vQb+46bssEs3wHWbJbJ4hCx0A0IzkSXVlm3uBxfSErO4UDxvK2JDwHLSqnQvD1D9/gGmlwssvTQMwNnWZ4d0UI/Ar2yjA2w+AQDMoGyDsUmWA2BgQqtx9QsdDp1JLjvJVJ4vXDa87yrzJKyHC/X2/BVsnSn4ZAG9sRMEuh9ZCKo6AZTEbcAKEINTV8fXVQR0zDj6PW2RojP+3Py+847ASgCN2Fx3mEBpaF3RAbnf2wtRITzY1pLumdeXt2cuJEe535gKz9HqSaW7+nPtdqaS57KDZSykdIswvz2TxPrWWjAWEq/k7JZHIGyn+Rtwk4io/JHgh7kjgk7i6b25eoHJPI5JiFbwfOxqkMVvZztO9xVZ5MP1l4seQoDyS9tn6tMIcs1DAqj9KeDOvwLD80t9lAWkKG8xb+T3qGXacADMZB23bBV8X7C6fFY50IizbTVXH+U9TXzBufdGPqr+QrECagJTXP0zy8vzkXssXKjhsRn0679H1H+tI7nUWAXYgR4Gz4jTBLTs2aK1DXctc2MRuc81i/CYNEezV3hfXh8VzXnxxTj8Mp5A8soHSvEMok5rAdfn4WhvmRMCmj2oSG9r+1t0DhfTiks0dj53M0158kYD7gqA3WyI1sb4zI/2SDycD2+TJT3mnBkO73Tp1LAQjDDy3+eUfPqbf1bLMawXF7dsLHubVvPl6zhNXv5xi9KnZwys8dwtOqaYE8MKjE0oKbb7UE9WB+cDZyM3hrIdduGSOzNHaFD2CwHc6Nvn6TKkI0CORzzO9A3131E6isYZoaqfndPhNPPWNk0/Wor+9kElXT/hhq1JNqP9F0zDX194dwz49Cy+WNrQU9LNlubfvNnka1W2vPcXhaf8sfjaaA4XdHkbC+pkF3LzFdv9SgtJFdeqBLtt+KbFkKsi+Y+/wqp7wxQ/xrnuakJrrdBnR46vOY3bFQLADBPQERfVyI2dS+TfMHBSM6ofpz8KlzE4GGFXcXJwwK2jhwEHQ86VEe1Gf0AnsVh5/shgBDxudDkUiJMJglnTbbhxF6AHdkm9DZINr8E1Z0VA1LabNU6f9wWO3cSyLEP4TO+69Dsou5ovmO9is3Oa1lZLlBwPPIYhv+gmYT3ocCEp9YsgtzeulNTP9bGUoosHgnWpd+kfWCbnXqW4a6ejwOzzhHGUyqmtafK9PEBtAcIMMIrD1JxXpMYjPlbhXAKaNbtdP+mr0GROBzDYggVezmUohbLaibDQXmX7DKjkavRXLSlgPMbdRBVNdIx9egK7s7nL/Sr5wYQJDIPMpDT3Q5M1c1Ra8WIbEIf3YqBTqeG908agjU1b9G+uINc17xTgApL2hppidprmMaOVoHoN9bFcxmw1eWomAvCK+bwGpWEJ+yGdCLj3X06O5oWaNKdJsBLhN0KnD/rnsACXKyEXtpgLQQegER4KnOgGno0tJb+t9dhmnsFRMFzCvQWUD1M8Ly/8yamZFXBzoI/cGS5I37u4W1Bim/XGsj82QmRu8mQBSzTGoCHrrgKxVCAeNi6qddcQkhwMafnV5T4Ce13PvZI+Ke3hph04u0+1/Dn4NLVBOfhC6ZAtUqwSJedQPcmBK/G3vTzGHnYKG8bfvTK7ER8Is+XG0bdCYFcPHu75MKomyZ3TCfs74QoT98lrX/BaWYHR8BwBI78maGFwoqMLNxp0puZxIfYrjAOwj3cybUm3cDMXeEPJ4iOaDMrOHL14rnGClEn6lb0r9W91eIfFP3luYWoITag61rkOR8Gm6LZpA6nlV2Y07ZRbZqmtDiPKj7xamfvwxc8zQWLH4au+36+LKIlNCyiB+hGfyb254LmxX3uM1QlsHvYbUS1sUTqkH8mWXNDV1Ofz4i9ZFws0NFasFxA19e4F6/xgpjkjRDI5G7nmyBXrExDsC78lpZJ2wgpHhLmSubFcDdLjOCVOVK0a4IPaZZLUR+dW90eUZlDoxAjKazHyOsmcw4ieVrLZQR/Ou2UibyH+xJdNf9dw2tNR8SYleIwI4GKRQ/RN67oJMsEdnmVaibj5o4RaMvZfYftWvbXh+PBttfG85mlGIuZxPpXIfF0bkaXlIC4CJpRw6kIPlguTDn/5PbeBUV/Z8oZ0i3nI8OlVoRGPxEJ5uY0t9ISHxUnvrSHvEN2FvyrZRJWpHNu3r4u1CKekVjvYGpljQGUJPKA0dL5DGb55E4htoSwY62j8wSKiGYz9i+87smgr04HyDdY6etwlrmn37fIk0oP2hqGZxPsvubghvsqU0Zu5nF1Dzk644aYmOA6UY5GVBiM1xRLYhq6fn41HXPvkaaufj+EkG5lYD17+WeCTINcVzSZjbtK27Twz8qen+ofyuHvtzY46L78UCbIQ3AIo4rmtiWP65mj6Y95sw7bMgRmBttan8J779m2URWq2ba3Nh521QM0EHsHzpE8FSdTfbFX//zTHtTzJw+Bk9es/V4akugE/DsQoN4RSGyvClrPjmU16wGBLO6xKUtxBQuaQqkxX0JO9v8SBivgdPVpIgkVXH5yiy+9UAZJwiMxWLJNeR75HWqgXUTwxXoPA+dJhfZ3ZBDfPkGbPbCZsAO/v3UbVv4DVx/1m9beVqJkeqPwOA0vkKiUmvv8yhvLWX0OQIs9w0BFdncZzrIhWY12MtC3v5vESzng56bUbyBjDvbc5sbYC1Kj8qw8MKWdLePmUhoK968GJlHbs9MaeqPhRcXAo8H8Bxfc+C35Lkk5Sudr28tPa0j+1NBB6lC9eojM13tlLZq7yLzwXmuLzBoz3DebhAN72Z4viXVhplgDj1/COz9DAIsZeziT0WzVOFhx9irSUmwfqBikCDHvcoGq/754SbTehk9vSXc5ULpPPz6aCbMjymGKewpFo18Xnxb+zAA7oGfL+HFkM6C0207JiEMvwvmbQ28R/83eJCXcmW8pHuohmfbjcesf/kyWkPCQm5IrqdejzT8zJv7/MqQn9PxlCkQkGICBsRLRsOZBmnITZinWsmYa8ntAAzsYeLOypRMtoJDbWyhTNAPWzrRLz7siWxKkvowKU15KfRKI8Pq72RCoW8/8TQQ+MW8PegTag1rgQBHO15YV1S+tWNMMnPD5DKTqNXKLjCkhRyJGLKEJF5ekelcYIUPXmy8JCoby9YomMiuQDRy5AvGr1RJk8juyfNPi7+YvGfvOlD2VRqhmI7hq6ztljUxlQeHoKmRxJaXZCc86M+nTWXVTlm++DPosPWnFFzEx9Xp7FxAQ2tWDTTeAvH2djh2ayJZkB/7rNG4hDE2Ns0YB6wwP8P7bAPm5eWsne1AEmhgX7KeweQihqLm5xj4MW63OqjYRpikKfBoJ+EHUwV0y1GSuMpnqV4gcnLWICLi7M48NNZ3pX+9iSOjQBeSP484kRF91cIlfd54j4UbuExLBvZ+nf17vogQk5skiI3SwFXK0QYbaCXo/51DF5UBc+jPIBBIAnJZJe0maoOZJpnKByv3oMU065U9xHEKmzNZ5+mtwc0f5G1UJb1Olto+DQJgEqMOOds+FJ4oQt3R4kDW7R/NPm+yuNhpJq4//fvp19iZO4OlIv2Juwj3cc2musYR7RKjMqc4ywhwOz4Ytt4z2hhVid0AhIr8cafsIgq5y5UZU64YNTJCTQlATcm58UZr58RD0G8mpTkWNc931WgBKvpkoyHNtzuP/8jhHGUFRQg75s6YZDWq/AqW2TQ0AYtnJMcEQoKaAfkMHAboxyco68sfhhwQbHopNASb1tmr58EH91+z85kmjuAtpo7giEuHQ1+iaOxVpNIAW0FZ17pLPM412uKisefPPzfM1NiCIY2pv1sN3HimmuI1R2uC6S2CVB6HXdVkpFfuKBZZoCN4M/MwQj7sWYx1iZp6tSyNQkuZlz8ZjnClftHhA0KJ5CcNkYQ0W51XvqkYyEIzjSeWGodbwkQSiWQKgG9V+WTj15ECjkfVKIBlMYUUq7uhljAdq8GchTMbvTgMvjlET5fH5P8WqF6t8W4b5I22RrUsjReV3xgZDEFTqW5edNBPjyQz5jTFSEEk8ph4h2zRNR0yIqb91jdt3eUtjrVnlZyI+BWwhweOimRkfopDH708ZM3dXV6pbxQRSwestElrsG5EuBhCm7PVcbybhnYb9ndCJ+YgLPLqEz+k6FarK8g2Hie8Vfiq/L4OMSJR2ZDN0zSLZaBiF8axZkPJuDY3Dvt5d/YxITdcQMhmkTM0RoeYlzlbmHWoipIzGUXOCaOpziJw2yaNXzNEwjgtmzvCHGtxuKr8w9LfkjyXriuqYjy5iZ8+zreoevAoYzKDHJA4AdeC2H0AANectnSRQ4JMM7ZTo44iknfXy+r+IFxjZHFv3ArAFSr7IBx0a8kdkCr2TZJByoZK2rPNbuSZ4A2Cgei6ek+3uXaaCD/uQ8RVQuHjJWzsphVtkAqZDfBJdzdIRH1SD0u2vyHH3ZzunT8kH5h3b+EJSyb9k5W6hgMwHgnIskgWiqCcS3kIdQEjyQJPWzvZY88vi7O628ACn4HTylLHwEmwzNny4Aq9eubXPbm3xHOrCilWPbMYrDgmlJwABGu5Q4SNClSOLls7G+/NKcZGAqsdqu6wlXEM8oCtW/YV4dCBq79saGGEQcPJrQVQxhFKsA6+xrfrwrGa0vBwOMoiUhfeyAOV/RJt1Ixx96RMh4QizcJbzKoqfKikkKUrieUARwIdCJlcTOtwJ6RBWYB5n1q7c+LHCkijtMJWdf6/K5EbKOafC4dKZm/vvcvkNXZmJ7jmVN/As/Uh74rzpsm6AVmAWwajzpJpCA8htuOOLGNxNK6Tq6Amla9f7HT+YtZlwXPat6jATCy4Jy/fhVIMsBfBcddwJ0HXrzQA5VJiYIOtvvar0bJLluf1uNJ9BWmCgw/BDw2H/i6ABdrNBwMKKYOVNwxXbzUPc7U+5ULEvGkXHUeuYPiJVN8wytYK9TI8vajQ8ZM8PYCBHjoNwZJ2bgDG0iEf8Pp+tFWfjIce8RAwsLvOhLrB82lGyOwKefpeBiND/LoIQ7/JkRdlY5xphKGF+3Pw+0qL2P4Xf1i+9/4NnfqFoQlZOOi3pi2avcAklD1Rjan/9CA8nEivk97kuOOu66ipkFTwtL97JKCNWGaksmhuyv4Cmyvjunjsnm622jqLyOEccYrgmnLRmkasq7Dj6FuMy+46NZuFIS0GJ2wmEKFp6Hhhe05/Zg5UbtD1TbslGml53YtKf6uxY66/GHw9hnwWYVtoC8GMFfpv7nYtMWf3J3UteKIfxfUDCg0nYM0thXowDmYFP1hDSYG6FJ8Ckv84mZI5daLMAaohqhccmrChbsB09gBSqGzVpDwUvj9eD9BrQsNVE5EiMHxWRzg21TB5+NBvpkDfvds0gm2FDrOArBadqp9YnQGbMRBlbcQYuuN0CnPHRGhStl9QrMn/4GaslSAM+Jv56uqoWufyK1AAb33t5K2P0OYZj+K6FPxS6uNtClgRLYMNfscbF2CQ6LXoHuWV39uYNKZ478M/iLD8V2zz+93lqWyLw3tMH1GHPx1I1HTwlm41l1nSb3TF0GL95+rLyBR9sZcXKzpTRQyL1YSBM8p6INF7J9UA5177vD3aSpukyuH/Jd13Q3ZCCWRc72HLRdDWYoPKhwJUOc/nlu4MJdT3h9oeuMNpIPMIP64apoGdLg5WX7YYYI4cdFNKhHJVOmGrkWhlsp1Nn3XHL4soHtufrDRdPL9nbO8wkzBpt74ql/K/ugZH3HIVBG+PFiNYFQeV62sbnV4DdCUAG+3NCTAhiGicNAeK3HfEokCt87nIeJa5/hk8UTnpBaf/smtqpM2jHNTLB017+9sJRJs/itU1tJ+czLIf6++9XlzrN71naeij+GN3HZDDxu3YeHu5i9bZtj7UgH0wbsFt5odtx7jiAD+jUszKsZZFtCMKpFsQbYtS26YZI4tjZAkpYthtZbXH6khQr8JcjHzwTmmT7uo3ThanmYzZKGEI64O4JNY4MylRPbNojr0/9pR8oI1rxBjcniTXQx5gI8TB4RhMN4JdwM1oADf+J5dEwiktN3e4d4KwUR7x8/SEeKVZingH/C7bi/8wxin6hIwpFO68l2g+Q4cuNZMOXt+DqG01e2usF0eAhNz/tg3PYtpHUiKNE79rupU/RWtIrcJl1gTPkXjHcKJ3vVxNgm6Z16BL5me/k7pSkbLRFW4ISBLLbM3Gjy/RV6/+yRI+gSyo3ZDgff0CGHbYSyQVB+v6+Fd2caYvD6TLSlaAjrtam0jzvJuH4Ha3ZDtC3+q5seehsdcfRai4nC/kd5DGPlnrDXfaLV7ag9+98ZPFAKEqObDz2RIgVd079LIGK6nGTkfgDXuSmFj5u5foH0Q3yKYU7CyquhDYCWalsD3fPWUcx2t68r6QlqxQ2F7EbU9KlIGGoWEZZmv2xRIQ109lJ9rwHqvvc+BLuGPCJq50R6NOvaorRbyZJnB7T67vm/gPb8OTi/L/2+WyYcS6vfrWOq2KN4yQD4jaE95CA5pkrwLwkhNIsMUecL1dLcjjpY0bFlfdJZwDMX9+TaO342uXkYWDN0H61UFkTzrN63z/7J/ypuq/iKoAVx82TKVTR9yN8npaqa5xPDBqHlLH4fLOPLIBmM1UTeaMAKV/pDVG6qkHgXN6MWguARkjLCX/zOlsbvqMEqkxs+wg6qvYZ4MefDSf07SNOzg8e+yCukfmKj4Xb2+aZ/3EJNWVjGwbrp8hNEAyDmlLedZyOjk8wlxc1Nt7p9bxE9CMOiYFQj4bVowv6cuHjIzBsjADqLwePEq5IsKhit+PgVfHhqaQ7ySWVurJECoQjFyQm0moEnAjtLsLd1Wv4tYpT7KvBWg2ulr+8jw81enSyojNWWv7W+tiHXUNVPS+eIz0F0W5WjBt6Gd1k50O4VU9/JnLhd/wcXtlT0s+7TySstCrIy93SmZzpln7tjKlbluTr8vXjardDAEaHzYl33iJ4E4AGkUksDNDKkD79zhM5GzJ+rt2wCkInUThjwUCLOFq/EA5nBaL3hv/E3h3SIHSxysPpD0oUtbbKnWGgOaxzXuwtBFGKZW2nhnA4aWZJ20cPaYtWCoUk+nM7yn88k4ZqSzJqUtWpS7DSJqOAamfpn5SK5AT2O68Z+4Wi6yST7qx06astdZljs1mtTNVYHdSGBktMnlQdowyTt6pROLTM5tdhxLBQGG7zaLyfzW8BLIxM0ke07rBQIl3D8euAzRjzSe0qRk2hmSigrZdy5OhLGKJ/Rj+zYvEPzAxOA2YP+ACrYoIl480sOnC9+g5fQDX9G2hw2e3/6EQf4xARkNbzkAVAszBxxYmrMpMsYTDLni0Jop1rRYnviBkFjOq9LCBKkXDWxeDOC+4GzxpgTFyOCX6TMM3ohYsy48bv9R2TAHX0TAo+1az4ZnlOthRohn5Hw5Mr+L998cUXW8+X3R+3ZSAAj6a6sstM81wqQJlqL0tQtjoX3bkulbr9pVOHRS3fogJvQot3RoiSBWKln7NmsQd2LWGnZPBQ5e6GM1AOk8Uk0S9TuHQNsWeCa2BN+hukQd4LqjjazXuLQtqYcTTcS+Mt+rjaOjTQXYXxN8R0X5RspSkke6gmiP63c7Uj6FcRDDJFYmlpBKVLksIe0hil+KsWHtBG0zEGsHEFDo7MQwwa/Q0joLubqR5mfXq02mzL62Vqo6bYVnCCcbgo15qPQPv9KnRpo+QM9tluHyN8qTXbcjKrmI0vvGmZE6YFUXuiqrLGduh9//Fhlf4yB48IDR6/Cu06aCAiwR9WntQ/FaAMzW9DBKxiP7lHixNmLKowERl/dPuNBrRhc3NYqkJxoizWv3tc/z3EOPH49bfCZcAH+1fUnruMNgC0kKd+F3jjDRAKYQFCqyK3tOQv+SAYRQdmhrivGGWSW0wVp/VG008cJRk7kvj6n3xvThdeSTnvwOK3L41+E4s7LctJZVUCA+vpFThkazT95UWYNDyywyTPk6HdBLahq1tzM4QRC5q2dH9DEYRB4IHsHXbmscRKQLDyNcRBQAmdAJEKAFm9SjyR9v7myLXNqF8RKMHMEYEiLjwC2EQo9Q2vp163/TW/cJY81a7Wbtz8jr5ZRzjYXQIml6tFYmgLNV7TW/WgaeL3pUfY7Dl8goUqYoE2xN/sWOlucOoI3eNk+BVq/qU5ST+5cdb4f4vD6DPsM57QW9epIThMqEEsst9My36AcqtwTbtbA7ZjWTAn0dvz7FoJoZLx6i4OHCkmZlKfQHkXTCdf0ZWqSMCXQyJ+Tucj3FhCLkK9qb6Lm3FdIAzoWcFobQwwqOxrx78y9SSQbImXQri88CU73Ivb2QaV6dcAqvgcLq+REleY5JYCWT8N/1boSwiZLPhfBZ82DyWmSM3rS4Ja4d0OG5d7IRxs6vaYSfGAEV0ySu4E8tY4ZwWMg0zR0VgAA8YADS1J4aXlA/Cz+47UQux7DB13iyJD/+oI0OuiwMgvxyiSNJPbPC6VxpXNlpyREZbzXZsIEqPIuhDRE7Nx5MZncuFXSQTf9pii7m2gU8XdOPGuemIiHBWd1uVgCoZGTiKcspUO89NLSg21IF7aRQ9FJSTlPK9k3RRoD0+g6hkdBjxVJTEDeT5Z7w3t7VDpkSPXFO0NfkeKG/1994AhhtHHSXlg92IxwEZ3HqMFX2qyllYLRmLMeYVteBvim99FPsduUf07jRx+oarY3KUYk5ANVn7NSmqFAyGEhin577MtSr1DRr6B7nnx0tAzdiEF0jokLV0PExg7ryu7p9ISoxRBmkj0HZd6Xbr4bou2RBINjhtVu9GWqSJmAWxx3baVVkUwSka1emGcRBGCwGoCeUsH1MnOxZr8VpxCrtnpI1ApKMvCf2EWEx2M1o0kCy9I08LkjLIH5awOAH9eGzK0c2iA84uM/fV49NyL5wIWVHBOjE7Kh7gpx5LqOgE2MiDau03xwLrisobmPiUgxvI6BmfFJNoX2eWMk2E0FsrOOUe5WQC0FME141E6UJp4QBZjHAbzvxgqVqnV7uGzf/IGaH8+7vwVoa8VXSR8HoYW98d1UTjMpZpH4YenBxc36sla2k8bIy1AffVreZuudxwbiqNiyzQd0+R/HgGq141yO99GYOcV6qdgXJa0LV3thlekG7u5FYglmWsPwhk1qX0AuitJMDncQZroDpr7agL3kzNWEhPtkmrqutgxVM/+1hZDxAeO0T8JWkVtjmNwMCnUowC+U8SvjajmWmSmn5lw3L+iC2IUddh0Zwfuk0G4+D9p5QQH0zthc6xIHCa3GVejXy7sM1zUd8Y+3EGFkBpw4zqHIKr2WRgddHgwEZ9g76b/p0MAmg3vcsVK4FZuMJ0TiveIX1Oq3bWGueldhKD6wfs5+s2OOvU8L73Obphm7jOaUCWX8VlRuFILi4q/qFO3EXHRcPA0rI6brv/M1hqYn3SINu4AIxf9KV5yZxm59pxW4rsBsV/jGAsZJ6bXXTGm4/Te/Hq2hNtZNbSXhoZ4F5b7jrFd4sW3sUnyxFJm/1A6U8nkYjogwo1wtksNAgZtm/wqQjphCHHt6x5cfXsrWmFnDS4ECTKvzXeuP/8Cu4QIy0kioujlB/33Mv+sRQGUAt0QBLv5omHSSoxng28rZcnXZArFOHQd5gC3F8f+GJMlBgiWiplDQa+CD37aLZrcrZwW0neKW8ZXvpJWLBwYcN79kDB1qb7yG+zQ+11/6M7WIL/M9GE/vV4MSAO+Agy3k713Ij3Y0TzJYG6gXiu21myWGUFomFFr38T3D3Z82E/HHjgCu+SJ9+Q3j/iijEGsrR32/ufjc/cR8XxUlibVrH/a6ojGNXFA+1+xXn97wXg+Vuk+SDMmCiATQuOUgb65YBHoVhdu/Rlc5K+vLGWF8TWULE5OYeglx8skTfZ2/GgJKuDBzl8RhSuz9nWa5fmPfT8nMaTU2KTvg/h6JKpElskZuLM+qn1auf5p1MzWqfCmGgA8g+yPFgxyln1gRDs7UlUQAhyCJ4NVMlP/0SjtIozsU5uXNy0rYL90JcA7nRZsT5YqaEBjvqJwVIb1N/8Vag2pytiyB8/aNA+ly6pe7WUhs62nHUXARdYjTtrZEAJBmAq6YGmEeNYy7foxqdU05e78sWe3y0liWXGtEDGpwzakHaJ7yHwEcBe2urO2vScBjSAKAYrxO1/j0CeFqp+I9MfznncupHuvj76lXQTRVxDtqYzgzyfx/QFTr22aDCkHaYhkrjPIkq36Sr0++x2Qh6JiinYQuoWDRYxBmZC31nIKwr7UTQbEceNI3AbvdvKJ5URbWI/eVtbn4LeFKw95riCbfFHmPJR3TJHr97NcJRV0XHnK+hpWURbhi0cAdv5f8jMrC7nkaQrP09TD1K+ff8SctOD1OWmjOtOFS5bJF6ovqXOjTQpKDpHDgf0gMsN2JUj2OSkAeAkvWS+tOjyLbNcLTbZaFRIhFLQpdUnvzRV84tOHsNjSbjKi2OX3Ux5IZ4Fc1LTjyDuPoXoMizefeIvVf4DLT9KX7HckGbQsrslNKySC26d2uwdDBDmqgIQQZROBn/PTBkCzQDYwlh29jr47K/s5FnUj6oG2eA1108YBh9nIfpV+YQyIBt/u58JKOzeN/iz1kIL285t+pTYslB4ipgiXaV8/x40HgBKfcJcx72rYOJObDpiYIhj4Wm4NVc1ptNCVkn7kwOX2NMMY1WV4qyr9E8vyoWU2jqLCzsC9ZHSrBYhCjEg91L9FoCwNWoc4Xb4tcBxPxsKCwDUCCaM2GI/Mqe9Ln5p9kGAwMenNZ8nyOwoxgAllqiBzJah9bOqTqG/J6xGxo6IehkSnQO1OX/+L97HHaTHHF60NdUsQoLsI319mrf6KFQBmitkPNiASzGEUhOiUAflrNpQrATRj3rdEg2OZECaBl9QWXnsPVges31LprUuRQ6LErZBZHwKaYBb0IEiFGRmXoW3naNdqwuySLG0ibxgvJ4/FFcTwOorm5zYTZsVd69bOA59i5zkAAATYSPe94N9mHt5Jev3YpQsyjw3wgypjDQzwZTLBeChmmqQFd1lQsWs2rK7MlYaiVzjVWwCe2xbshtGsxxL0AuWGo2e58K7Dd9VNTSeT1qSRIN4IibVgXkqcSYbn+VSZeHOzUexBhayS55kvzeMQFf8ByM/EUZfq3+4yD8Bwby9MyCSVhEvB8Cefc3W3o4qqBURlnT/dfuYqyE07MDbP4bC1EuqD+ZnBT6s986oJP1VuhoR0RkpVlGOgd+1MU3aQguEumwlmQGSjViO3wag09l9kDEDVDn+hTlxTL8xWn6GgaboVKrNzB0HaymajfwuhTVjUD/NR+I8i243Kx0eqH7OFfHJpcqg9JHhlrZNaLid3XftJji5ZhSv2zaWS1UmxTF0xFXuk+PRh4gQwmGP79eTUrHNj5HH51Msp5a5rkbRdHQqgLekovsb2gFJDhJsWmumQOZOG8ZBWM4Y+rZmX2gplHtELkbtaYXzlErLFgJYCS68+HFSwEJnSj2B8zTE/Lpjz4+ejW5pja10AGaPkwx3S9EBz5HhyNsVP3w2PWl87/dToJKrZDfaWs6rlmcQycp7CDzW34p1lW1As9yvjztdTAFVA1hMMKcumXJ+ieWiWE01hAPeMtpeqxFHRBjyQIPJoAEsKGZlUnI9cqstfKiCsVg4elG0FInx2PT6wwsxKlcXHWNoIpkk3kptr2s++/8wz+coOWKX6uvs1IsCMgABtCrEoq0He7RalXVSQnkjf6quYhy+9QMmSwdmDr2LSmVdYZyvWaTw5siqCTrFY2Ag36ZwgR37k4o3fGVcj4vTyHFiXyjRICaFQsHtfKcbjiC7oXodaTx09nZhYn7SPsgeDhEpvn5EAXlY0zsLWemCZZ1wCRB8DwQASiaHinudLLRMlQmSlha0RqYiDteq4VUmkEWn82gOI0GPv30Yzdxln/7WvXJyIArIp03rvcOEJ2ZQy5fBPz4GgJRrK0E7jdOu3booZcZ6M2F/riRd5ZnCTziK3p/PUsINRoqfn4J2IwkBwcVqfj26dP9gSexQAAZy1ryMoB5ubLngU3GEGj7yICzpmsIYfzrr+Rg2Vm+AFIU4fyr8eDjt3hnlERoWwSGQwPDiDO7BveF1npdS4SGO8JSsFKcuJdBq6KxfB6hM89Ev4ZVj1amC4rYQW3D+wN1XdzMFpJGGs8DSDN9OY5N7XTNFhV9rrlWS7q/bErlUqIoKNtQ/3yqBjowu10L4O+aMz6jO5R8r5ADsmRCrGXqT8j10dpMjnt9JJ7331ksRJDiWa8U5hp5aD9fkbFzmBsCZFU5tPQ6ddfLiBgfZ81UTwPJiAc/b4dcXhZ4X9r5467Wfr+e/4+pTUwLg4ZKWqtncUEVyRwNS3hAvh/GY+QiDzf34JLW/He0pEk9PrHy+eFCfftDtDNlZU4gKmFyLsl9imvtsE+fMTOaN5vv5M7ydTc4FYrEnGaogKAUTES27DYEXLnEPLaJpEKdQOsIGlLdbngYQA91IkXF3b7pp5MID5PYXxkHNZAe/JfCiBZgWp22An1ah5d/EGyzyN71sRVnx0lpt+91e75B74VFAYPYFY4zVhZCiGKadDn0pkNFcnuKf00UXaL5MbbNNla4g+DmIakkcWbKC7tRe4DD69bZSPBL7M5Ehong9X0aq65WAkXD2BKizscXWrlHP6JfaNEiHpawiXefa89+d90DrSQNBO3aY1RPw8r5PBlOSy96t3clrTkvCNrksWWt7Wsout9gFMzwG7830rR3XToAUeFA6FtSkG5tydE9BNrmmZoglb7r6h9gXh+ph59fLVJhxLH/03AfB5IzjDp824+1nULlE7x0OxcS3y1kFC3J7J7VcSQXmfvNr6rxN39o3/Q78MtKuCPPUrYjptyZJa7zHOpkq25Y01z0tPY46sP8+Wh9XY88rLZsFsOxFO2Yv+APelewjIQCYnfnOePL7ac7oW5qqi6nOOoFljfZyTdbYR807Qa/VEFeOVHhCtG7tQ1EiWHY264y/4JI/bElTjnn1Qsud83rE4GkYykRMSj+H4hCwkKiNn4jfvS1EyMFlujSZrjEurjZ/t53CuidKpeC0mGGLLIldXRdXT7Gxpzwus1ACIuioTr8qGgfNiyQWKIVsMumSEqFYQfowwWvwpcSogdY+zN30fZOmQZB7wM7Y2mQabr+/+bqG+10p0IfuXSmuA4+vg2uklo1B1KVeFnwLyyNmZvJZlppLqQoMjM09kwW8HwTEVpjvdwvuhzTLTQOU6JhxaQ1Pt3t9zAwegnq55UJtbQlnKJS/7tuYwuwGgMC5Oddm986DOdIO5QJiHUUsZhbpFXKH0YWR3C5Bci+cgUgFrrlW1xebsCu72XHTKQgIuh3Q1elSZ9/MmDYHGqdPZgkrqsCNL+OjWTS2yUWqCkS5SfnTn2IgXavUmt5MIDg9ibFCqz5hl21oXEzhEmg4bUBKyXSs+3cYDzPe2PizGZyj4ni/lJoKeVA5QVjS8ZdgNyvrH2hHwQWBD5JEkzShRiV18rxcofuXQylz7kRHFtNDsREAb1fRPxESD8H70QQXAMnsIHyqVE1iyS+RIuVcsJUdA1scfyIItDucytsB3kgbFnENyl3eqylenlB+meqBvBxEy+ASN8x1RRIe9Kx3AARuIdTZOuRrdq7pw/R0xeeIHE9qxgpbM0WVKonJY2d2riLG7ZUYZVUgbMvJk4Aa5aGKnzeBS7GB4q7GQDxaQUKIxQSi2ULvJt+I+g1GbQD8plhsjv3NdlnTMnm+HJdjTYN69lsxgSUtqmNUpkexEmKETTH1HXWAgJUXKBCydcuuoj7FYpcrq7RiMVI/IJ/lWkyyVS2XNiWtW241Cyw3sgsB0mFYDvxyUw97nmWDOIyr33xAuzYJeJ7kMmXSZC89yge/Zgvb0yTiScDR3A7U8KAZS2PeaB2C3NyNGSLU/wx3qV6NWclSzh0p6HcuMiqoZZKmUGMvtXPMKlkRjDHme+Ib0lPwEhTLVyDMRmIRQIczCoiFOReOq5yFVHpUSUMRaX/ZfLnlLRbh/c7nLyRrh+bx2eDk4eZFWQ3w8CZOOFTRoABTPaT/6avVihLqzj7br7+k2p8hpElZ40fM6JuIXGuoezsewW/I1VuzrVlBaG3w8XrDRsdgoI+2P3TFdW7e6vV3qfzpGF0MbJ28f5DB61WrHmaeYxcLVKItBP2ezzU5MIj2y5cRN4r8ABDaNHw64aPKFgw4vqb+7HQB22PUX/JyqSH1Bt2BpNcLUIdZ3w8pWDZA2eaI2uVB3gCKN9J6JSeYdcmQvR3PFA1kTdLck/EwFzGzfSqsv13fSmNoNmOuFBFRhHV6WPe6d1M23+SjWYCNPo4A3lNRd8yx8uNiOOXstsfDLGS2tvzPff14fM2oPz5C4rUw1MdzNCV2v15n/5vQs4WJGBiXVGUKbpp+60ZMX+PWc69csqnayry2ydzSkEBxnkwBrLf/5SUzIz+X8OqPOmqH7W/n8toRGS/Xq9B31FZYZuYGtRTpmcdlGoyjMszYWpcHW2Y/qlwqorHEIBmN2w1Ph4+HuoKl05bQvPvOHzFJ3lzQ+AbPDJoKjs42qPn4fV7z6XiYGyu8JEXKFUq+N64zbGuHMzcogYvc4UZ8D25Q0eae8nsTSQfELI8XZ016h013dCuWWk/X8q1gaOtTCH1HU7z4nSzXudhkqcZgDkKjPE9DUaS0YmghcwZh7+Ubm+SIbGaScMkw2A7JnLLB0mL1HpEwmie/17s1mO9FiWKqxvVWALGFaAd/9tjGyNUvu2NUruaij8tI78zTvu/VgWi4HNdiFgqS88UrwCrbpmz8W83jJP9btIOySwkZAWYKvPksMpQ7NZxnqScIaKwRIMCMfNTWshqHUro9xY7SeJuJVzlhBeUPdyt2R2Yn2RwuabX8AwKETB63PxcHl9YVEy0i5ot/jfRGHtdSlRtxUywTlTDGEsd8asdpLheOokTn53t6CiNlWIIl97tJNBb3edyvtotVKkboEaiJPiI77ItTbU6vZKypGhPVMOMweyUzzoNqk/d9XcOdQap1RwKIBKfNKE8IzKvqujNscn22nBf9BGUCEVWlMkDz6AzYlq7WKIOiiAbtyT942n9AckNmnHpOCRzFnpdZJDzzu7zhnXfIjKojc5MVpSaoVEPGk/MsT5fSjxoCFsnABk1mOAVU6EW/pm61KS6beEFS2GCL+3Lie4Ebs7fHM9h6+CON8JZLdIhNPKryu5F4NB8PNItdJlTK3N2AACnko58cpTA6HNqHFeiC1HlK3VHJOe9UV/FAAOFo9GO1UQhzf8BfNyjNDaz9fAT7nW7m+8YbhrAUNtZ+6C00TdtCo3KvTgvvmpl3lU1rCEL8XGYVwzXCaEsT+NSQZdj3tYJSPOX38KlDOPLm1ChHJCdjm8b2M0G4Gty+bAXVow3G9C5dI7eVIPixIqQSYVaPi+Z6UcknJromHxj6w+5cOdVbkKEU7qk9AOA58h226xUAaNE5Ny0HsV3n6Hl/g8Bd7hktMmRRUwNa5i39j+bjP2IqpEWZaK9jyaMXuNIW29iC4mOvM4cvZXhrLVBQ1yZdj1AmgoH84EWnfhtN5yldKJ1N3WtFxmOeI1FHq1bQcrJZFpSuVp4Owq07Q1c42ZaktXucifGepAsFf53fwQAg+gA0KtJKyeUbEgQxoPajgj4ys5n8uRwCgIgQRkWZEXiMrRyVSTRqdh9xesILgnF7+ntmgMe5b2Yw35sae30AAQ5wODh00Zo/qxbspkD61fzRJZ35rWEVlMOkd02i8VBerIbJIu1PCNBep6vGnw3NcLqlB9sYjUR8qGnHQKPZLHlFicwwN/cgR++BLBPSD18pvsoJ6kxPXVygPzxyrR9C29qncUPPJm1qtUbP15eTp9TRYAAAZe6KKLFiVcnahoOinHLWiza06Xi9rpdxcn5W1oRq96dMPVAAtor3VZzgwc/JDIR3ch32Fc/aFz+b+1EQ4yw7AR+GjUb9mrZnP00jyqgpzkXLHtlZNlClhjPc0MU/TIkE59ti+kPuTuU1Ri8PQADh8ElXb3OvgCJP+yEd9HqCDlsxic76rdlx0+cXLVdSwV6FEFT3J9MnuG68uTnuReC/8FGh3Fr1kZAfHU9fQSafSFETxqFbYvOrZ4BNNp4OHfEwIDfASOkz3mBzYeOb/omWc3cat7XcIRl5uFOO4HydKGsvYWSmgMpBP3fEiQ8zV4qw+GgpRq2JsRoaMv1sTxp5SMVW/ZecaQ3Hm5M5Np6lCL9maDVh+dgwnxCtwbd83d3ByZqjDTxvUdBCmCJzOx1lrNQ0oXNS9GJUD8uCFajZ/63d445Yb219F+JKvWw08JxJoCY4Ue2ND4kgULbssT62VwOLvfJ3d/XTjIWEKdl7Y+D75UXcdEYYQnMZjj+GjA713wm/Wy204XlngfAD666LBpv/sbsqoXBVXNFIn60smvvLSsB2KMl0b2ugLBO9mKZdb2wKaWdJyhioY7NO6ljFExQCz2an0CsdVFVxARWIpBjJh9jf0Az9vNYLgAKNQFKI5G7/lSceRahV0K2hCdcH0AYbrnP/ziXFZzyJBoKGFiig90sPw4QSILtZb2GEeQyRB2AEt4DxI275NBUWULCYUZxRhiU6vqfsarBkaG/miXFORDg5UbWA/iziEa8rMvJCIQBK+CIvTI+cx5bebcr4kKPSLbl7hdC1MvMVDPMIduh7LYjH87ORXV+kfgYlsBeqa2zq9ufdwxjR9XJHke/3FiJPDDRX6E7g7fXdVJ4iaq+G+DZwNynA17QqGFhSQdRHqKqdDubl8heaU81W0IESPg1bk1teis0Fq9eN/8sJBFQKAcmJKykG5sDW9bGR8lPHacqYKKURvVirLffZACfa/b590ZB84kMgS8C0KN6Xg/tgZbX5C1ajyZnlqI+xkYias5DQ4fjn878c5fm5AQOO4rHIsy9LsOf6uDKNwAfeHTM/mE5ZPqy54L3CeENpI1UmdAbIyiiLICrZWRVP8Bqi6F/EjDIMR4cykUXuG07Zp6AYCCn5WtYhUda3vU3Vp+WkhFNTTScYXfHM0YzPjAHoAlapf+ylNrjRM7uugpIkKfG5hVNKD7zDH0N7IxoC2XnZZbgIwA64AEdJ0pzoGbmPxPWu9F70nONtoND4nPp7YyX/imMBZuvyIXuocn9TgEtb+eaWDlyCLVOU3qmYcOJ9OvQjtvf3PbeACA3TYc6jYdGqobwLdiSUbnH9iRQyRDrgNZ4MauMYugGxs71HsSOfIM2yojWn6MY16SWJAFKmdf8IJoJzqHIUSUAHpdXbJFKr9PJzIyoyCcAIJtBIOoOYr4FB/DfbQqF71oGwA2harFuJD3jKzydeDpphLW8TJ9bZFAXQUCOfxOzwvl9Plbt8pQBOqTVaO+0bMiqjkv2H2Y3aIHaGoDSrW4f60AZVHwYliA/Q8cVI+6enSSqMzGdiGhTceuSq+GQxrUSL1yaA8sfHKuby8zqKiI5GmD/lgOpxk2m2WOgZv+6KM3ShSAyoPx+CtR6GuSSJQu3OI2eZwq+35700NgFCDjmM/hBFDWK9otRvW5m2ofM3th+CgTzVIKb8L8Ho1NcO0QVKoF3h9VurxII+ieaB4KX+MDOul8WV1Eu2yY/Z29S6Z64pF2quwDw8n6zqInxDZN/ashvZ9OkuWPpfyp3HK+hqzja0RFk2wP0Hr8mQi7jg3rWIQmrT5Oq2lDKua+zwBJCb2hV1tE0L3biFz+tEFSgOZJk2IY1ERe71laWIoN8hNZgRsoadIhoJrER1DWVQCU+SiNVgiQTyIENsAbYMqdNwdemxr/FDtd+5/DqNhWR2Hize+SBQVfNtSrOA0FveLk0ObDGinJ606uFyXfxep0xVkIuM2gWGX0V+iCiqEfzrgcrP6mIBG8EyIhyx9LSqLWMPdXs3XoOL3Y9CSV4uSRg9aDwjpaj7Oa0F+DPQiq/6AChFv9S2xezs8gBWZQE8prQGaKwAK8W6xg6GOsHIjzK905n85E2CKkJp42obqtLks1EK1vzeysr6j5QnuUY/9pJJDDcZ9uwxWMXf2tkOuTy5eUqsbW/Lfp1wjUJdLduWi47us90RqrxqVM9lX9DiCyqLxiXT53NJI41ytUNqG/YC7nsHJuBU1YmZ0h2V9tCSPz4jU9wdr8kc3GFelG8ocMKiNxpRQn3iMgVRIEPfbFmRUjdZTNPpFE8eH1bhcig9qwIcAGB1069YFNzI5h9Kd7yW8JcQHhMzxVpP31rc6HbtuK2bq67rWSWSj0+1YUcyEG+zrv3ERgoqVkat1FBEQ8XMqrKpuTJn9Y3IwCOtLH/U57/XDLT6NZ/QUn0Z+cbf29dHvs+3DLAu0RW4ltt5CBD1RmlKXn3OHAQeS2icN0jdkFeCvsd2NyqQBQSCGjjpurhl2jtBhQtYeq472oRuWGB+keVdcXnICZXzsFbn2APygpmvQg+6RjBOTXo3PnAsPMX1x10IgurIwDmP3wo2+CXfAeo9tFsNcPIK/9YN6CWMnU0lbF0opIoMZ6aDVmr/9HMBrnLK0qVKR9IvetGipo2gscISo+ZYW1p1cc+YOqNpx7x3Zx5AB5hxo9qJQsrrL5YifpIX3YIFYGgV2MEUVaNwIgE58M0ndZhXgeIPKJFGMsW35zc19aijRwFjNyfsx4NDU7JcLP+jtj8STjBIOwcanhYrhCjtxIH9XkzV3sjpXyF+BHWQgQSEmG0LtXAyLRv8O9eHwvAFw9iUILONYMVuHTAkIImP0kjax5mFXBwDow8XgnLq9+MXKswvxYz/Ci5w57f8lPtYgqFIFnI/qmX3ss61U/sbq879gFlTx6v/i+eK6Kb/0B8yOxHKdpHPbGGREjaK94+VI3K6ummrfKn+rHApfSd9dBu0dZyjepvkVH54OhK9wzEhFTg5BSE0OvXiTzcKvG3qaZpEgUsRqOkxV7xrrZqQRCcgPC4kGNTfC5vB/c/zS1KKk+4bH6h2yu2ckXe7/PWPxAY8DnSXy+6bsagnO1JDr9Wb7mhNqeUuAReYJMPwow8Dqd0JQANl50CLs+YUPS+UZmzw0vQKUmBGQVkwdakHEEh7j66lYx+CS9GqlscFlMDX57CkOOx/9tdOSQiackctP5mSQ7ZUmr4Xs74eprjuVXFi+EhJyu0mWAvFMG6A3hvFflt+5cNrhvs+KV1EsiPxQ35zjHpqxmSn6leU/pYyGgFaEvCxeIAre6hjziZtGWVBISW8rY33gXmB6zil68/qIS1hTzCVFfGTswc8h7prOBUm1Zn3j3Gk3I6YeGa1kd7fXSUMjO/O5L6yk2BGI4lS3Ls1CLP/EUMRYDWshHT0NNl3tg6fW1xmzgIzdtzp1zQj80CgUEofHG5Ga38CnMZspWQOVX4VKarbJ7L+RDbM2O/p6OeEGkuuF7kUY2MalPnyu6xVcdptJLNHFPrbU0WHRD7TxdtYdfsKYGkM+trPRXaHqJtFbJflGBP5kEC/q2PGdB0AvhxizsTPDHSkSq6/sq8q1YdpX8lGUpoRs5Y9XmwnPMkKZXE9/VN73VQsF1Ziywtmrm20C3X+y6dQoz+pWYa9ADR6UyyRgXSXFrTx2Z6n669CROZo1bvztMQLlMUAl2BxL3uDV0QRWQcthLhfm/CyTmwYs0zaN5+Jc5mJZFl+YVgfFsl7dBus6PKb8QoplybmUWBfJrLTZH+h2sFcRNfQ56IctrxIVBb/wmhTQXfhiymUTE0zxOjMgNnFZmVS8FIppku5bUQ4XJACpMYrrhnnvuiutIj0uLOsMpLaH9Et3ZR+EdCePtHaOqdJ/5fzL8XFXlcmaIM+f0eDkyxHHDOpZrgz6jIxpPug4EDkws17msa61TUf1tv6NCg5q2l3z7Gz9qJwU7hbI/vx6d0JUpIDlx0NKQzetEzRd4a8ReNgcvKPfrWs0qvlV1y7mKYDtUZfQxZMqqBGHTnxNrQRQwmRlqli5WjSaBC32eiUcqAEFR4qbsWKiCPtVHBgrPN8SyZpNqW7C1D9MXev6yvhZg7SrDCbtpn63lCVs3itpSHVAOKYCcr6e/YyvAjwHxyE+jn5MXqj37lqyPSA5IpRUMjlC7NY1wU6z/czuL4ApfPOx+0ZICZRP6jFrLozZ3D4T/aLgoDFAQH1UcHvzj8v6rDgNmoRCEy0xRJgZJWfyq5O6TgkSDrx6bhue4JyiT72jjkTi+FyirN+6siHQbbcB+cJk3pydDLFg76w7wps801PPiZetvXTft4dgNKcmdM2NW0N0hIR1wnlx5+ibEd2BRAP+lgZZG6FkjIhLZ4JloAY+0Z1YD4C8rOSJptPuPcxok/c6JneofmTV/2rzlwZca7lzXjyOLY1Lzsj/0AvgTluT2Y0u4H5Y2lrx1scmWTVKLF44krkPidJEBV0H6+voKPzBv+rDY+yjcqYmarsSc+x6+Tx5V/LkmrsM3QOQbdS6+2MO0PwhVkp91rEIdTzTzz6gkq3AF3gUZF+zWDWKpSPRcJFAnTZ8K4H5LuXjYMJ/tCahhAZ+bb85n5NQTjxIOTSwfFi80UVCfYjuQGXQfsNmL8ubTl5M37U0LVE7PGvEctSl8x1bc0cQSqO2F/Bu9Wdm0mih2FEb0RAezI4Nwab4/YOwnHpK2Ytld/SErNfUVxdaIZ9KhX3Bh7RM59xkiDY5dPEwWMTeaGVr5ZkMk8Bu80rnT/n5Pe3ajqPg2m/8jR63RZGObRQoDHfc1s56j1ZnMOtBVIX1RQq+p++TYlaDHid1uGya5WgAHEqJaXr7pyO7ECEvvuGtBxBy0HeX1/4xivJ94M6i83RSXYnrn817P34W1B/a4AeH6HbzfnMdoG362bEg9rG8VYeksfYohpFTCdecgleEsUouhdtOMEJLURZQ8+AOkYNFIIlSDcvbRAcK4u+Jljbu4mm3yMTYDH7TjSwHn65WEoTxMwEl2ymM5j+nc9fYxN+mqbGPreZTr0o5s+2gF3E2wrw0s6Rnai9WUNkLC1WHnY+vtEn4VloXGaXzRqCEfQq7Co3HuyCTUXvMq5iaIjlbWvaZOzoC7XKikYNdEIeXL5VZB9HLuWtOQVNPcKz/zzaCP7bIh0xzYFganc5FigwvrbY/6q/ouUY04yq5KbKCC/1xyv5uMcIpAiSsaN6NmfbTk/zSaF45hNGUcvwXgDHaUK5eBbsnz3o39kUXYeM6soazLKj5CzQTa3eMypArr1wN/DFeWufZw9GWf7JLVuXIef3TFxxNylSrbQU21dHuNFVV0d6odV0v6R6TlXtN6SqjS7WEWyCKuFRzyhCbKb5+0EsykxcQzv1pA8+UB47KC4y9e047Ikgrqu2cnjjEkOA54FANhjC+J1xnuq2thT9JwG8X8UF+Az6XMCI2OzJ4pgWKNwsm7b2ySDYw1geQUbfQoiuUfJaMKhz/BvInkBVsc+jcH8c5N96+RaMpCPLtqGnLD4AfMjEHY5+QncHCNRPPtpE5bML6lslLKiAGdwRVcpVFPjS8QAAD6UABCkmN58h6vSpIH94YNmuVcExkTZ5zZc2uefaUfwkxsWw2PzXHxhipnp/afkiY8czLyEu33NLDVgQoxsvnGOTBHIRSjULabML4mgmGWxVYr52NvBCUOakL8/f002O/BGrx5vRqNvJOBkcrAEuGEeEhUwYOZ1kCfC1Jvznn31Gx+XlerpVhZb5JHGiAiCrmocOujoqbCQxsnMgtFgfTXC2DXt6ECQ+zafoJsNutQPllW5FX28zY/0tTg3M8IXKROkoUeuSsfXKdNQ+hNHStHBQt+wK6Zgu5qx2WRYVMz6A+3qShzCyNit3HqR7VN3g7eeTPfl7rwDUz3S5S9dJwK0nNgzQIs82xNSomUGa0/TiooxE3xiH8fIJqT19c+XRcLcu7T9T3Nu29WEOwm8RHid+cB9tPv+tM9PKA6LmQvvNcSkejtHukX2eSVY8c2gPC/BrrPHKeVB082Rtexv1+wEHQPu9q82479yjzwqr3NUTfPuvCuVye8loGv5ESZKPxyZpk8OI+Z511/+sc+XQcJSCyiJtIylxzjSwYYygMVoL/AgkdFlnUTJy9PQmASRV0+Dxl2t/C/YtLHTyLdJp44kwvJAzfmzRC3RLycMvk55gMlhe5VsPrChsyMzhjikxtldfWG6efSMIiP5aLJZZj8RVEXmBMMAigRzJWTHvM5EzYdiQRdPm4Q5DjtQbm7UE3BBXbLpFlTobxf/ZoKGYzw5ssQw9Rq4Xv6dEytc7kkoPkvOYDTkTbAMxXMwevbpGK/5OVS+5p8//4aRbeBqAOSAopJjeGjUps3zh0/TTlZd3+Hb07iELLC85VpEcWjCBqwk6g6RvqJvKEpuFxQADKzERES0CxneY1vWvkiMl55r3JV5L6fMALK9/i4JFI8chOFRwHbPDX8OaqFgXxE/n7maKmXPpceTf7lP8RHgTOsIbhF09zSEkR22+D2M/Nw91MibXdcejWSa0/dCtyBNScPVn8B+bVN2ALWdN+68SCB9zMphqVGp/rIdEpOyyPhnMgJgYo6fOQBaDlrXsU15k7KE7FsZ4SHOKn5QLOM403VlTn+Ct6qZRIPRI6etOUXlvuLMdE9c9GCffUkRTrVS/oY5oVkYCnD1DIqn2sXE2D2wMBVPAmt2dX5yDrcYDsFhN4AR+Kv71ETE5VQVlMHSMF3VjSz/dufPuKbnq6ojXUVEBfd1Keg2KQ7aHtUFwgzyo9+/wl5k2XnHJns8TWBDUn4dB1FVnHzLJiJ/SvuVWZf61UI9L1XtNViBEPZRx5OZBYOJrrPRmC0ORMvR91qPxj0PM0Pq2k6mPUcGJc+wAtX8V2nBUsnS+xrrLNfvF9dOWZo17WlymlaST8w8U/v6qdSFta6BOQuj1BeKTYvcJezwrc4p6YS8CliTtpGJl2MG7+vyzszXRSsemA76llM/5LDKLe/tIIClyL4vT8BRO+4UO4Q3ip+jSwkKoUa1I8vwu/u3DORkOZDStQoBS2IlN/aYQN7glXD5mVeMCBfg+l0LPZfygyEfc8c1cGOqnF9URIWy9nhOzJX3TugPiUyF1UT0SU8OcVFdQDKg9WMWbrvpHs/rD1J7y++WhMVQkgXNcAxxqMR8W2M8EWkB02vH2vjOV208FwT+x3qSw2ghjNc53cIQjriJsrUe+kjpnXFXlXzr0PzqJqvi5MXyK3KTFCsbOvjZs8yzqe8cC7lFURUdo2/hZMAeWKZiOckRUq0MGd5VMD//kzfCBBP7rySLDfEOhI0eTwlgV7y9aS6gr/7/pzUrtfUZBKd9UXqO/TQ+1n04sUi2t9Q3fxJboIRC0TWH0FL7VuF8YLhR2V6kWtElCavv/pkLT1r/y9q4vlrNNtoixAZQIiF48jNSlehHCxU1lkhvxrCKSqpIjgxkqfJY/icEc1Nxbs9c1qy5wgBDZQywaxxPgvQsAh050InYOBHmSX3y0IsX9TnFLbYECmjgRtZBX9aW1Cu2YknFH6VTSLvpCOB2f6pNOM9lc4wp4tiS1n00vjDiMtKZQbGrYowlbp/Qq9pk265SMU//b3EJNAaoi8OwLZIgB7a0mIyI/6jjufcZ77Y7hQSntctA4MpkFlgCVP39jmB820m1h5NjmFY23jtJnNKRcjCV6S+wSvDPtDsfblCblWck1mzvbuM/R1VbxZGLepV/2waS4HkGdhCS0MPs2qp/FdUO4xfDAt+6AGooBeeJHT33p39ps5jPUof3URh/dC525dqk57ZMhW4C1Wpm/ajYn20ccn06bbHihtwbkM8zHHGh+wlChQN4+GX9vtW5cv7p9YBCXAtCeao0tuLaZ41UJU7ei2GnfwS0vRH0eAg+uf9HyZ7ZkVzfGvh/YW5SL/1LFizJgR/P/Bif67+GPMLUhgfZcH5bsxoK1tqVyHFRLxuAeDVE3jxA/EVK3ey47SZs6KCj6itHwMLz+IvBX/UsV49FVKfIbotdf2hhiw0EohZ9ET1BypnYw14hibZdPotgWVfJxT7zv/wIa+a+645r7K0Sav9tgohMv949OA4KJQgKYZL1mi8AOf+cekUFKMPoes6R16573NQSE1ZKmILKhYSOINDW9NFz8s3A1LCey+KWlPhnp3TaXU2iefTHm4i9aYo43ZLNXNnPD9wuoX2kONeTUYxilyDHpl9Nbc1bw6vmBxBHf0rax5f/y4bgxP8ask4YRbhBP3wQ9R5VzMhmS9ZRGCLcOlIT8QhlB1hbTsmR/1eFDnKkKefX4ZvZqKayuDXVDWIX2PvNmYN9J2xJFxy1bPajleB5ZKpdW130RLYjPSIdGcYyg4H2EdtQBPtjziNIsVhFmn5Mb6wqpXuVDjRrxmC+WsV9w0dwbCT1Smffu4ASNNpo9/ffPu+RPL7vjR2Cmxqo1gNreSZB4BqvLy42AB4XPNH6WBpMV8uVKgqQpLEF/36y/0Vb5waWKuX5B9HyUkty7eWE59rnPDyaG7oQSVmbfPR/AGJUoUrw0yusC/sR1gUXOMgBMC6brtvfdQA7VRBe9gnqT+lotHR1l+uvzoE5zz892EMATy4XoGkfPZmqUSokQ1iDTiU+G3NxXchrN/6u8J0WCaslCxkCFm7LeeDEi+mKI+H4G4mWvlVLadsvbux1MRas6KwG9T4cieGv5UdUoUD10a6lWg9GVVX0/KX0yEc4PSvz/NFnMr8U0Pj2rkXG1BImkuHCn1m8UdIG95tBdU8QyTC14y9R5HvTAKvUWyfCM6Jetcj8swavc1ril/VbGuXqDvfVlylCr0Y8CNGZlHrPndvQ8oKmV7UpWFaggyuvsyW+UXTg5VPxnfJtd2LAq8yELimhjeN0F5urCzsXjRqkDJ49Vha1M3Ib4B4JC0Y2QepdVVIrdDthOl49F3MIzOMiVGeD+dM820JPMLiyk4tUEgxnOuDBPYKc6EqwYF4va+I03vROAdpD6o6bKiz0LGf8x8q1RORVI9mztMTBqIGNfR59DOKgHcJGpe2S71rpLsPak7G4NVhTVrC7lJFOoqt04iiBKvf4D1CGf5qPa2jBaH7a0VAU7IREot/pRliPgP2AHrLtXQTe1G6fQaM30qMpb2HFLFblhL3E1cAigRflx/PemRUudqplhw40GHgn7YjlqMh0i/tPxqo/kZf0jm5dhETVYXMSGPiBxmvgxA8CO/XhvQLwhl66aEiyeDaAyp6VEiY0Hl2mUPYJaQpllNkmsbVkXdzTP2RHcYuQIvYtot/yQ4uFS38/IjgvOHxOrcdOR6bVvEgaSI162fn/C4COC+2PzO03viAhoQmiPFWn86nbJ/hATLXcQ2VrUlkAYM+jaKzgmFtHswFmbYebTTPPO354/tk0fgUktdMMn4yE5TVdGfHGbfx8fLIIHI+Pl+Bc+uuLsSGE0RV5ieHmqRax/QMALugI3G8B9G9bH0F2Zcok2/o/npOoq/maqVUxCCyrxEk5GMrro+7Po+rlFtnXsO80y9yCZDtWEqJSjMfAaP11HR7UlHwBLLbnmLpuLgnCzdsTiQpxcfwOGv/nokk5GG/1OOgcbQcGKKV0R8xt2mSesThBFuZldTEyhqGtVNZNldUaN6Jpx5g4nrau3bht+cm6ErUq/1pW9uVfSWPW/HUTFKgypn2GxqO2O5FacF44Zk7dlDK0EjQfsvrxd2V0NFfc+8Eccdnu/ZUGEn5e+lQegtapaKjzh/+AqRb35i8Jlzf+oqoAady7fBjY595nV442Ow/c0V65wA7DMW00Yi2JxHrnIU0iEVS0mECuctmAeud0QZDHVL1gwKHO2X/uao6ZnR1wBrVgJ5N4uRkgorQj1g3T0H9DHwYlXI/SDuGksRKKKlZ3H9hrBS65bo3JIH0bK7OvyFBMfP84bgza1SmZrz3tLZPoPgivJIcFC5PDR+UoXwRdsv+F5DZ7MDL/ufPwZfNj7S/goyIDxhdINAdjhlFeT9hgRLMYwmSK1wykRYPknh+R028BJhwTdHQABTkzpQO24DFOGWTGtOBA9ptD+goEALbU3DGbwEL4rwuCgD+Ya9lYPNJaFLaEM/IYQp7L8MnvB6RmMoNoEGAM5BldPy29LbUwpjPXuOlUEakCM57OozGjwq7J87C9ZwQ611QxOINTrVR9d8a8EE+KPdZ5/qDC4HBeomMF2EmLYsMkO6q9UclwZgq9ee1MO0X9V+KyF17ruNDFjYIlqbyHkdNpGwmf/kB7i0XCDriiOxZsPzMGqMND/3gs4RkkolddeJ8AROZ3/lm22xKpexz0/seGo+b8Af1v1DvznMqvIK49146Tcmh+ZfbUN109KpZUkjvXv5MrOiRXgPrc6UuynBglhG1ZVPdDopWI0MCjQ6ZyXI/5aMp5a6HPbxNLSu3MQkMIpcdc5KIP9pZwZggjk2kp4DId9eeHH+V8m7/5kLGUTkS6nUgq0UscjHWZyLuYF+coCBk0FlOXssZ+i4EArc/9ZutK/6aCsKC1jkPiJnhHeGqs2cvFnw80KhMdtGnAMlkOYnFmOCS+AY6dM0/nPOYIme9SQDHSh1VqwmQtXeur8dDO4lAzoBcrhrnzNf9Y3oNyMuIc8hEZVlWdnbVaHYvrOTLKxMJ0YyuZorjS77eS4ayBw93hWzj9VDjIzIr2r1AF5LS0neMB1oG8mCZmgwLdWuHSsCMO9xCbqOSugOruDNkl6GDkehnEm2i9wJZ9HZHoYYpjW7e13WH7WaQD8I8TQBIud87FuYZsCRoOXSyqMxVVy7iEkkH+WGdO/L4gVqc2JNSCWcmqrJSzYhlvlzdw4GSgvrkBwA6fc4KKaaRhV3AgQamrUKCpzNEpffvv61WY864IwYcaqk9fAMH0EPHywx8YLMi4yEX6Mw5mAGbTzfHvhCPvJNIg01WuG3ixRKSgcvBSdgLm6POG7eMn4iRHtqeWp+S59lhsZdU0oReRSNmX/U1ymr0ejTWIhlMWqFnUZ4mgQyF3fGXUUUm/1W2xjBTAKGnWecjCvLQOs+yrtUaYhxAtakro+0mP2xsZVcMuU7Rto3HILNO5OQxHXMkFxz6RTE1ucYtOOv5TPdoAUh1jklcUuibh+RmvjUyqAcTmscFqmqc/nDPGi/2KQ0c4EMWI9r5Px9LI296ptdxh81AVRjR6rl+sO2mmNrOQRJTQexcZeVCfpODzs0o2o+/Zf4XFQNS+MkZMzQAOrTuhnw1OdMbXVhkAbq/+SMaKoXBstlwEua6berQzBD+Z3jrSgktIjLZZ5MgAdWMHD8BF+LFTlpszVR/aEruTYEXZl7KKGuRcMQq79PDN1fOHRW7if10ln/yEfcp5FXaUBOo/SYaDnt5sEeKn4kEbicj1Tg0CIpGtYZBBbJLkadlmSF65gXY+o6vuRSXq/9hCJFeNQJIEahPTxtzs6xxvl8HbYaLB578v+gg8SXdm+pQ90EWbNuHvDgxO9wr4Iy1xaCbsVvnGRj+SuA6zzBAsXwbLTVxAkca/E6oP+2z+Sev1XEQxHUltWXuTwlY717/sEDKkMf/8lWxb0bAHIYBeEH5+EqJmmZjqpa0MNJQCvUXisSB4c4R7SjMGknJX4UI+GwqoBVJubH/GARdAmDVxLAF0J9AOsVgEjAbwp91BduMpSS7GAO9ynepWDdOMtcF0PQyuIk+RSjWCn2OyDzg381+IwrYLFM/X/W8D7+bP1K1WposXyAhcomhlnzx9H2jdwoNiBGVhRgF0y4OWdZr2idDXANF6U3bKax5mS+LL4D5+cwfeqfFlAB2TuIg+f1StSymgj6XEP8EgBzkHmmFPs3ZCXMKtpOvx8G7KK3L6Z5ol/OyEvZ82t6IrLEDC38g9I25mt0ZO7BCIOmLJIaSg8N2fGrUDjjfc9+e6nd4S01MxLALd+7Y7GeB2JHQ82pZTlSkc7xZizJHA9oLriyp59YdlOReHAKwt8JhHWBddluEpbadnZ47RggJGW/vuSlxtx7IWU/ufeKaoTCeLrJSbCrVlzTDym8KqRKugIBDp06+Y94cfEUA2+4JjPCmgDEToc58cOXdjSUaZGvEDPVrKn46M3fH5c3BDIkGvC/FAUUoMkeW9gAABRM1/6xzVj59wMupYLaH38WOAxSgvH4hgwBX3dsAdBc5YIAykbYVSQ9zx3nYOELJNAR0gH/1qJSdj6XSb4Y1u7IEF69xVk5dmQgOZSXe1XQ1i1RLiqI8/wA/bnqRXqvyKd/eVp7z+uqwx20iLAiKqfMbkhVrQt+mPcGJ1muIUYYXa9/GQ8mb/YJJ84jExob2Uub2nQOFz0VKr2iamJ0TeIGPbENp7Zo9Nz3D6jP4hgxcL213PS6lqtppyt0pN5/nOjhAunopWXjiRmNsWGgcoVmxTkDgR6JJ5ylajiwvKVst9FqaOrTxu1udDOJa9acoSua0/ROPNNUjFgLXPLz1pu2HfA7n5AGV049QW14hXxb/r/RiKM1wzWZjbd0JNqSScnTr6UMEixxck9v9a9fiod5zcReEK77twWpItSUUsCilIvADTd2iVcSSC7kXxuwMUyHVvfGcHyGFgQxzaZlIAdHaNqEvS/0hO1POE/MXdFlzsUGV4OIwVNiHxFQHDOUR47wsZMYdgI7xz/rJRy59td6EU9MYygplUg+MHfdRcDRzbR+SjR+jLteSKUbucNn4PJssGwT+EY0ShF5ppuOL4oyTEkP0v0PFkk5WQnRJYWTVcpJ6aZ2IN+C+NW1t+yoWFW++6yZTSFrqjLONoOjJKzw2cx6Eimtn9f5maBpggzdjslkiWdem5LCz/fpD4AZjcpNXAjRPFu6KuGSjo2PBXcWgg2BVkQ9uCYzp57G56tjj4HhaKO9hUHd1KqJFB6YZ2phdDsmnQdpKbLj40Qf94iKhktA65VzksTL1nRH7xIShImOzhYrQG+DS4jaZQh9wNpmnXT5o6qMh+qWzerpY2KZs5lH7nVEMFSdGGlC8O4IPz7xzns5MidFMdLBExEqObdaguN1cXm/vinCx9IS147PqfJDl5enAWpJVjwYpbEab3H+K/uAxLf8G3p4cm92KdFVIuFylgnNEiUY7sxEAuKbuX8iWi/uwRqC3C4GIB0BTTV5Qwkj3nr2GFZbOnruLUsvkSp3FTN6zLHxOkVUrfp6TxdrfqEqAoFr+523lCpSfimsnuKD4rA1R6nTsaOvgth38YWO5A/ze/rdFkozUMRUbh/XSw5HANQSkt+KnSm3zrwAc9QFp9eYBwaCTAoyGxygopS4fmie1oW15CZGDnCL6OsUolHtHOUIfaUb3uiY7VoBegAbTy4k5alC9gVrWm3mjA2OYryAbX2DZohzpPsJZtM0YTAWFXGcP/XcrcPcUsE5n/LWCJG1on3C9Sq0GOXKAooLOP62uPRtgFFIvOFDYRw+4BTfzkNrvEB6q4a7xoDVOYg0qqxFyM9GXbGVAfGpHNnDT9PWxT2XRWm3/j4TycIXf+al8xchZKETU25UTgHDQnWnQzeIsdit8TMwPZUEaDsmzF99EJqV4ZrB0eQuhoVfn1J8WfoaEEeBY5f8xwlD51EaNlQQyacBI2gCtatrSLeB6eizBRfnhpdAr8p8xvJqe2GC5CHFnDCnbyTenEai4sR1174DsInrzgJ71hoVkBagwv89WcvVznpE03CLiovQaR7eJUKL+9P2wziTbNiiofN8q4HJvTiZSUOS9whGpqqGJX2tXHyVypgZZ35YMd1HUQ3mbVM9Op03ONWHnybLQcRqRJr7r0sBRrke67dKMs93KodImoaZr3t+o1tl4iJ+J2t6VtE9dd6Ai9VKAdyLrPrxDYK5C8t/wSqNX0vNyFaiqNlfPwRwL07c+sXCKFJQYnJNLDUx6GG1NzhoAvFecD8/OE1bPSaaJmST46gqaYBrjqNbPm+3c54/k7zTRK+pdGBR5hR4PUvR/1Y3B7vA2b5yMX5Dw8YqyW6arowmQbXdxMfjdkDTDQLGcCkgdtwIUiNrBBBAobmZ6s8W58q/x+67T0GcB+xs9uIRTfZHSgn1AHSdhEAo2VbgVY6xP6cUeqUX+TjnPUdxB7D8bPUkCEu9yHHxvfNdavaL8vH31eL4wEKEXQg/UiSlzNttfe0ApkM7Mk/OeffH7oXXq7RhbOSER0K40EN+grlvllYW6mNrjFtvn0HV44ymGW2lC4Vat0Qqj9GJ/3RCcP0r9qfmx0AsRaFHKSiYhwwnsGT9Cv2+8VQ+7poEGF1Iv9h8nLB9TGev8NbPRVqkZ8wdDOkxipasKIElpP8GcIPdssueXX94sAYZEBotTSchWhsxm4CAiZQFEjSCr08oSG2mWGziEvuFq+3DIDBY5VvJGJMYfG4QPaB4BzDYPvRt+uADD+domc0MFAbV0dnX4EUSRe6SnajvOj5roSlXEk2yHgmDlzgf7L9XeeB+LD05gtCQChsp2dT52YgHZzr/8mknIXI0+l3sFkCBwoQNzALd9jEPpbQEDRa0M0iIhOzoDNZrzJZVxsNfrvYVmG0NS6kwLr0qHyAQnkwVN51CpLnkJ8fSrr0pVfgcc0BjYuGODHzOhltZ37MZoAn1glLt7yiGhTc1QSrPr3m5x515xnoYkgnFdRU4mYOmVCNElWmldpR70igCOlNWzpGKvy1qmlrtYgWL6qQA+97E+BUu09vRK63RuaWi0ACcVPt4XgRKz6SJ5eZMNt5RX1vpMm27YsmwTQMkVqU1jvjpEtsd+Gaeq7Lwn2QrL8ntBEGDybsOMjOtUp4PzMaw2uQWCK/V+8ALep1PN9Vg0lTeRzRyjxveMN9ArldpjlrJaKqMYOFk8VIosFqxjSEA57pXSlq/onTQGwGngCvKwKu4uudmxf+Jd/Y+PEYyOo3rRAo6O3yB2AM8FRqU5aGF+pvfZr42T9YGXdSeLA08j34KqIHVSujsjY2qxwaBaZdbUCIeaYUezCzBehWg6e2lQ4AvyNxFRO/1iujgeAPK3F1//ywuzlOTxzVj4n2w0ML9EijptJ7+VPI198MvaXomg5jpqPvIhAzh4RW6P1D5Pu8UfHFRE65r/U05rfJ4BLw2ekBONA+Ml7PNAmJQKYlfnSaAoMAXTuf/6HReb9l3X8vskFoGNjpUoSSJE76xH63Xieiydg29B1T/fzFHPRb1JaFxnAtsjxpPVFnlRM9/qrbUiZntbI2W0WQgcvTR/u22D4BN1xQ0flbdGiqrqS69dqpjZl5bZ5SEKNmuz2l3Fm17RKoymSRldnzW1zX8wUnXHS+e/bwR6WH6RH+02IUwui+hlfXtIc2wPdy5cee8eOhLWyD5FlzaElkpaVCOb9JLeeT94qjdb+SUq8rr1GIvE+vmz5NK94WXbi9C1EmbXvLrd7wYj5qMhjR/JvLXuhrK2FaPHHeJ8Dc+C2UZ42lnQMwm1/alUw5/al86kybmAFhcQt+y9ZCxpSRZEA+DGXRDNnMlopEcfpOfpKEkkOccRnz53yIGLf0JQesi0Xf8X8o27LZNXx0sCcNqxEPOTpX0OoT/NLQbP0n7rhgnrhtZ3yA8IDJ3inLEuYLNQRXWwwbmWQ+NkF/Fk0jZfWLNV8/0GA0tZqnyWyzN9veT4qLMGSzSlO3tmarlUFm+EZYqVNm0dOKNxOzWP5ZkiOYR4Qm1b2p66XTyW3enqGS8xJIvl/dur+CHGVFXt+iVvvKgZ3qCIFvgGnQ5+KK5MXH/bPBMq3Da8kg0GhwHLLWqSqnapQfzkJpQnfS7N4hZyeSWgOpTqZzmnYlzihBbnb2/EIas1WCNPw0gr7pxF9QAWeq1tvG0sihHuoJPWSblVEPsdIHsEwbiUfT44vSFsaUbfXZWc5sRRtah88skv9pUemSAV1yjZFrA1YKX0Ua1qHOzHZ+ac24IizQugzJvH3CH6G1I7e1TMZ50UDt4MFSeOLpPSkuK+Dzw12NADZ9jj3Gyn91b7q0Naz62p9JQLQcdbv2L0eeiwmC/ygisOP6XDpvKSJ6Z4f5pTDSVs/OaNbDeE5gZMhyCPc7Js0T+fsCuQAwbc8unVuMeYLFab6toueWnMut9IRgmBcTyNoRKd4PNWBl1wtW95gTpvO9U3E+Na+7GlFcc4cZmwpEIkbF3uu1Tkw7OoTguXDcssrQOlhDTysL2dh0AvuzIysYAHX0T4pMmQzv9MmChTTLpr9OBWWkbleDyVlHShNm/jnvyMiF8PGSi8cpBE2VmtaEJOGM7asSIcBqcFry8aifW36kVIJg9kU+5kpaXGapJ34U9I96gcsG7nnij2WYt2Csf6C+37eQDMJS5AJz4LGrqXLk6Bg/j+YSr50DQZie6RMgX2P1iymPq/BUg5d1Q4Op0BzbBR75YDbnw2SNgtNXnV9NlW0iKUAzmZjE9EWC8VFzGWQoewqguBEr6zBa8snkbqMRN61EBEJwM9BWG2OY2OGUngwJJRwGfKNkPT60CkJt4gmglmdZR9v6MCPNb1+N5bk7nR1LFlJue3/ElVB2s6Y6eErx73LZOqGjlzS+iAYmAWkVulGD3lEUUcOazotXxQ0L57ZYOGdSk9kxb0mEv6BhraVdbDLsJz/BMx4R/F4GQc0Humwj90Jy4L3Ls1M75ApDCdTUPktPlK2G3Ey52kuFjP3f+1JIMWAC1rhIlZgWDYoZs74O7QTSi+npOrPL+Zkk9GoRvGI442gZ7vV+Fk67KV8lVaP1KuixDMecGhIT5h4qtf+L15ch6nEULfT/jZvxcYj1jHRu1nMrBGFt3CdRJxSE8otvVKy5QplvWorJBQu6wtKvVADLWeFcOdHqCoF1vtWhmcGeFjjYO6FwnZ3RbWEfuFZpZuFpjB58oXOXR7v9E+xBl7tYBHJXiU8O+/bzsNgd1bgeZuTR+lNRuPAVxzLcrEvToUuJvOLlmAVLm9dx2ALyIQBpiFjFmDZT+1IvOwSrBHSQ9ElOdsqL0O0CYwvG/pN8BqkakOYM9oIDnWtfvwZqifF46UYJJtivxDgOhm+KZQU7RbEXkkc1hN6BExZmr83fYvvBVeAX0dny2pQN3MmjOdgEbi6OPp+xKOwTU5Yzx6dW/5vfrBYZXk9nQDvVR/Er/bjQF7wCCXT7gcMuTETIUaUPawI6D2ZzL//NM20hLf8j8odk9QwP+34hn81lySGVpbalSvPS3U2WkaoEnYnvPStqYO5ddSvLCwLUMF6hvQAE1PH5KtHfmiaqOeTHZU3e4wrWk4pUR6aUws8cZ1+3t2k+IvDWWuF/X1As+F1l94LdGw2DOsfqS9eqdwIFa6oqkeW/7eCNNFm7LAYDd484WwrkZAnUkiVKoTWPsBFU5JvVsS1NSDEch2F8tgfmGJ052B5t2WR7N5KNCGXAHYxG2D1fwf7tjx1FNhW5utPVLOnEXgTglCg9oDetb6V+jFUyjqrJYPCb9bTuqIfLqNY4ZyKEpLE+l0d8wurkOC/gbRlW8D+DhDg5C+9qX4100sMiir5ugoe6Dje5Hm3miMYE9uncMeT3Zp4EStSSMmoYJniTycSyAUwgVTI1sjCDVmrWJC9Qpyr+80XogGXHoeu42sxhjlg9dmuYEsSZxGKzL+jEaW5Rc4WT/gakshniZO0q2r38+kfo58EOVJiWZazclrNN4I3HU6Q1jEdRN02LeM3OlUSOJWXXYUsCT2oifbcLIXK2kMCIqXPCplO/0mr/ww8xG+1jMUP5htcm6Lvb7GJe2BiJz+xOjGlwaH1V9A+c3O56kOhXEgNHZhuvPMOExgmpWWC8g/aHJn3G4nZI9jamoit5YouLXgktwlz2bmkAOysI03zQJuMUj0rwjGoOhs5PF8TJcdtuPle5QENrLfNU57GzJAe77Wa5Kdak3rKXzzXu3g5ZicREDZt3rm3FxWXlJfIKL3IJrfcMA1UPHoIWo4XSK3qD9Mutnh93CEGYNE1iNZbo7Cis35suDtMG3UMKcDclFACpImiu8j8NhgkBQpU3dYHcxAPQAK7AuSsblkwK/yftWciy84CMoeX+K2HDkXEVOKlmz86E1tAnViuClNQw2dEYP/9TIY5BUm6ErnIhNN2UtUMgSRXWL+/WoyOzIFx1OROpv7/pYD2pjs87X1BRNoM81J8Jt0AqOgfTDajgZlwgY0Zs8xnf7lKKfa0as4Wlsw12NjrxytOHCod+mLMTsjej9Bq6y1ee9gZeITwjFF+YKtBe3+PyyzzqyTnA8FI/UiOVcSqBbs7wP/B2JDsHYf+gi48qDfS/xQXz5wqggYvdGhIenFSEGrxC8Cd/uEMWZT615sAgpC5QjwCcBrypiykfGbVAOGzpVy9iQmgBXq3DRj++p8DiUtB4ZLmK+zgvRR/r8RwBNkniqauo74fWI1zGgNloTESDgBnqAkdYwUV1l2I1F8InqEPIDBVd/R9RjC3eNLWKY/hoH5+CnyAZ+cpet5pbdjjeBk3Yd9jtwORyMqjd5u1tuoJrxllUXZe/VoEW+x5j55cURpv2TCw/+gJC6uoo3fmuJ0EtRybrmFKRQaA/mm6SjIRoNRM88xgxFmyKo/5usN/+NxObbtOdjfO55oetxfv67Zaf+Cspuf0D4ADAQtrzIPHqGQNzwh8phn/Qi9EO4UAN8bfmUmCDtU1zRml1FxWUvwrEeiXVzlAIwrO5WYY5OXLo32i7lp4Sts4oZOUIj6E9r7DfhiqHN0NtC1wkn8Y1D0+/ayNO+N8gFDvBj13kKHjViUeGGhYKAgIJwLGHQYifWI2bh5O1EJpojWZxQhTJ1hfYfop+zLMO7UELiiRed16ckgDq+o0evHu0KUL1YP882sj9OfTRyHhwL1F7O+VecuhXgpBY6PiEZqsEOyZDGuRhStDTbj+o2QqRGikxWa+QQsDNmq0ewQAcJv/pTf7NJ8ZVX53Jlm6iGX6vzSdyRImZ0y2KZ4qC/RECMbzTwgi2r//+BH6nZ72j0DXc+oXwj7FwVvC7A3D7qoXgd8QQkYjeP0VC5IwiNdalx9VCBzSoi61eS6nznM41OO+aEQIruO8IkA3dbZiLExm0Y9vbrrYQ1NC2Hd5zjUeTHEujmJh+xdM0Sk6KXz6V405IFu1hKvU46kDre033G2qRAu+TYZJj5FviMkgZKJq6RhlwuSEGrikmzM1ud/tjR//qkyys+zitvN9UX6sk+gkDUDJi0iYUS2qPTRhs/3XS8o5c4UwVzhS4ll/zaQj/v3pfTMrW28ofNIqWTr7PYMYzRT2sAuYpiKJWqiwWJB7YGSx+2gWGlJj4jwhjpDzvqZTDt5LN8Dd31d/3qawuugKs2+McGLuMq0GdfD0ZmUzc/sreFxaUppAR+QdE4SZcrnr39G5+yDgqZGkmfjyAzwk4vbTCIeV1idm9XNvLNxikYR7cUamLitV3CNLVrpxNYIwj1un0reeKSOfUUMLsn/G9DJL8HeHpE3PLCaTt3gHLt1UvOxn3jcRomO/jTHJa3/ZyczG5BTmHeylYyDvg6Pw76wRQoz6CtV4ZD86ieqtDMMhoDcZ7CcM0muljUn0l81O0KjR1rJ4dcReWOYkK2ga1vszGllTTd5hr38r2l4n8TgcDuKJbb/FNfu5r1U1nIIkyz0C9Yq7/KbJMOxAr0VmDNDAYbA6TOr5ZRAuprl5Vo35/7QI5dv74OXH4JIR7t0AWjlB87As3FRsI3fFyo1GCvRU0qLbCJ9KRKqBplHjD0qPyIdKioIzj20tcsM+XXGHHqln+J8mS3hnh1w49Phe0Iw0q/EyAX7aJB4c0YDc70kxRpFguzoVsRtHBJQ57whiaqaWu6WCXCFRTgCbUXy0AwruKckYljRBVgnIIHOl9t9+XMZBlNck5pje0F8/iAKxu6pUSiJwOmG8OrmSx+lBF80n37gYKkSPGuQSuDx38N61FZ2McUQGgh0kEqshqnnyQh+u3H1PIs2uyVTA14OZhAt5h/SwZWNtOEnBmV/imIHYJvjNmjalxjkgKmAACvkK9d5f0ppEWaxoxbrvYNOPq0cXto5U3MwQERHu4ykLD9C2QVjBYdJ6Zs2FCFC4RRD51FsTpRhew4Vzp9OGHDGK+6o0sY0utve2yvEHTpVQIg6EYYg2zKk5jheLWUpkAwBiKddzVg5KJ3ginwA5U1eO0a7Uglgh7BR/XM9OzbnV6JRCSt1BUeMRLtrgWTchB5NTTyYukSfj9R265SyKSIn2Z18T7uKvs0N6kwKgEue9/hf6b8J4O6OHs0d2HIaazYKIyCTN49XtyEWZb1tK7pHjDfsH9h59mhpc3F2uscGQtixtTx19B/utFHp6IAXwUfbbGffWI5lyqKZ5UpR31qQhYryD/mSDA6ALwzDnAl3+gyobJ1ezPt1Ts+ULSX+IDmPPX78UOkmoDTq4YcpwykPErosHZfEc6XjceL7qc36I7JheNh5OvfadPIs5pXHc2UtnC9OOXVSF3ibhbJiPsTvNiObh3ArWM7trIY2oKMmQh7i4Nu6vS4uG6AFgEY9sHwB+q9rcE5HRV8tHiArRWN95jLVWYC0RQZRPUyfu2UIkr81rRRfU3cZZtX7K2xZL7T/Kaw2KXS7jUFZXbJk397ucCZMqjGTwSU0dJYCb+ukgoLZDhnL6A/5sUW33bZm451qVgfxGZx2rwHlsZgdHA9AHxRKfhKCuy+4mOoR96LzMDC7TE0s40Khyl4uWK4uIwUpepdTv5jM7x9WWOumMx+tqVceoC5AIIScxT0gf/XyO7IZpA0yxMuna4MH8bg77eyplpkLM9tM9IjAOMQQAFl2miFm9wG/LB24KtoedpLiWhOk0nCKUvpgRdINmhXq7i+RWRPL50SMXojccbiFDckG9TijrIDGYWqtjahV530B+ir9cwE/GoF/VRG106a9aaKnXdd/cslV7ap/v4pa1yek5WSMaP1X7NFxa/iv8S5JSg9GUIJIxW2VGrPlRc1wnQmTL/dJuUmNU6P7XSzgSX22ZEavVFOU+dGu4QnNc5DlpWyuXg2r19Es5kqK8xEk5VBJO+tHJmNMKOeVpnRTR6wR1ki/+qtFX3gWZtp5yENVCi2bJE0pGbT+HiAAAAAAB/OjljRpARJApcLQipEgHbhXkkNk4N6vAsH6f6ODxnJ6a7wrzTlwAsyLl4/vjX7IBxCJAs6BxhJCJHk6vavDveIg3QbyHHISISmBpnQrUR7AS+6S/SwHOtDeNKEEeCR1AEwSSY+RGUg0Vwg04jZt8sTIJxoKi50o+XGMKDkeQdtRgvE0tgpRrKelN7NndLouq9VU2lm49w98xC2Y/bIfYchBF2OMpynzWqmiMy2CaBGP5l7DvmkIz85xSrWRKGx2lzQ23bfkD1rXeSJGO1Usq2gvw5Wi53pZG8tL0Nt1CLN37hYFg04T+dr8sVu6FU8DrOE0dYL/K0RhDWCiwfCMS5Ea8fFG3OK8t7lVCNxV2c9eATJpAlDbfYB3srfMpjU9agCBbOrc6oM+yPtHPy6eqrNskqd5ztEKHajIepI1ZgQlr+v3foB9Oo118EGLWPjVaXy4w5ERpxHPO1SJ2W9nNMO1h2sDbjwNv/Eqzxt7dAVWqPBrpf2x+RI4euIe+PM8W5ApEpuhVIdqlM9lcYh5U4tGMvX85PQ6aMdhfgrd2my3fBhPHY7Udzb4lbtzspJ0O9Rjrh3znWpUkUncO1kSkAxB385zUBCvyy4Mrkdy3RjFsiDdn/CVVZt6HREs52IMALmPvBWTaKVw3Y09vkqTt/ed1bm2rz+UbANGUpSar+RSptqSUOUrm2fMuMv3zB56AmeU6G96rwh6z31BR6WjyE0u/I8ZREGL1eGZaOH48uuQZ/ydypOfh3IJ9RSDxlSoO+Z0GU3TBooaWLPKv+BuCjhg0TQu02ztvKPQqoYcV7Q8qBOUpc8AAAtwAAAAAACz6ZoA/WFcmC3X6DGvMfamonkuEeCf5B8NLgX+iWG4UoOC2GpDdjup7IN5W6jwbPR1EPIHJ/BSZfHrPqBcekkMP6QUqBWhggv06AAADAwIGi5cedSJHmp4I/ONAJSlntLtGr4f+BI/CridXKeFMIB9z4DVkdHs2C7TDmz1ylYEdu6oSacFOSlcm4wjwFHB6J2hsOhJPLalpGQTxkIwO/ZhUn5KiTJ8qc90ziBKyhjeNibCoECBV8Isvm0zzKHfoYyipN7ZFRmKYB37JMpPz78iKK1STxF4pBQwtguPkLwoBFrkP0jQr4AABBzCPEpVYgdYX97EslW1EgQnsP3BTlwZ9g35CKgTxGT/CHN/rPElCvDoUG8tCH6xW0zkI0O93Ib/vViEfhl0TGSvcYQ5P4ZOcYFilRvbYl6KI2qAO2RD+TqZO6JdsfFsFYB2Is9M81RyptXiQNsPTvCpgv4xYKgmOMEOWL6/wCrWHNu5soyhashKOqsYqKM3X6+XDSvHmzZBBk6aAJ7Kmj6heU5CWB+U+1a5hmCAG3dOrxswPVZlU0FKw8GCR5PXfWF9vS13mBJhu+kKFWnxhjG5qpadJJLmgIArkR0MvqlGvd1T1O3moKNov4vPbIMeVTkAFVc+iUrjfk1kz0mAout/2Fb5AsADoAAABjwdrdgAAAAAAAAAAAAAAAAAAAAAAAAAAAAAAAAAAAAAAAAAAAAAAAAAAAAAAAAAAAAAAAAAAAAAAAAAAAAAAAAAAAAAAAAAAAAAAAAAAAAAAAAAAAAAAAAAAAAAAAAAAAAAAAAAAAAAAAAAAAAAAAAAAAAAAAAAAAAAAAAAAAAAAAAAAAAAAAAAAAAAAAAAAAAAAAABFWElG3AAAAEV4aWYAAE1NACoAAAAIAAUBAAAEAAAAAQAABDgBAQAEAAAAAQAACVSHaQAEAAAAAQAAAF4BEgAEAAAAAQAAAAABMgACAAAAFAAAAEoAAAAAMjAyNDowMjowMSAxOTo0NzozOAAAA5ADAAIAAAAUAAAAiJAEAAIAAAAUAAAAnJIIAAQAAAABAAAAAAAAAAAyMDI0OjAyOjAxIDE5OjQ3OjM4ADIwMjQ6MDI6MDEgMTk6NDc6MzgAAAEBMgACAAAAFAAAAMIAAAAAMjAyNDowMjowMSAxOTo0NzozOAA=;" vertex="1" parent="1">
          <mxGeometry x="540" y="350" width="1080" height="2388" as="geometry" />
        </mxCell>
        <mxCell id="Zwr6tEuQaPMuRpj-mVH1-6" value="&lt;font style=&quot;font-size: 50px;&quot;&gt;最小化栏，从上至下分别是：小窗模式，移动mini栏，全屏模式&lt;/font&gt;" style="rounded=1;whiteSpace=wrap;html=1;fillColor=#76608a;strokeColor=none;fontColor=#ffffff;spacing=5;" parent="1" vertex="1">
          <mxGeometry x="1320" y="1020" width="420" height="400" as="geometry" />
        </mxCell>
        <mxCell id="Zwr6tEuQaPMuRpj-mVH1-7" value="" style="html=1;shadow=0;dashed=0;align=center;verticalAlign=middle;shape=mxgraph.arrows2.arrow;dy=0.6;dx=40;notch=0;fillColor=#76608a;strokeColor=#432D57;fontColor=#ffffff;" parent="1" vertex="1">
          <mxGeometry x="700" y="1110" width="590" height="150" as="geometry" />
        </mxCell>
      </root>
    </mxGraphModel>
  </diagram>
</mxfile>
